<?xml version="1.0" encoding="UTF-8" standalone="no"?>
<svg
   xmlns:dc="http://purl.org/dc/elements/1.1/"
   xmlns:cc="http://creativecommons.org/ns#"
   xmlns:rdf="http://www.w3.org/1999/02/22-rdf-syntax-ns#"
   xmlns:svg="http://www.w3.org/2000/svg"
   xmlns="http://www.w3.org/2000/svg"
   id="svg4412"
   version="1.1"
   viewBox="0 0 35.630305 35.630307"
   height="35.630306mm"
   width="35.630306mm">
  <defs
     id="defs4406">
    <clipPath
       id="clipPath1556"
       clipPathUnits="userSpaceOnUse">
      <path
         id="path1554"
         d="m 242.762,448.246 h 35.55 v -71.091 h -35.55 z" />
    </clipPath>
    <clipPath
       id="clipPath1708"
       clipPathUnits="userSpaceOnUse">
      <path
         id="path1706"
         d="M 365.557,372.594 H 455.07 V 359.197 H 365.557 Z" />
    </clipPath>
    <clipPath
       id="clipPath1300"
       clipPathUnits="userSpaceOnUse">
      <path
         id="path1298"
         d="m 367.886,300.778 h 65.195 V 235.58 h -65.195 z" />
    </clipPath>
    <clipPath
       id="clipPath1372"
       clipPathUnits="userSpaceOnUse">
      <path
         id="path1370"
         d="M 363.392,237.141 H 403.03 V 205.229 H 363.392 Z" />
    </clipPath>
    <clipPath
       id="clipPath1616"
       clipPathUnits="userSpaceOnUse">
      <path
         id="path1614"
         d="M 57.2368,150.854 H 130.65 V 77.4414 H 57.2368 Z" />
    </clipPath>
    <clipPath
       id="clipPath664"
       clipPathUnits="userSpaceOnUse">
      <path
         id="path662"
         d="m 262.361,66.1875 h 30.868 V 44.2773 h -30.868 z" />
    </clipPath>
    <clipPath
       id="clipPath680"
       clipPathUnits="userSpaceOnUse">
      <path
         id="path678"
         d="m 206.024,83.7422 h 33.13 v -18.583 h -33.13 z" />
    </clipPath>
    <clipPath
       id="clipPath786"
       clipPathUnits="userSpaceOnUse">
      <path
         id="path784"
         d="m 61,448.16 h 64.61 v -70.1 H 61 Z" />
    </clipPath>
    <clipPath
       id="clipPath1064"
       clipPathUnits="userSpaceOnUse">
      <path
         id="path1062"
         d="m 170,444.75 h 70.24 V 377.41 H 170 Z" />
    </clipPath>
    <clipPath
       id="clipPath1120"
       clipPathUnits="userSpaceOnUse">
      <path
         id="path1118"
         d="m 289.83,436.26 h 63.56 v -58.67 h -63.56 z" />
    </clipPath>
    <clipPath
       id="clipPath1158"
       clipPathUnits="userSpaceOnUse">
      <path
         id="path1156"
         d="m 402.08,432.49 h 65.86 v -54.83 h -65.86 z" />
    </clipPath>
    <clipPath
       id="clipPath1182"
       clipPathUnits="userSpaceOnUse">
      <path
         id="path1180"
         d="M 397.86,434.26 H 430.9 V 409.1 h -33.04 z" />
    </clipPath>
    <clipPath
       id="clipPath32"
       clipPathUnits="userSpaceOnUse">
      <path
         id="path30"
         d="m 54.02,326.01 h 70.94 V 260.67 H 54.02 Z" />
    </clipPath>
    <clipPath
       id="clipPath824"
       clipPathUnits="userSpaceOnUse">
      <path
         id="path822"
         d="m 175.93,327.18 h 64.13 v -65.26 h -64.13 z" />
    </clipPath>
    <clipPath
       id="clipPath844"
       clipPathUnits="userSpaceOnUse">
      <path
         id="path842"
         d="m 183.243,324.715 h 25.326 v -33.647 h -25.326 z" />
    </clipPath>
    <clipPath
       id="clipPath908"
       clipPathUnits="userSpaceOnUse">
      <path
         id="path906"
         d="m 197.267,316.041 h 19.948 v -35.416 h -19.948 z" />
    </clipPath>
    <clipPath
       id="clipPath124"
       clipPathUnits="userSpaceOnUse">
      <path
         id="path122"
         d="m 291.95,324.64 h 62.06 v -63.89 h -62.06 z" />
    </clipPath>
    <clipPath
       id="clipPath146"
       clipPathUnits="userSpaceOnUse">
      <path
         id="path144"
         d="m 283.858,324.585 h 46.95 v -27.81 h -46.95 z" />
    </clipPath>
    <clipPath
       id="clipPath166"
       clipPathUnits="userSpaceOnUse">
      <path
         id="path164"
         d="m 286.145,322.192 h 3.077 v -3.077 h -3.077 z" />
    </clipPath>
    <clipPath
       id="clipPath182"
       clipPathUnits="userSpaceOnUse">
      <path
         id="path180"
         d="m 286.145,318.236 h 3.077 v -8.572 h -3.077 z" />
    </clipPath>
    <clipPath
       id="clipPath202"
       clipPathUnits="userSpaceOnUse">
      <path
         id="path200"
         d="m 396.97,320.9 h 70.44 v -60.11 h -70.44 z" />
    </clipPath>
    <clipPath
       id="clipPath228"
       clipPathUnits="userSpaceOnUse">
      <path
         id="path226"
         d="m 394.101,323.768 h 56.548 v -8.047 h -56.548 z" />
    </clipPath>
    <clipPath
       id="clipPath244"
       clipPathUnits="userSpaceOnUse">
      <path
         id="path242"
         d="m 419.483,308.056 h 5.784 v -2.671 h -5.784 z" />
    </clipPath>
    <clipPath
       id="clipPath260"
       clipPathUnits="userSpaceOnUse">
      <path
         id="path258"
         d="m 402.132,315.721 h 42.336 v -1.704 h -42.336 z" />
    </clipPath>
    <clipPath
       id="clipPath280"
       clipPathUnits="userSpaceOnUse">
      <path
         id="path278"
         d="m 395.92,295.074 h 2.318 v -2.318 h -2.318 z" />
    </clipPath>
    <clipPath
       id="clipPath300"
       clipPathUnits="userSpaceOnUse">
      <path
         id="path298"
         d="m 394.101,323.768 h 5.939 v -8.047 h -5.939 z" />
    </clipPath>
    <clipPath
       id="clipPath316"
       clipPathUnits="userSpaceOnUse">
      <path
         id="path314"
         d="m 444.711,323.768 h 5.938 v -8.047 h -5.938 z" />
    </clipPath>
    <clipPath
       id="clipPath332"
       clipPathUnits="userSpaceOnUse">
      <path
         id="path330"
         d="m 395.92,303.125 h 2.318 v -6.698 h -2.318 z" />
    </clipPath>
    <clipPath
       id="clipPath352"
       clipPathUnits="userSpaceOnUse">
      <path
         id="path350"
         d="M 58.7202,214.67 H 124.85 V 144.13 H 58.7202 Z" />
    </clipPath>
    <clipPath
       id="clipPath412"
       clipPathUnits="userSpaceOnUse">
      <path
         id="path410"
         d="m 178.09,206.33 h 62.17 v -61.92 h -62.17 z" />
    </clipPath>
    <clipPath
       id="clipPath492"
       clipPathUnits="userSpaceOnUse">
      <path
         id="path490"
         d="m 168.416,211.7 h 48.869 v -48.869 h -48.869 z" />
    </clipPath>
    <clipPath
       id="clipPath512"
       clipPathUnits="userSpaceOnUse">
      <path
         id="path510"
         d="m 292.86,214.17 h 60.71 v -70.04 h -60.71 z" />
    </clipPath>
    <clipPath
       id="clipPath540"
       clipPathUnits="userSpaceOnUse">
      <path
         id="path538"
         d="m 316.605,206.967 h 5.836 v -5.836 h -5.836 z" />
    </clipPath>
    <clipPath
       id="clipPath556"
       clipPathUnits="userSpaceOnUse">
      <path
         id="path554"
         d="m 319.69,200.173 h 2.688 v -2.688 h -2.688 z" />
    </clipPath>
    <clipPath
       id="clipPath576"
       clipPathUnits="userSpaceOnUse">
      <path
         id="path574"
         d="m 400.11,199.1 h 67.03 v -54.95 h -67.03 z" />
    </clipPath>
    <clipPath
       id="clipPath622"
       clipPathUnits="userSpaceOnUse">
      <path
         id="path620"
         d="m 400.113,186.467 h 46.373 v -17.886 h -46.373 z" />
    </clipPath>
  </defs>
  <metadata
     id="metadata4409">
    <rdf:RDF>
      <cc:Work
         rdf:about="">
        <dc:format>image/svg+xml</dc:format>
        <dc:type
           rdf:resource="http://purl.org/dc/dcmitype/StillImage" />
        <dc:title></dc:title>
      </cc:Work>
    </rdf:RDF>
  </metadata>
  <g
     transform="translate(38.809946,27.214517)"
     id="layer1">
    <g
       id="g4000"
       transform="matrix(0.35277777,0,0,-0.35277777,-169.87943,58.261648)">
      <g
         id="g566"
         transform="translate(469.7002,191.79)">
        <path
           d="m 0,0 c 0,-5.4 -0.9,-10.59 -2.561,-15.42 -6.29,-18.43 -23.569,-31.77 -44.029,-32.22 -0.36,-0.02 -0.721,-0.02 -1.08,-0.02 -26.32,0 -47.66,21.34 -47.66,47.66 0,26.33 21.34,47.67 47.66,47.67 C -21.34,47.67 0,26.33 0,0"
           style="fill:#ffcd02;fill-opacity:1;fill-rule:nonzero;stroke:none"
           id="path568" />
      </g>
      <g
         id="g570">
        <g
           id="g572" />
        <g
           id="g584">
          <g
             clip-path="url(#clipPath576)"
             id="g582"
             style="opacity:0.5">
            <g
               transform="translate(467.1396,176.3701)"
               id="g580">
              <path
                 d="m 0,0 c -6.29,-18.43 -23.569,-31.771 -44.029,-32.22 l -23,24.43 48.25,30.519 z"
                 style="fill:#ffa800;fill-opacity:1;fill-rule:nonzero;stroke:none"
                 id="path578" />
            </g>
          </g>
        </g>
      </g>
      <g
         id="g586"
         transform="translate(398.2402,199.0996)">
        <path
           d="M 0,0 25.06,21.239 50.118,0 Z"
           style="fill:#c1c1bf;fill-opacity:1;fill-rule:nonzero;stroke:none"
           id="path588" />
      </g>
      <path
         d="M 448.358,183.577 H 398.24 v 15.738 h 50.118 z"
         style="fill:#cccccc;fill-opacity:1;fill-rule:nonzero;stroke:none"
         id="path590" />
      <path
         d="m 441.466,173.698 h -36.332 v 42.653 h 36.332 z"
         style="fill:#ffffff;fill-opacity:1;fill-rule:nonzero;stroke:none"
         id="path592" />
      <path
         d="m 423.3,208.482 h -15.694 v 3.888 H 423.3 Z"
         style="fill:#bdc3c7;fill-opacity:1;fill-rule:nonzero;stroke:none"
         id="path594" />
      <path
         d="m 438.994,202.321 h -31.389 v 3.887 h 31.389 z"
         style="fill:#bdc3c7;fill-opacity:1;fill-rule:nonzero;stroke:none"
         id="path596" />
      <path
         d="m 438.994,196.161 h -31.389 v 3.888 h 31.389 z"
         style="fill:#bdc3c7;fill-opacity:1;fill-rule:nonzero;stroke:none"
         id="path598" />
      <path
         d="m 438.994,190 h -31.389 v 3.887 h 31.389 z"
         style="fill:#bdc3c7;fill-opacity:1;fill-rule:nonzero;stroke:none"
         id="path600" />
      <path
         d="m 438.994,183.84 h -31.389 v 3.886 h 31.389 z"
         style="fill:#c1c1c1;fill-opacity:1;fill-rule:nonzero;stroke:none"
         id="path602" />
      <path
         d="m 428.286,177.679 h -20.681 v 3.887 h 20.681 z"
         style="fill:#c1c1c1;fill-opacity:1;fill-rule:nonzero;stroke:none"
         id="path604" />
      <path
         d="M 438.994,177.679 H 429.9 v 3.887 h 9.094 z"
         style="fill:#c1c1c1;fill-opacity:1;fill-rule:nonzero;stroke:none"
         id="path606" />
      <g
         id="g608"
         transform="translate(438.9941,216.3516)">
        <path
           d="M 0,0 H -10.708 V -7.869 L -5.354,-4.973 0,-7.869 Z"
           style="fill:#e74c3c;fill-opacity:1;fill-rule:nonzero;stroke:none"
           id="path610" />
      </g>
      <g
         id="g612"
         transform="translate(398.2402,199.0996)">
        <path
           d="m 0,0 v -28.646 c 0,-1.035 0.838,-1.873 1.873,-1.873 h 46.373 c 1.035,0 1.872,0.838 1.872,1.873 L 50.118,0 25.06,-12.633 Z"
           style="fill:#ffffff;fill-opacity:1;fill-rule:nonzero;stroke:none"
           id="path614" />
      </g>
      <g
         id="g616">
        <g
           id="g618" />
        <g
           id="g630">
          <g
             clip-path="url(#clipPath622)"
             id="g628"
             style="opacity:0.5">
            <g
               transform="translate(400.1133,168.5811)"
               id="g626">
              <path
                 d="M 0,0 H 46.373 L 23.187,17.886 Z"
                 style="fill:#f2f2f2;fill-opacity:1;fill-rule:nonzero;stroke:none"
                 id="path624" />
            </g>
          </g>
        </g>
      </g>
      <path
         d="m 399.389,193.079 h -1.148 v 3.535 h 1.148 z"
         style="fill:#e74c3c;fill-opacity:1;fill-rule:nonzero;stroke:none"
         id="path632" />
      <path
         d="m 399.389,186.467 h -1.148 V 190 h 1.148 z"
         style="fill:#3a6f81;fill-opacity:1;fill-rule:nonzero;stroke:none"
         id="path634" />
      <path
         d="m 399.389,179.852 h -1.148 v 3.534 h 1.148 z"
         style="fill:#e74c3c;fill-opacity:1;fill-rule:nonzero;stroke:none"
         id="path636" />
      <path
         d="m 399.389,173.237 h -1.148 v 3.535 h 1.148 z"
         style="fill:#3a6f81;fill-opacity:1;fill-rule:nonzero;stroke:none"
         id="path638" />
      <path
         d="m 448.358,193.079 h -1.148 v 3.535 h 1.148 z"
         style="fill:#e74c3c;fill-opacity:1;fill-rule:nonzero;stroke:none"
         id="path640" />
      <path
         d="M 448.358,186.467 H 447.21 V 190 h 1.148 z"
         style="fill:#3a6f81;fill-opacity:1;fill-rule:nonzero;stroke:none"
         id="path642" />
      <path
         d="m 448.358,179.852 h -1.148 v 3.534 h 1.148 z"
         style="fill:#e74c3c;fill-opacity:1;fill-rule:nonzero;stroke:none"
         id="path644" />
      <path
         d="m 448.358,173.237 h -1.148 v 3.535 h 1.148 z"
         style="fill:#3a6f81;fill-opacity:1;fill-rule:nonzero;stroke:none"
         id="path646" />
    </g>
  </g>
</svg>
