<?xml version="1.0" encoding="UTF-8" standalone="no"?>
<svg width="32px" height="24px" viewBox="0 0 32 24" version="1.1" xmlns="http://www.w3.org/2000/svg" xmlns:xlink="http://www.w3.org/1999/xlink">
    <!-- Generator: Sketch 44.1 (41455) - http://www.bohemiancoding.com/sketch -->
    <title>Envelope 7</title>
    <desc>Created with Sketch.</desc>
    <defs></defs>
    <g id="Page-2-Copy" stroke="none" stroke-width="1" fill="none" fill-rule="evenodd">
        <g id="162" stroke="#979797">
            <path d="M5.00684547,14 C4.45078007,14 4,14.4438648 4,15 L4,15 C4,15.5522847 4.44994876,16 5.00684547,16 L16.9931545,16 C17.5492199,16 18,15.5561352 18,15 L18,15 C18,14.4477153 17.5500512,14 16.9931545,14 L5.00684547,14 L5.00684547,14 Z M5.00684547,18 C4.45078007,18 4,18.4438648 4,19 L4,19 C4,19.5522847 4.44994876,20 5.00684547,20 L16.9931545,20 C17.5492199,20 18,19.5561352 18,19 L18,19 C18,18.4477153 17.5500512,18 16.9931545,18 L5.00684547,18 L5.00684547,18 Z" id="Rectangle-812" stroke="none" fill="#2A2630" fill-rule="evenodd"></path>
            <path d="M0,2.00494659 L0,21.9950534 C0,23.1023548 0.889261723,24 2.00174332,24 L29.9982567,24 C31.103789,24 32,23.1029738 32,21.9950534 L32,2.00494659 C32,0.897645164 31.1107383,0 29.9982567,0 L2.00174332,0 C0.89621101,0 0,0.897026226 0,2.00494659 L0,2.00494659 Z M29.9982567,2 C30.001974,2 30,21.9950534 30,21.9950534 C30,21.9988104 2.00174332,22 2.00174332,22 C1.99802605,22 2,2.00494659 2,2.00494659 C2,2.00118956 29.9982567,2 29.9982567,2 L29.9982567,2 Z M20,5.99810135 L20,10.0018986 C20,11.1054196 20.8867064,12 21.9981014,12 L26.0018986,12 C27.1054196,12 28,11.1132936 28,10.0018986 L28,5.99810135 C28,4.89458045 27.1132936,4 26.0018986,4 L21.9981014,4 C20.8945804,4 20,4.88670635 20,5.99810135 L20,5.99810135 Z M26.0018986,6 C26.0047824,6 26,10.0018986 26,10.0018986 C26,10.0047824 21.9981014,10 21.9981014,10 C21.9952176,10 22,5.99810135 22,5.99810135 C22,5.99521755 26.0018986,6 26.0018986,6 L26.0018986,6 Z" id="Rectangle-814" stroke="none" fill="#95909E" fill-rule="nonzero"></path>
        </g>
    </g>
</svg>