<?xml version="1.0" encoding="UTF-8" standalone="no"?>
<!-- Created with Inkscape (http://www.inkscape.org/) -->

<svg
   width="64pt"
   height="64pt"
   viewBox="0 0 22.577778 22.577778"
   version="1.1"
   id="svg831"
   inkscape:version="1.1.1 (3bf5ae0d25, 2021-09-20)"
   sodipodi:docname="Export - Unblash - 64px.svg"
   inkscape:export-filename="C:\Users\User\Desktop\CARLOS PROJECT\3. MARET 1\EXPORT\FLAT\9 - Inbox.png"
   inkscape:export-xdpi="576"
   inkscape:export-ydpi="576"
   xmlns:inkscape="http://www.inkscape.org/namespaces/inkscape"
   xmlns:sodipodi="http://sodipodi.sourceforge.net/DTD/sodipodi-0.dtd"
   xmlns="http://www.w3.org/2000/svg"
   xmlns:svg="http://www.w3.org/2000/svg"
   xmlns:rdf="http://www.w3.org/1999/02/22-rdf-syntax-ns#"
   xmlns:cc="http://creativecommons.org/ns#"
   xmlns:dc="http://purl.org/dc/elements/1.1/">
  <defs
     id="defs825">
    <pattern
       id="EMFhbasepattern"
       patternUnits="userSpaceOnUse"
       width="6"
       height="6"
       x="0"
       y="0" />
    <pattern
       id="EMFhbasepattern-9"
       patternUnits="userSpaceOnUse"
       width="6"
       height="6"
       x="0"
       y="0" />
    <pattern
       id="EMFhbasepattern-0"
       patternUnits="userSpaceOnUse"
       width="6"
       height="6"
       x="0"
       y="0" />
    <pattern
       id="EMFhbasepattern-7"
       patternUnits="userSpaceOnUse"
       width="6"
       height="6"
       x="0"
       y="0" />
    <pattern
       id="EMFhbasepattern-2"
       patternUnits="userSpaceOnUse"
       width="6"
       height="6"
       x="0"
       y="0" />
    <pattern
       id="EMFhbasepattern-98"
       patternUnits="userSpaceOnUse"
       width="6"
       height="6"
       x="0"
       y="0" />
    <pattern
       id="EMFhbasepattern-6"
       patternUnits="userSpaceOnUse"
       width="6"
       height="6"
       x="0"
       y="0" />
    <pattern
       id="EMFhbasepattern-01"
       patternUnits="userSpaceOnUse"
       width="6"
       height="6"
       x="0"
       y="0" />
    <pattern
       id="EMFhbasepattern-07"
       patternUnits="userSpaceOnUse"
       width="6"
       height="6"
       x="0"
       y="0" />
    <pattern
       id="EMFhbasepattern-8"
       patternUnits="userSpaceOnUse"
       width="6"
       height="6"
       x="0"
       y="0" />
    <pattern
       id="EMFhbasepattern-4"
       patternUnits="userSpaceOnUse"
       width="6"
       height="6"
       x="0"
       y="0" />
    <pattern
       id="EMFhbasepattern-40"
       patternUnits="userSpaceOnUse"
       width="6"
       height="6"
       x="0"
       y="0" />
    <pattern
       id="EMFhbasepattern-08"
       patternUnits="userSpaceOnUse"
       width="6"
       height="6"
       x="0"
       y="0" />
    <pattern
       id="EMFhbasepattern-04"
       patternUnits="userSpaceOnUse"
       width="6"
       height="6"
       x="0"
       y="0" />
    <pattern
       id="EMFhbasepattern-014"
       patternUnits="userSpaceOnUse"
       width="6"
       height="6"
       x="0"
       y="0" />
    <pattern
       id="EMFhbasepattern-27"
       patternUnits="userSpaceOnUse"
       width="6"
       height="6"
       x="0"
       y="0" />
    <pattern
       id="EMFhbasepattern-09"
       patternUnits="userSpaceOnUse"
       width="6"
       height="6"
       x="0"
       y="0" />
    <pattern
       id="EMFhbasepattern-5"
       patternUnits="userSpaceOnUse"
       width="6"
       height="6"
       x="0"
       y="0" />
    <pattern
       id="EMFhbasepattern-018"
       patternUnits="userSpaceOnUse"
       width="6"
       height="6"
       x="0"
       y="0" />
  </defs>
  <sodipodi:namedview
     id="base"
     pagecolor="#ffffff"
     bordercolor="#666666"
     borderopacity="1.0"
     inkscape:pageopacity="0.0"
     inkscape:pageshadow="2"
     inkscape:zoom="9.1757813"
     inkscape:cx="42.612175"
     inkscape:cy="42.666667"
     inkscape:document-units="pt"
     inkscape:current-layer="layer1"
     showgrid="false"
     units="pt"
     inkscape:window-width="1920"
     inkscape:window-height="1001"
     inkscape:window-x="-9"
     inkscape:window-y="41"
     inkscape:window-maximized="1"
     inkscape:pagecheckerboard="true"
     inkscape:showpageshadow="false"
     inkscape:object-paths="true"
     inkscape:snap-intersection-paths="true"
     inkscape:snap-smooth-nodes="true"
     inkscape:snap-midpoints="true"
     showguides="true"
     inkscape:snap-bbox="true"
     inkscape:bbox-nodes="true"
     inkscape:snap-nodes="false"
     inkscape:snap-global="true">
    <inkscape:grid
       type="xygrid"
       id="grid1378" />
    <sodipodi:guide
       position="0.97013831,21.607643"
       orientation="78.000048,0"
       id="guide1380"
       inkscape:locked="false" />
    <sodipodi:guide
       position="0.97013831,0.97013129"
       orientation="0,78.000005"
       id="guide1382"
       inkscape:locked="false" />
    <sodipodi:guide
       position="21.607639,0.97013129"
       orientation="-78.000048,0"
       id="guide1384"
       inkscape:locked="false" />
    <sodipodi:guide
       position="21.607639,21.607643"
       orientation="0,-78.000005"
       id="guide1386"
       inkscape:locked="false" />
  </sodipodi:namedview>
  <metadata
     id="metadata828">
    <rdf:RDF>
      <cc:Work
         rdf:about="">
        <dc:format>image/svg+xml</dc:format>
        <dc:type
           rdf:resource="http://purl.org/dc/dcmitype/StillImage" />
      </cc:Work>
    </rdf:RDF>
  </metadata>
  <g
     inkscape:label="Icon"
     inkscape:groupmode="layer"
     id="layer1"
     transform="translate(0,-274.42223)">
    <g
       id="g3896"
       style="display:inline;stroke-width:0.794878"
       transform="matrix(1.2580546,0,0,1.2580546,-37.737155,-77.280634)">
      <path
         style="color:#000000;fill:#e59f2e;stroke-width:0.794878;stroke-linecap:round;stroke-linejoin:round;-inkscape-stroke:none"
         d="m 33.677734,286.68164 a 0.26460996,0.26460996 0 0 0 -0.199218,0.0898 l -1.851563,2.11719 a 0.26460996,0.26460996 0 0 0 -0.06641,0.17383 v 2.38281 a 0.26460996,0.26460996 0 0 0 0.261719,0.26367 l 14.289062,0.15625 a 0.26460996,0.26460996 0 0 0 0.265625,-0.26562 v -2.53711 a 0.26460996,0.26460996 0 0 0 -0.06445,-0.17383 l -1.851563,-2.11719 a 0.26460996,0.26460996 0 0 0 -0.199218,-0.0898 z"
         id="path397877" />
      <path
         id="path692647"
         style="fill:#ca7d02;fill-opacity:1;stroke-width:3.00427;stroke-linecap:round;stroke-linejoin:round"
         d="m 127.28516,25.001953 a 1.0001006,1.0001006 0 0 0 -0.75196,0.339844 L 124.31836,27.875 v 16.126953 a 1.9694458,1.9694458 0 0 0 0,0.0078 c 4e-5,0.01243 0.002,0.0247 0.002,0.03711 l 45.87696,0.501953 c 0.0374,-0.176174 0.058,-0.356975 0.0586,-0.539062 a 1.9694458,1.9694458 0 0 0 0,-0.002 1.9694458,1.9694458 0 0 0 0,-0.002 1.9694458,1.9694458 0 0 0 0,-0.002 1.9694458,1.9694458 0 0 0 0,-0.002 V 27.875 l -2.21484,-2.533203 a 1.0001006,1.0001006 0 0 0 -0.75196,-0.339844 z"
         transform="matrix(0.26458334,0,0,0.26458334,0,280.06666)" />
      <path
         style="color:#000000;fill:#ececec;stroke-width:0.794878;stroke-linecap:round;stroke-linejoin:round;-inkscape-stroke:none"
         d="m 34.736328,283.50586 c -0.727487,0 -1.322266,0.59674 -1.322266,1.32422 v 6.8789 a 0.26460996,0.26460996 0 0 0 0.263672,0.26368 h 10.583985 a 0.26460996,0.26460996 0 0 0 0.263672,-0.26368 v -6.8789 c 0,-0.72748 -0.594779,-1.32422 -1.322266,-1.32422 z"
         id="path397240" />
      <path
         id="path10521-0"
         style="color:#000000;fill:#cccccc;stroke-width:3.00427;stroke-linecap:round;stroke-linejoin:round;-inkscape-stroke:none"
         d="m 168.28516,18.578125 c -6.9636,2.241651 -13.99421,4.275333 -21.00196,6.378906 -6.97858,-2.189105 -14.17386,-4.275222 -20.99414,-6.183593 v 2.03125 c 5.02154,1.44062 10.0241,2.947796 15.0293,4.449218 l -8.71094,8.007813 c -0.40966,0.374492 -0.43594,1.010956 -0.0586,1.417969 0.37449,0.409657 1.01096,0.43596 1.41797,0.05859 l 9.57422,-8.818359 3.45507,1.037109 c 0.1879,0.05652 0.38828,0.05652 0.57618,0 l 3.45898,-1.037109 9.57617,8.818359 c 0.40701,0.377364 1.04348,0.351061 1.41797,-0.05859 0.37736,-0.407013 0.35108,-1.043477 -0.0586,-1.417969 l -8.71289,-8.009766 c 5.06861,-1.357533 10.06082,-2.931882 15.03125,-4.576172 z"
         transform="matrix(0.26458334,0,0,0.26458334,0,280.06666)" />
      <path
         style="color:#000000;fill:#fcba4c;stroke-width:0.794878;stroke-linecap:round;stroke-linejoin:round;-inkscape-stroke:none"
         d="m 32.089844,288.79883 c -0.727491,0 -1.322266,0.59477 -1.322266,1.32226 v 4.76172 c 0,0.72749 0.594775,1.32422 1.322266,1.32422 h 13.759765 c 0.72749,0 1.322266,-0.59673 1.322266,-1.32422 v -4.76172 c 0,-0.72749 -0.594776,-1.32226 -1.322266,-1.32226 h -3.175781 c -0.732242,0 -0.626785,1.58594 -1.587892,1.58594 h -4.232421 c -0.97463,0 -0.938211,-1.58594 -1.587857,-1.58594 z"
         id="path397048"
         sodipodi:nodetypes="ssssssssccccs" />
      <path
         style="color:#000000;fill:#50b86b;stroke-width:0.794878;stroke-linecap:round;stroke-linejoin:round;-inkscape-stroke:none"
         d="m 38.175781,280.86133 a 0.26460996,0.26460996 0 0 0 -0.263672,0.26367 v 1.85156 h -0.546875 a 0.26460996,0.26460996 0 0 0 -0.21875,0.41211 L 38.75,285.77148 a 0.26460996,0.26460996 0 0 0 0.439453,0 l 1.603516,-2.38281 a 0.26460996,0.26460996 0 0 0 -0.21875,-0.41211 H 40.027344 V 281.125 a 0.26460996,0.26460996 0 0 0 -0.263672,-0.26367 z"
         id="path397505" />
      <path
         style="color:#000000;fill:#e59f2e;stroke-width:0.794878;stroke-linecap:round;stroke-linejoin:round;-inkscape-stroke:none"
         d="m 34.207031,294.61914 a 0.2645835,0.2645835 0 0 0 -0.263672,0.26367 0.2645835,0.2645835 0 0 0 0.263672,0.26563 h 9.525391 a 0.2645835,0.2645835 0 0 0 0.263672,-0.26563 0.2645835,0.2645835 0 0 0 -0.263672,-0.26367 z"
         id="path15903-3" />
      <path
         id="path690300"
         style="color:#000000;fill:#ca7d02;fill-opacity:1;stroke-width:0.794878;stroke-linecap:round;stroke-linejoin:round;-inkscape-stroke:none"
         d="m 32.090033,288.79894 c -0.727493,0 -1.322401,0.59491 -1.322401,1.3224 v 0.52917 c 0,-0.72749 0.594908,-1.3224 1.322401,-1.3224 h 3.175516 c 1.101671,0 0.884489,1.58591 1.588017,1.58591 h 4.232301 c 0.852245,0 0.543348,-1.58591 1.588017,-1.58591 H 45.8494 c 0.727491,0 1.322401,0.59491 1.322401,1.3224 v -0.52917 c 0,-0.72749 -0.59491,-1.3224 -1.322401,-1.3224 h -3.175516 c -1.068146,0 -0.851103,1.58591 -1.588017,1.58591 h -4.232301 c -0.613441,0 -0.50848,-1.58591 -1.588017,-1.58591 z"
         sodipodi:nodetypes="sscsccccscssccccs" />
      <path
         id="path694216"
         style="color:#000000;fill:#349951;fill-opacity:1;stroke-width:0.794878;stroke-linecap:round;stroke-linejoin:round;-inkscape-stroke:none"
         d="m 38.175965,280.86144 a 0.26460996,0.26460996 0 0 0 -0.264067,0.26355 v 1.85157 h 0.529167 v -1.85157 a 0.26460996,0.26460996 0 0 1 0.264067,-0.26355 z m -0.810802,2.11512 a 0.26460996,0.26460996 0 0 0 -0.218593,0.41186 l 1.60352,2.3828 a 0.26460996,0.26460996 0 0 0 0.439251,0 l 0.04496,-0.0667 -1.558563,-2.31614 a 0.26460996,0.26460996 0 0 1 0.218594,-0.41186 z" />
    </g>
  </g>
</svg>
