<?xml version="1.0" encoding="UTF-8"?>
<!DOCTYPE svg PUBLIC "-//W3C//DTD SVG 1.1//EN" "http://www.w3.org/Graphics/SVG/1.1/DTD/svg11.dtd">
<!-- Creator: CorelDRAW 2018 (64-Bit) -->
<svg xmlns="http://www.w3.org/2000/svg" xml:space="preserve" width="32px" height="36px" version="1.1" style="shape-rendering:geometricPrecision; text-rendering:geometricPrecision; image-rendering:optimizeQuality; fill-rule:evenodd; clip-rule:evenodd"
viewBox="0 0 14.5 16.37"
 xmlns:xlink="http://www.w3.org/1999/xlink">
 <defs>
  <style type="text/css">
   <![CDATA[
    .str1 {stroke:#2B2A29;stroke-width:0.26;stroke-miterlimit:22.9256}
    .str0 {stroke:#2B2A29;stroke-width:0.08;stroke-miterlimit:22.9256}
    .fil2 {fill:none}
    .fil0 {fill:black}
    .fil1 {fill:#2B2A29;fill-rule:nonzero}
   ]]>
  </style>
 </defs>
 <g id="Слой_x0020_1">
  <metadata id="CorelCorpID_0Corel-Layer"/>
  <g id="_1965101063680">
   <g>
    <path class="fil0" d="M2.98 13.04l-0.31 0 -0.03 0.02c-0.02,0.01 -0.35,0.21 -0.74,0.43l-0.7 0.42 0 1.23 0 1.23 5.93 0 5.93 0 0 -1.23 0 -1.23 -0.74 -0.43 -0.74 -0.44 -0.26 0c-0.15,0 -0.28,0 -0.3,-0.01l-0.04 0 0 0.57 0 0.58 -3.84 0c-2.55,0 -3.84,0 -3.84,0 0,0.01 0,0.01 0,0.01 -0.01,0 -0.01,-0.26 -0.01,-0.58 0,-0.32 0,-0.58 0,-0.58 -0.01,0 -0.15,0.01 -0.31,0.01z"/>
    <path class="fil0" d="M5.41 8.37c-0.07,0.02 -0.06,-0.09 -0.06,1.43l0 1.38 -0.84 0 -0.85 0 -0.03 0.02c-0.04,0.02 -0.05,0.05 -0.01,0.07 0.07,0.06 3.49,2.44 3.52,2.45 0.02,0.02 0.04,0.02 0.07,0.02 0.03,0 0.05,0 0.08,-0.02 0.01,-0.01 0.82,-0.56 1.78,-1.23 1.23,-0.86 1.76,-1.23 1.76,-1.24 0.01,-0.03 -0.01,-0.05 -0.04,-0.06 -0.02,-0.01 -0.08,-0.01 -0.87,-0.01l-0.84 0 0 -1.39 0 -1.39 -0.03 -0.02 -0.03 -0.02 -1.79 0c-1.57,0 -1.8,0 -1.82,0.01l0 0z"/>
   </g>
  </g>
  <path class="fil1" d="M3.5 4.46c-0.69,0 -1.24,-0.17 -1.64,-0.51 -0.41,-0.34 -0.61,-0.81 -0.61,-1.43 0,-0.59 0.2,-1.06 0.61,-1.42 0.41,-0.35 0.96,-0.52 1.65,-0.52 0.18,0 0.35,0 0.49,0.02 0.15,0.02 0.29,0.04 0.42,0.07 0.11,0.03 0.22,0.06 0.35,0.1 0.12,0.05 0.22,0.08 0.3,0.12l0 0.89 -0.12 0c-0.06,-0.04 -0.12,-0.09 -0.21,-0.14 -0.09,-0.06 -0.18,-0.12 -0.29,-0.17 -0.11,-0.05 -0.22,-0.1 -0.35,-0.13 -0.13,-0.04 -0.27,-0.06 -0.41,-0.06 -0.16,0 -0.32,0.02 -0.46,0.06 -0.14,0.05 -0.27,0.12 -0.4,0.22 -0.11,0.1 -0.21,0.23 -0.28,0.39 -0.07,0.16 -0.11,0.35 -0.11,0.57 0,0.24 0.04,0.43 0.12,0.59 0.07,0.16 0.17,0.28 0.3,0.38 0.12,0.09 0.25,0.16 0.4,0.2 0.14,0.05 0.29,0.07 0.44,0.07 0.15,0 0.3,-0.02 0.44,-0.06 0.13,-0.04 0.25,-0.09 0.35,-0.14 0.1,-0.05 0.19,-0.1 0.27,-0.16 0.08,-0.05 0.15,-0.1 0.2,-0.14l0.11 0 0 0.88c-0.09,0.03 -0.18,0.07 -0.3,0.11 -0.11,0.04 -0.22,0.07 -0.34,0.1 -0.14,0.04 -0.28,0.06 -0.4,0.08 -0.13,0.02 -0.3,0.03 -0.53,0.03z"/>
  <polygon id="1" class="fil1" points="9.61,0.65 8.02,4.39 6.81,4.39 5.22,0.65 6.43,0.65 7.43,3.19 8.43,0.65 "/>
  <polygon class="fil2 str0" points="0.04,0.11 0.04,7.86 14.46,7.86 14.46,0.04 "/>
  <line class="fil2 str1" x1="1.21" y1="6.83" x2="13.16" y2= "6.83" />
  <line class="fil2 str1" x1="1.21" y1="5.8" x2="13.16" y2= "5.8" />
  <line class="fil2 str1" x1="1.21" y1="4.65" x2="13.16" y2= "4.65" />
  <line class="fil2 str1" x1="10.28" y1="3.58" x2="13.16" y2= "3.58" />
  <line class="fil2 str1" x1="10.28" y1="2.53" x2="13.16" y2= "2.53" />
  <line class="fil2 str1" x1="10.28" y1="1.46" x2="13.16" y2= "1.46" />
 </g>
</svg>
