<?xml version="1.0" encoding="UTF-8"?>
<!DOCTYPE svg PUBLIC "-//W3C//DTD SVG 1.1//EN" "http://www.w3.org/Graphics/SVG/1.1/DTD/svg11.dtd">
<!-- Creator: CorelDRAW 2018 (64-Bit) -->
<svg xmlns="http://www.w3.org/2000/svg" xml:space="preserve" width="20px" height="28px" version="1.1" style="shape-rendering:geometricPrecision; text-rendering:geometricPrecision; image-rendering:optimizeQuality; fill-rule:evenodd; clip-rule:evenodd"
viewBox="0 0 43.08 59.69"
 xmlns:xlink="http://www.w3.org/1999/xlink">
 <defs>
  <style type="text/css">
   <![CDATA[
    .fil2 {fill:black}
    .fil0 {fill:#32CC2D}
    .fil1 {fill:#FEFEFE;fill-rule:nonzero}
   ]]>
  </style>
 </defs>
 <g id="Слой_x0020_1">
  <metadata id="CorelCorpID_0Corel-Layer"/>
  <g id="Download_x0020_CV-2">
   <g>
    <g>
     <path class="fil0" d="M9.12 0.04c-0.64,0.08 -1.23,0.49 -1.52,1.06 -0.27,0.51 -0.25,-1.17 -0.25,17.92 0,19.08 -0.02,17.4 0.25,17.91 0.24,0.47 0.67,0.82 1.21,1l0.25 0.08 12.91 0 12.91 0 0.26 -0.08c0.54,-0.18 0.96,-0.53 1.21,-1 0.27,-0.51 0.24,0.69 0.24,-13.56l0 -12.85 -4 -0.01 -4.01 -0.02 -0.3 -0.08c-0.86,-0.23 -1.55,-0.77 -1.89,-1.46 -0.27,-0.55 -0.25,-0.21 -0.26,-4.82l-0.02 -4.13 -8.4 0c-4.62,0.01 -8.49,0.02 -8.59,0.04l0 0z"/>
     <path class="fil0" d="M27.55 3.99c0,4.34 -0.01,4.14 0.22,4.48 0.13,0.2 0.42,0.4 0.71,0.51 0.21,0.08 0.23,0.08 4.17,0.09l3.96 0.01 -4.5 -4.52c-2.47,-2.48 -4.51,-4.51 -4.53,-4.52 -0.01,0 -0.03,1.77 -0.03,3.95l0 0z"/>
    </g>
   </g>
   <path class="fil1" d="M17.13 23.25c-1.75,0 -3.13,-0.43 -4.15,-1.28 -1.03,-0.86 -1.54,-2.06 -1.54,-3.61 0,-1.49 0.51,-2.68 1.54,-3.57 1.03,-0.89 2.41,-1.33 4.15,-1.33 0.47,0 0.88,0.02 1.25,0.06 0.37,0.05 0.72,0.1 1.06,0.18 0.27,0.06 0.56,0.15 0.87,0.26 0.31,0.11 0.56,0.2 0.76,0.28l0 2.25 -0.3 0c-0.14,-0.1 -0.32,-0.22 -0.53,-0.36 -0.22,-0.14 -0.46,-0.28 -0.73,-0.41 -0.27,-0.14 -0.57,-0.25 -0.89,-0.35 -0.33,-0.09 -0.67,-0.14 -1.02,-0.14 -0.42,0 -0.81,0.06 -1.16,0.17 -0.35,0.1 -0.69,0.29 -1,0.55 -0.29,0.24 -0.53,0.57 -0.72,0.98 -0.18,0.4 -0.28,0.88 -0.28,1.44 0,0.58 0.1,1.08 0.29,1.47 0.2,0.4 0.45,0.72 0.76,0.97 0.3,0.23 0.64,0.4 1.01,0.51 0.37,0.1 0.75,0.16 1.11,0.16 0.39,0 0.76,-0.06 1.1,-0.16 0.35,-0.1 0.65,-0.21 0.89,-0.34 0.26,-0.13 0.49,-0.26 0.68,-0.39 0.2,-0.14 0.37,-0.25 0.52,-0.36l0.27 0 0 2.21c-0.22,0.08 -0.47,0.17 -0.75,0.28 -0.28,0.1 -0.57,0.19 -0.86,0.26 -0.37,0.09 -0.71,0.15 -1.02,0.2 -0.32,0.05 -0.76,0.07 -1.31,0.07z"/>
   <polygon id="1" class="fil1" points="32.51,13.65 28.51,23.07 25.46,23.07 21.46,13.65 24.48,13.65 27.02,20.04 29.55,13.65 "/>
   <g>
    <g>
     <path class="fil2" d="M6.45 47.6l-1.1 0.02 -0.12 0.07c-0.07,0.04 -1.27,0.75 -2.67,1.57l-2.56 1.49 0 4.48 0 4.46 21.54 0 21.54 0 0 -4.46 -0.01 -4.47 -2.68 -1.57 -2.67 -1.57 -0.97 -0.01c-0.53,-0.01 -1.02,-0.02 -1.08,-0.02l-0.13 -0.01 0 2.08 0 2.07 -13.94 0c-9.27,0 -13.95,0.01 -13.95,0.03 0,0.01 -0.01,0.03 -0.03,0.03 -0.01,0 -0.02,-0.95 -0.01,-2.11 0,-1.16 -0.01,-2.1 -0.02,-2.1 -0.02,0 -0.53,0.01 -1.14,0.02z"/>
     <path class="fil2" d="M15.29 30.65c-0.23,0.07 -0.22,-0.33 -0.22,5.18l0 5.02 -3.06 0 -3.06 0 -0.12 0.06c-0.15,0.07 -0.16,0.19 -0.03,0.29 0.26,0.19 12.69,8.84 12.78,8.89 0.08,0.04 0.15,0.06 0.26,0.06 0.11,0 0.18,-0.02 0.27,-0.06 0.06,-0.03 2.98,-2.06 6.49,-4.5 4.44,-3.1 6.37,-4.45 6.39,-4.5 0.03,-0.08 -0.03,-0.15 -0.15,-0.2 -0.08,-0.04 -0.3,-0.04 -3.15,-0.04l-3.08 0 0 -5.04 0 -5.05 -0.11 -0.07 -0.11 -0.07 -6.5 0c-5.69,0 -6.5,0 -6.6,0.03l0 0z"/>
    </g>
   </g>
  </g>
 </g>
</svg>
