<?xml version="1.0" encoding="UTF-8"?>
<!DOCTYPE svg PUBLIC "-//W3C//DTD SVG 1.1//EN" "http://www.w3.org/Graphics/SVG/1.1/DTD/svg11.dtd">
<!-- Creator: CorelDRAW 2018 (64-Bit) -->
<svg xmlns="http://www.w3.org/2000/svg" xml:space="preserve" width="32px" height="32px" version="1.1" style="shape-rendering:geometricPrecision; text-rendering:geometricPrecision; image-rendering:optimizeQuality; fill-rule:evenodd; clip-rule:evenodd"
viewBox="0 0 5.51 5.6"
 xmlns:xlink="http://www.w3.org/1999/xlink"
 xmlns:dc="http://purl.org/dc/elements/1.1/"
 xmlns:cc="http://creativecommons.org/ns#"
 xmlns:rdf="http://www.w3.org/1999/02/22-rdf-syntax-ns#"
 xmlns:svg="http://www.w3.org/2000/svg"
 xmlns:sodipodi="http://sodipodi.sourceforge.net/DTD/sodipodi-0.dtd"
 xmlns:inkscape="http://www.inkscape.org/namespaces/inkscape"
 inkscape:version="0.48.1 r9760"
 sodipodi:docname="New document 1">
 <defs>
  <style type="text/css">
   <![CDATA[
    .str1 {stroke:#005500;stroke-width:0.06;stroke-miterlimit:22.9256}
    .str0 {stroke:teal;stroke-width:0.06;stroke-miterlimit:22.9256}
    .fil3 {fill:url(#id0)}
    .fil0 {fill:url(#id1)}
    .fil1 {fill:url(#id2)}
    .fil2 {fill:url(#id3)}
   ]]>
  </style>
  <linearGradient id="id0" gradientUnits="userSpaceOnUse" x1="3.23" y1="-0.89" x2="3.23" y2="4.41">
   <stop offset="0" style="stop-opacity:1; stop-color:white"/>
   <stop offset="1" style="stop-opacity:0; stop-color:white"/>
  </linearGradient>
  <radialGradient id="id1" gradientUnits="userSpaceOnUse" gradientTransform="matrix(0.990593 -0 -0 0.195636 0 5)" cx="2.75" cy="6.15" r="9.75" fx="2.75" fy="6.15">
   <stop offset="0" style="stop-opacity:0.678431; stop-color:black"/>
   <stop offset="0.509804" style="stop-opacity:0.678431; stop-color:black"/>
   <stop offset="1" style="stop-opacity:0; stop-color:black"/>
  </radialGradient>
  <radialGradient id="id2" gradientUnits="userSpaceOnUse" gradientTransform="matrix(1.83995 -0 -0 1.83995 -1 2)" cx="1.07" cy="-2.55" r="9.13" fx="1.07" fy="-2.55">
   <stop offset="0" style="stop-opacity:1; stop-color:#D5F6FF"/>
   <stop offset="0.788235" style="stop-opacity:1; stop-color:#00CCFF"/>
   <stop offset="1" style="stop-opacity:1; stop-color:#004455"/>
  </radialGradient>
  <radialGradient id="id3" gradientUnits="userSpaceOnUse" gradientTransform="matrix(1.79073 -0 -0 1.79072 -2 -2)" cx="1.99" cy="2.02" r="9.11" fx="1.99" fy="2.02">
   <stop offset="0" style="stop-opacity:1; stop-color:#ADCFAD"/>
   <stop offset="0.788235" style="stop-opacity:1; stop-color:#00CF00"/>
   <stop offset="1" style="stop-opacity:1; stop-color:#004400"/>
  </radialGradient>
 </defs>
 <g id="Слой_x0020_1">
  <metadata id="CorelCorpID_0Corel-Layer"/>
  <g id="_1879472786480">
   <sodipodi:namedview id="base" pagecolor="#ffffff" bordercolor="#666666" borderopacity="1.0" inkscape:pageopacity="0.0" inkscape:pageshadow="2" inkscape:zoom="0.70710678" inkscape:cx="235.35032" inkscape:cy="-40.161414" inkscape:document-units="px" inkscape:current-layer="layer1" showgrid="false" showguides="true" inkscape:guide-bbox="true" inkscape:window-width="1280" inkscape:window-height="975" inkscape:window-x="-4" inkscape:window-y="-4" inkscape:window-maximized="1" fit-margin-top="0" fit-margin-left="0" fit-margin-right="0" fit-margin-bottom="0"/>
   <g id="layer1" inkscape:label="Layer 1" inkscape:groupmode="layer">
    <g id="g4682">
     <path id="path4662" class="fil0" d="M5.51 5.06c0,0.3 -1.23,0.54 -2.76,0.54 -1.52,0 -2.75,-0.24 -2.75,-0.54 0,-0.3 1.23,-0.55 2.75,-0.55 1.53,0 2.76,0.25 2.76,0.55z" sodipodi:ry="15.75" sodipodi:rx="79.75" sodipodi:cy="727.11218" sodipodi:cx="180.25" sodipodi:type="arc"/>
     <path id="path3924" class="fil1 str0" d="M5.45 2.61c0,1.42 -1.15,2.58 -2.58,2.58 -1.42,0 -2.57,-1.16 -2.57,-2.58 0,-1.42 1.15,-2.58 2.57,-2.58 1.43,0 2.58,1.16 2.58,2.58z" sodipodi:ry="145" sodipodi:rx="145" sodipodi:cy="638.36218" sodipodi:cx="193" sodipodi:type="arc"/>
     <path id="path3089" class="fil2 str1" d="M2.86 0.04c-0.1,0 -0.2,0.01 -0.31,0.02l0.03 0.01c0,0 0.06,0.02 0.07,0.03 0.01,0.01 0.01,0.04 0.01,0.06 -0.01,0.02 -0.02,0.02 -0.03,0.04 -0.01,0.02 0.03,0.01 0.03,0.01l0.04 0.02c0,0 -0.01,0 -0.03,0.01 -0.02,0 -0.05,0.01 -0.05,0.01l0 0.03 0.07 -0.01 -0.01 0.02 -0.05 0.01 -0.04 0.06 -0.01 0.1 0.01 0.09 0.03 0.08 0.04 0 0.05 0.03 0.07 0 0.07 -0.09 0.07 -0.07 0.02 -0.03 0.03 -0.02 0.07 -0.02 0.1 -0.02c0,0 0.08,-0.05 0.09,-0.06 0.01,-0.01 0.25,-0.08 0.25,-0.08l0.05 0c0,0 0.02,-0.06 0.01,-0.07 -0.01,-0.01 0.04,-0.05 0.04,-0.05 0,0 0,0 0.01,0 -0.23,-0.07 -0.48,-0.11 -0.73,-0.11l0 0zm-0.77 0.12c-0.12,0.04 -0.24,0.09 -0.36,0.14l0 0.01 -0.04 0.02 -0.04 0.04 -0.04 0.01 0 -0.01c-0.13,0.07 -0.25,0.15 -0.36,0.25 0.05,-0.03 0.15,-0.08 0.15,-0.08l0.02 -0.03 0.04 0 0.09 -0.04 0.06 -0.04 0 0 -0.04 0.04 -0.02 0.02 -0.03 0.02 0.03 0 0 0.02 0.03 0 0.04 -0.03 0.03 0.01 0.02 0.01 0.04 0 -0.01 -0.03 -0.06 -0.05 -0.01 -0.01 -0.01 -0.02 0.03 0 0.02 0.02 0.02 -0.02 0.05 -0.01 0.05 -0.03 0 -0.02 0.04 -0.04 -0.03 -0.03 0.07 0 0.06 0c0,0 0.03,-0.01 0.03,0 0.01,0.01 0.05,0.04 0.05,0.04l-0.02 0.01 -0.06 0.01 -0.02 0.03 0.05 0.01 0.04 -0.04 0.04 0 0.01 0.04c0,0 -0.05,0.02 -0.06,0.03 0,0 -0.03,0.01 -0.03,0.01l0 0.03 -0.05 0 -0.05 0 -0.02 0 -0.03 0.03 0.03 0.02c0,0 0.04,-0.02 0.04,-0.02 0.01,-0.01 0.03,-0.02 0.04,-0.01 0,0.01 0.03,0.03 0.03,0.03l0.02 0.05 0.03 0.01 0.06 0.02c0,0 0.05,0.01 0.05,0.01 0,0.01 -0.01,-0.03 -0.01,-0.03l-0.03 -0.04c0,0 0,-0.01 0.01,-0.01 0.01,0.01 0.04,0.03 0.04,0.03 0,0 0.04,0.02 0.04,0.02l0.01 -0.03 0.03 -0.02 -0.01 -0.02 -0.02 -0.02 -0.02 -0.02 0.01 -0.03c0,0 0,0 0,0 0.01,-0.01 0.03,-0.02 0.03,-0.01 0,0.01 0.03,0.05 0.03,0.05l0.04 0.01 0.01 -0.03c0,0 0.04,-0.01 0.04,0 0,0 0.01,-0.02 0.01,-0.02l0.03 -0.01 -0.05 -0.05 -0.03 -0.02 -0.02 0.01 -0.03 -0.02 0.03 -0.03 0.01 -0.03 -0.03 -0.02 -0.04 -0.01 -0.01 -0.02c0,0 -0.04,-0.01 -0.04,0 -0.01,0 -0.03,-0.03 -0.03,-0.03l-0.02 -0.03 0 0zm1.37 0.25l-0.06 0.03c0,0 0.03,0.01 0.04,0.02 0.01,0.01 0.03,-0.01 0.03,-0.01l0 0.04c0,0 0.05,0.02 0.04,0.03 0,0.01 0.09,-0.01 0.09,-0.01l0.09 -0.03 0.02 -0.03 -0.03 -0.03 -0.17 0.02 -0.05 -0.03 0 0zm0.89 0.11c-0.01,0.01 -0.03,0.01 -0.03,0.01l-0.04 0.04c0,0 -0.01,0.03 -0.01,0.03 -0.01,0.01 0,0.07 0,0.07 0,0 0.03,0 0.02,0 -0.01,0.01 -0.01,0.05 -0.01,0.05l0.03 0.02c0,0 0.04,0.01 0.05,0.01 0,0 0.02,-0.02 0.03,-0.02 0,0 0.03,-0.02 0.03,-0.02 0.01,0 0.03,-0.02 0.03,-0.02 0.01,0.01 0.01,0.04 0.01,0.05 0.01,0 0.02,0.02 0.03,0.03 0.01,0.02 0.02,0.03 0.01,0.04 0,0 -0.01,0.01 -0.01,0.01 0,0 -0.04,0.01 -0.04,0.01 -0.01,0.01 -0.01,0.01 -0.01,0.01 -0.01,-0.01 0.01,-0.02 0.01,-0.03 0,0 -0.01,-0.02 -0.01,-0.02 -0.01,0 -0.01,-0.01 -0.01,-0.01 0.01,0 0.01,-0.02 0.01,-0.02 0,0 -0.01,-0.01 -0.01,-0.01 -0.01,0 -0.04,0.02 -0.04,0.02 0,0 -0.03,0.02 -0.03,0.03 0,0 -0.01,0.02 0,0.04 0,0.02 0.02,0.04 0.02,0.04 0,0 0.01,0.01 0.01,0.02 -0.01,0 -0.02,0.02 -0.02,0.02l-0.03 0c0,0 -0.04,0.01 -0.05,0.01 0,0 -0.05,0.02 -0.05,0.02 0,0 -0.01,0.05 -0.01,0.05 0,0 -0.05,0.04 -0.05,0.04 -0.01,0 -0.04,0.01 -0.04,0.01 0,0 -0.02,0.04 -0.02,0.03 0,0 -0.05,0.03 -0.05,0.03 0,0 -0.04,-0.01 -0.04,-0.02 0,0 -0.02,-0.01 -0.02,-0.01 0,0.01 0.02,0.04 0.02,0.05 0,0 0,0.02 0,0.01 -0.01,0 -0.03,-0.01 -0.04,-0.01 0,0 -0.04,0 -0.04,0l-0.01 0c0,0 -0.02,0.01 -0.02,0.01 0,0 -0.01,0.01 -0.01,0.01l0.02 0.02 0.04 0.01 0.03 0.03 0.02 0.03 0.01 0.03c0,0 -0.01,0.07 -0.01,0.08 0,0 -0.03,0.02 -0.03,0.02l-0.07 -0.01c0,0 -0.03,0 -0.04,0 0,-0.01 -0.05,0 -0.05,0 0,-0.01 -0.02,-0.01 -0.02,-0.01l0 0 -0.02 0 -0.02 0.01 -0.03 0.01 0 0.02c0,0 0.01,0.04 0.01,0.04 0,-0.01 0,0.05 0,0.05 0,0 -0.02,0.05 -0.03,0.05 0,0 0,0.03 0,0.03l0.02 0.03 0 0.03c0,0 -0.01,0.02 -0.01,0.02 0.01,0 0.04,0 0.04,0 0,-0.01 0.02,-0.02 0.03,-0.01 0,0.01 0.01,0 0.02,0.01 0,0.02 0.01,0.03 0.01,0.04 0,0 0.01,0 0.01,0l0.01 0.01 -0.01 0.01 -0.03 0.06 -0.06 0.04 -0.04 0.03 -0.01 0.02 -0.01 0.02 -0.01 0.04c0,0 0.01,0.04 0.01,0.04 -0.01,0 -0.09,0.08 -0.09,0.08l-0.04 0.01 -0.02 0.04c0,0 -0.04,0.03 -0.04,0.04 0,0.01 -0.02,0.03 -0.02,0.03 0,0 0,0.04 0,0.03 0,0 -0.05,0.04 -0.05,0.04 0,0 -0.01,0.05 -0.01,0.05 0,0.01 -0.02,0.04 -0.03,0.04 0,0 0,0.03 0,0.03 0,0.01 0.01,0.02 0.01,0.02 0,0 0.01,0.03 0.02,0.03 0,0 0,0.01 0,0.01l-0.02 0.01c0,0 0.02,0.03 0.02,0.03l0 0.07 -0.02 0.04 -0.01 0.05 -0.03 0.02 0.01 0.01 0.02 0.02 0 0.02 0 0.03 0 0.02 0.01 0.04c0,0 0.02,0.01 0.02,0.01 0.01,-0.01 0.04,0.02 0.04,0.03 0.01,0 0.05,0.05 0.05,0.06 0,0 0.01,0.01 0.01,0.01l0.02 0.07c0,0 0.09,0.08 0.09,0.07 0.01,0 0.11,0.07 0.11,0.07 0,0 0.08,-0.04 0.08,-0.03 0,0 0.07,-0.01 0.07,-0.01l0.04 0.01 0.03 0.02 0.11 -0.06 0.02 -0.01 0.09 -0.01 0.04 0.02c0,0 0.03,0.04 0.03,0.05 0,0 0.02,0.03 0.02,0.03 0,0 0.1,-0.01 0.1,-0.01 0,0 0.05,0.04 0.05,0.04l-0.01 0.04 0 0.07 -0.02 0.03 -0.01 0.04 0 0.02c0,0 0.1,0.14 0.1,0.14 0,0 0.02,0.06 0.02,0.06l0.03 0.08 0.02 0.04 -0.02 0.03 0.03 0.07 -0.01 0.08 -0.04 0.09 -0.02 0.07 0.01 0.09 0.05 0.11 0.05 0.12 0.01 0.14 0.02 0.04c0.5,-0.46 0.8,-1.13 0.8,-1.86 0,-0.13 0,-0.25 -0.02,-0.37l-0.04 -0.06c0,0 -0.04,-0.11 -0.04,-0.11 -0.01,-0.01 -0.03,-0.04 -0.02,-0.04 0.01,0.01 0.04,0 0.04,0 0,0 0.02,0.01 0.02,0.02 -0.01,-0.06 -0.03,-0.13 -0.05,-0.19 0,0.01 0,0.01 -0.01,0.01 -0.01,0.01 -0.03,0.02 -0.04,0.02 -0.01,-0.01 -0.06,-0.01 -0.06,-0.01 -0.01,0 -0.07,0 -0.07,0.01 -0.01,0.01 -0.05,0 -0.06,0 -0.01,0 -0.09,-0.04 -0.09,-0.04 -0.01,0 -0.05,-0.02 -0.06,-0.02 -0.01,-0.01 -0.05,-0.01 -0.05,-0.02 0,0 0.01,-0.01 0,-0.01 -0.01,0 -0.06,0.02 -0.06,0.02 -0.01,0.01 -0.02,0.02 -0.02,0.02 0,0 -0.02,0.02 -0.02,0.04 0,0.01 0.02,0.02 0.01,0.03 -0.01,0.01 -0.03,0.02 -0.03,0.02 0,0 -0.02,-0.02 -0.03,-0.03 -0.01,0 -0.09,-0.01 -0.09,-0.01l-0.03 -0.04c0,0 -0.05,-0.03 -0.06,-0.03 0,0 -0.06,0 -0.06,-0.01 -0.01,-0.01 -0.04,-0.04 -0.05,-0.04 -0.02,0 -0.01,-0.02 -0.01,-0.02 0.01,-0.01 0.02,-0.03 0.02,-0.04 0,0 0.01,-0.03 0,-0.04 -0.02,-0.01 -0.01,-0.04 -0.01,-0.04 0,0 0.02,0 0.01,0 -0.01,0 -0.03,0 -0.04,-0.01 0,-0.01 -0.01,-0.01 -0.01,-0.01 -0.01,0.01 -0.05,0.01 -0.06,0.01 0,0 -0.04,0.01 -0.05,0.01 0,0 0,0 0,0 -0.01,-0.01 -0.05,0.01 -0.05,0.02 0,0 -0.03,-0.01 -0.04,0 0,0 -0.05,0 -0.05,0l-0.08 0.01c0,0 -0.05,0.03 -0.06,0.04 0,0 -0.01,0.02 -0.02,0.02 0,0 -0.03,0 -0.04,0 0,-0.01 -0.05,0 -0.05,0 0,0 -0.02,-0.01 -0.03,-0.01 -0.01,0.01 -0.01,-0.02 -0.01,-0.02l0.01 -0.02 0.03 -0.02 0.07 -0.01 0.04 -0.03 0.02 -0.01 0.01 -0.03c0,0 0.03,-0.01 0.03,-0.01 0,-0.01 -0.01,-0.03 -0.01,-0.03l0.05 -0.07 0.07 -0.04 0.01 -0.02c0,0 -0.01,-0.03 0,-0.03 0,-0.01 0.05,-0.02 0.05,-0.02l0.05 0.02c0,0 0.03,-0.02 0.04,-0.02 0.01,-0.01 0.04,-0.03 0.04,-0.03 0,0 0,-0.01 0.01,-0.01 0,0 0.03,0 0.03,0.01 0.01,0.01 0.03,0.05 0.03,0.05l0.04 0.04 0.04 0.03 0.04 0.02c0,0 0.03,0.02 0.03,0.02 0.01,0 0.03,0.03 0.03,0.03l0.02 0.03c0,0 -0.01,0.01 -0.02,0.02 0,0.01 -0.02,0.03 -0.03,0.03 0,0 -0.04,-0.01 -0.04,-0.01l-0.04 0.01c0,0 -0.01,0.01 0,0.02 0.01,0 0.03,0 0.04,0.01 0.01,0.01 0.04,0.02 0.04,0.02 0,0 0.02,0 0.02,0.01 0,0 0.01,-0.02 0,-0.03 0,-0.01 0,-0.02 0.01,-0.03 0.01,0 0.03,0 0.03,0 0,-0.01 0.01,-0.01 0.01,-0.01l0.01 -0.02 0 -0.01 0.02 -0.02c0,0 -0.01,0 -0.02,-0.01 -0.01,-0.01 -0.01,-0.02 -0.01,-0.02 0.01,-0.01 0.02,-0.03 0.03,-0.02 0.01,0.01 0.04,0.01 0.03,0.02 0,0.01 0,0.02 0.01,0.01 0,0 0,-0.03 0,-0.03 0,0 -0.01,-0.02 -0.03,-0.02 -0.01,0 -0.04,-0.02 -0.05,-0.02 0,0 -0.02,-0.01 -0.02,-0.01 0,0 0.01,-0.02 0,-0.02 -0.01,0 -0.04,0 -0.04,-0.01 0,0 -0.03,-0.02 -0.03,-0.03 -0.01,0 -0.03,-0.04 -0.03,-0.04 0,0 -0.02,-0.02 -0.02,-0.02 0,-0.01 0,-0.01 -0.01,-0.03 0,-0.01 0.04,-0.04 0.04,-0.04 -0.01,0.01 0,0.01 0.01,0.03 0.01,0.01 0.03,0.04 0.04,0.05 0,0.01 0.04,0.04 0.05,0.04 0,0 0.01,0.01 0.03,0.02 0.01,0.01 0.01,0.01 0.03,0.02 0.02,0.01 0.03,0.01 0.03,0.02 0,0 0.02,0 0.02,0.01 0.01,0.01 0.01,0.01 0.01,0.02 0,0.01 0.01,0.01 0.01,0.02 -0.01,0.02 -0.01,0.02 -0.01,0.03 0,0 0.03,0.06 0.04,0.06 0.02,0 0.05,0.02 0.04,0.03 0,0.02 0.03,0.05 0.03,0.05 0,0 0.02,0 0.03,0.01 0,-0.02 0,-0.04 0.02,-0.04 0.01,-0.01 0.03,-0.02 0.03,-0.03 -0.01,-0.01 -0.01,-0.02 -0.02,-0.03 -0.02,-0.01 -0.03,-0.02 -0.03,-0.03 0,-0.02 -0.01,-0.04 0,-0.03 0.02,0 0.03,0.03 0.04,0.01 0.01,-0.02 0.02,-0.03 0.03,-0.03 0.02,0.01 0.04,0.02 0.04,0.02 -0.01,0.01 0.01,0.06 0.01,0.06 0,0 0.01,0.01 0.01,0.03 0,0.03 0.03,0.03 0.02,0.04 0,0.01 -0.01,0.01 0.02,0.02 0.02,0 0.05,0.01 0.05,0.01 0,0.01 0.02,0.01 0.02,0.02 0.01,0 0.03,0.01 0.03,0 0,-0.01 0.01,-0.03 0.01,-0.02 0.01,0 0.05,0 0.05,0.01 0.01,0.01 0.02,0.02 0.03,0.02 -0.03,-0.08 -0.06,-0.15 -0.1,-0.23l-0.06 -0.01 -0.03 -0.02 -0.02 -0.02 0.01 0 0 -0.03 0 -0.01 0.02 -0.01 0.01 -0.04c-0.1,-0.16 -0.21,-0.31 -0.34,-0.45 0,0.01 -0.02,0.02 -0.02,0.02 -0.01,0 -0.02,0.01 -0.03,0 0,-0.01 -0.01,-0.02 -0.01,-0.02 0,0 0,-0.01 -0.01,-0.01 0,0.01 -0.01,0.01 -0.01,0.01l-0.03 0.01c0,0 -0.01,0.01 -0.02,0.01 0,0 -0.02,0 -0.02,0.01 -0.01,0 -0.03,0.02 -0.04,0.01 0,-0.01 -0.01,0.01 -0.01,-0.01 -0.01,-0.01 -0.01,-0.02 -0.01,-0.02 -0.01,0 -0.03,0.01 -0.03,0.01 0,0.01 -0.01,0.01 -0.01,0.01 -0.01,0 -0.04,0.01 -0.04,0.01l0 0 0.04 -0.04 0.01 -0.03c0,0 0.03,0.01 0.03,0.01 0,0.01 0.01,-0.01 0.02,0 0.01,0.01 0.02,0.01 0.02,0.02 0,0 0.01,0.01 0.01,0.01 0,-0.01 0,-0.02 0,-0.02 0,0 -0.01,-0.01 -0.01,-0.01 -0.01,0 -0.01,-0.02 0,-0.02 0,0 0.02,-0.01 0.02,-0.01 0.01,0.01 0.03,0 0.03,0 0,0 0,-0.01 0,-0.01 0,-0.01 0.02,-0.04 0.02,-0.04 0,0 -0.01,0 -0.02,-0.01 0,0 0,0 0.01,-0.01 -0.09,-0.08 -0.19,-0.16 -0.29,-0.23l0 0zm-2.48 0.03c0,0.01 -0.01,0.02 -0.01,0.02l-0.11 -0.01 -0.04 0.07 -0.01 0.03c0,0 -0.06,0.06 -0.07,0.07 0.01,-0.01 0.04,0.02 0.04,0.02l-0.03 0.06 -0.09 0.06 -0.05 0c0,0 -0.03,0.11 -0.03,0.11 0.01,0.01 -0.03,0.03 -0.03,0.03l-0.03 0.02 -0.01 -0.04c0,0 -0.02,-0.03 -0.02,-0.03 0.01,0 0.03,0 0.03,0l0.01 -0.02 -0.03 0 0.01 -0.04 0.03 -0.04 -0.09 0 -0.02 -0.03 -0.04 0 -0.01 -0.02 -0.03 -0.02 -0.03 -0.02 -0.04 0.01 0 -0.04 0.01 -0.03 -0.04 -0.01c-0.51,0.46 -0.84,1.13 -0.85,1.87l0.04 0.01 0.06 -0.02 0.05 0.02 0.06 0.07 0.06 0.02 0.07 0.02 0.03 0 0.01 0.04c0,0 0.03,0.04 0.04,0.05 0,0 0,0.04 0,0.04l0.03 0.02 0.03 0.03 0.02 0.02 0.02 0.03 0.02 -0.01 0.03 0.01 0.04 0.04 0.03 -0.02 -0.01 -0.03 0.03 -0.03 0.02 0 0.03 0.02 0 0.03 0.03 0.05 0 0.13 -0.03 0.04 -0.04 0.03 0 0.04 -0.04 0.01 -0.01 0.06 -0.02 0.04 0 0.04 0.03 0.03 -0.03 0.03 -0.02 0.04 0.02 0.06c0,0 0.01,0.03 0.01,0.03 0,-0.01 0.03,0.02 0.03,0.02l0.06 0.11 0.06 0.09c0,0 0.08,0.16 0.08,0.16 0.03,0.02 0.21,0.15 0.21,0.15l0.03 0.16 0.01 0.34 0.02 0.1 0 0.05c0.14,0.09 0.29,0.18 0.45,0.24 0.01,0 0.04,0.01 0.04,0.01l0.07 -0.02c0,0 0.03,-0.05 0.03,-0.06 0,-0.01 0,-0.04 0,-0.04 0,0 0,-0.02 -0.02,-0.02 -0.02,-0.01 -0.02,-0.01 -0.02,-0.03 -0.01,-0.02 -0.02,-0.04 -0.02,-0.04l-0.02 0.01 0.02 -0.02 0.04 0.03 0.07 0.01 0.05 -0.05 0.03 -0.09 0.02 -0.06 0.03 0 0.04 -0.06 0.01 -0.06 -0.01 -0.08 0.02 -0.02 0.11 -0.08 0.09 -0.03 0.03 -0.02c0,0 0.04,-0.06 0.04,-0.07 0,-0.01 0.02,-0.09 0.02,-0.09 0,0 0.02,-0.1 0.02,-0.11 -0.01,-0.01 0,-0.1 0,-0.1 -0.01,0 0,-0.02 0,-0.02l0.08 -0.12 0.04 -0.09c0,0 0.03,-0.05 0.03,-0.06 -0.01,-0.01 -0.03,-0.08 -0.03,-0.08 0,0 -0.06,-0.02 -0.06,-0.02 0,-0.01 -0.09,-0.09 -0.09,-0.09 0,0.01 -0.04,-0.03 -0.04,-0.02 -0.01,0.01 -0.08,0.01 -0.08,0.01l-0.07 -0.02c0,0 -0.03,0.02 -0.03,0.02 0.01,-0.01 0.01,-0.07 0,-0.06 0,0.01 -0.11,-0.04 -0.11,-0.04l-0.03 0.03 0 -0.04 -0.06 -0.04 0.01 -0.04 -0.03 -0.03c0,0 -0.01,0.01 -0.01,0.01 0,-0.01 -0.02,-0.1 -0.02,-0.1l-0.08 -0.07 -0.1 0 -0.1 -0.05 -0.02 -0.05c0,0 -0.05,-0.02 -0.05,-0.03 0,-0.01 -0.01,0 -0.02,0 0,-0.01 0,-0.03 0,-0.03l-0.02 -0.02 -0.01 0 -0.03 -0.01 -0.01 -0.02c0,0 0.05,-0.02 0.05,-0.02 -0.01,0 -0.11,0.02 -0.11,0.02l-0.01 0.02 -0.05 -0.03 -0.08 0c0,0 -0.06,-0.03 -0.06,-0.03 0,-0.01 -0.02,-0.03 -0.02,-0.03 0,0 -0.01,0.03 -0.01,0.03 -0.01,0 -0.05,0.04 -0.05,0.04l0 0.05 -0.02 -0.03 0.02 -0.03 0 -0.04c0,0 0.02,-0.01 0.02,-0.01l-0.01 -0.02c0,0 -0.03,0 -0.03,0.01 0,0 -0.04,0.03 -0.04,0.03l-0.05 0.02 -0.02 0c0,0 -0.02,0.03 -0.03,0.03 0,0 0,0.04 0,0.04 0,0 -0.05,0.06 -0.06,0.05 0,-0.01 -0.05,-0.05 -0.05,-0.05l-0.07 0 -0.04 0.02 -0.05 -0.03 -0.03 -0.05 0 -0.07 0.02 -0.07 0.01 -0.05 -0.05 -0.04c0,0 -0.1,0.01 -0.1,0 0,0 -0.06,0.01 -0.06,0 0.01,0 0.02,-0.04 0.02,-0.04 0,-0.01 0.02,-0.04 0.02,-0.04l0.02 -0.05 0.03 -0.08 0.01 -0.03 -0.08 0 -0.05 0.02 -0.03 0.08 -0.14 0.04 -0.03 -0.03c0,0 -0.01,0.02 0,0.01 0,-0.01 -0.05,-0.07 -0.05,-0.07l-0.02 -0.08c0,0 0.06,-0.17 0.06,-0.16 -0.01,0 0,-0.07 0,-0.07l0.17 -0.11 0.07 0.01 0.02 0.01 0.04 0 0.04 -0.04 0.06 0 0.05 -0.01 0.03 0.04 0.05 -0.02 0.02 0.03 0.02 0.01 0 0.03 -0.02 0.03 0.02 0.06 0.03 0.04 0.02 0.01 0.03 -0.07 -0.01 -0.07 -0.01 -0.05 0 -0.04 0.07 -0.09 0.09 -0.06 0.07 -0.04 0.06 -0.07 -0.01 -0.06 0.03 0 0.03 -0.06 0.02 0 0.06 -0.06 0.08 -0.03 0.06 -0.01 0.01 -0.02 -0.02 -0.02 0.04 -0.06 0.13 -0.05 0.08 -0.02 -0.06 0.04 0.01 0.03 0.05 -0.01 0.04 -0.02 0.09 -0.03c0,0 0.01,-0.02 0.02,-0.03 -0.01,0.01 0.04,-0.01 0.04,-0.01l-0.01 -0.02 0.01 -0.02 -0.03 0.01 -0.04 0.04 -0.07 0 -0.03 -0.05 0.03 -0.04c0,0 0.03,-0.05 0.03,-0.05 0,0 -0.05,-0.01 -0.05,-0.01l-0.06 0.02c-0.01,0 -0.07,0.04 -0.07,0.03 0,0 -0.03,0.02 -0.03,0.02l0.09 -0.07 0.03 0 0.04 -0.04 0.19 0 0.07 -0.01 0.08 -0.05 0.01 0.01 -0.04 0.03 -0.04 0.05 -0.04 0.05 -0.03 0.03 0.07 0c0,0 0.06,0 0.06,0 0.01,0 0.01,0.02 0.01,0.02l0.03 -0.02 0.01 0.04 0.05 -0.04 -0.01 -0.04 0.01 -0.04 -0.06 0 0 -0.02c0,0 -0.02,-0.03 -0.02,-0.02 0,0 0.03,-0.03 0.03,-0.03 0,0.01 -0.02,-0.01 -0.02,-0.01l0.04 -0.05 -0.01 -0.06 -0.01 -0.03 -0.05 -0.02 -0.02 -0.03 -0.03 -0.02 0.02 -0.04 0 -0.03c0,0 -0.02,-0.1 -0.02,-0.1 0,0 -0.07,0.06 -0.07,0.06l-0.07 0.03 -0.04 -0.03 0.01 -0.04 0.03 -0.03 -0.05 -0.02 -0.01 -0.01c0,0 -0.04,-0.05 -0.05,-0.05l0 0zm2.16 0.14l-0.02 0.01 -0.01 0.02c0,0 -0.02,0 -0.02,0 -0.01,-0.01 -0.02,0 -0.02,0 -0.01,0 -0.02,0.01 -0.02,0.01 0,0 -0.01,0.02 -0.02,0.02 0,0 -0.02,0.02 -0.02,0.02 0.01,0 0.01,0.01 0.01,0.01 0,0 -0.01,0.01 -0.01,0.01 -0.01,0 0,0.02 0,0.02l0.02 0.01c0,0 -0.01,0 -0.02,0 0,0 -0.01,0.01 0,0.02 0,0 0.01,0 0.01,0.01 0,0 0.01,0 0.01,0l0.02 0 -0.01 0.02c0,0 0,0.01 0,0.01 0.01,0 0.02,0 0.02,0 0,0 0.02,0 0.03,0 0,0 0,0.01 0,0.01l0.01 0.01c0,0 0,0.03 0,0.03 0,0.01 -0.01,0.01 -0.01,0.01 0,0 -0.02,0 -0.02,0 -0.01,0 -0.01,0.01 -0.02,0.02 -0.01,0 0,0 0,0l0.01 0c0,0 0.01,0.01 0.01,0.02 0,0 -0.02,0.01 -0.02,0 0,0 -0.03,0.01 -0.03,0.01l0.01 0.02 0.02 0 0.03 0.01 0 0c0,0 -0.02,0.01 -0.02,0 0,0 -0.02,0.02 -0.02,0.02l-0.01 0.01 -0.03 0.02 0.02 0.01 0.01 -0.01 0.02 0 0.02 0c0,0 0.02,-0.02 0.02,-0.02 0.01,0 0.04,0 0.04,0 0,0 0.03,-0.01 0.03,0 0,0 0.03,0 0.03,0 0,0 0.05,-0.01 0.05,-0.01 0,0 0,-0.01 0.01,-0.02 0,0 -0.02,-0.01 -0.02,-0.01 0,0 0.01,-0.01 0.02,-0.01 0.01,0 0.01,-0.02 0.01,-0.02 0,-0.01 0,-0.02 0,-0.02 -0.01,-0.01 -0.02,0 -0.03,-0.01 0,0 -0.02,0.01 -0.02,0.01l0 -0.03c0,0 -0.05,-0.07 -0.05,-0.07 0,0 -0.01,-0.03 -0.02,-0.03 0,0 -0.01,0 -0.02,-0.01 0,-0.01 0.01,-0.02 0.01,-0.02 0,0 0.02,-0.02 0.02,-0.03 0.01,0 0,-0.01 0,-0.01 0,-0.01 -0.04,0 -0.04,0 0,0 -0.01,-0.01 -0.01,-0.01 0,-0.01 0.01,-0.01 0.01,-0.01 0.01,0 0.03,-0.04 0.03,-0.04 0,0 0,-0.01 0,-0.01l0 0zm-0.18 0.16l-0.02 0.01 -0.01 0.01c0,0 -0.02,0.02 -0.01,0.02 0,-0.01 0.01,-0.01 0.01,0 -0.01,0 -0.01,0.01 -0.01,0.01l-0.02 0 -0.01 -0.01 -0.02 0 0 0.01 0.01 0.02 -0.02 0.01 0.02 0.01 0.01 0.01 0 0.01 -0.02 0.01 -0.01 0.01 -0.01 0.02 0.02 0.01 0.02 0.01 0.03 -0.01 0.02 -0.01 0.01 -0.01 0.04 0 0 -0.02 0.01 -0.02 0 -0.04 0.02 -0.02 0 -0.03 -0.04 0 -0.02 -0.01 0 0zm-2.98 1.41c0,-0.01 -0.05,0.04 -0.05,0.04l0 0.01c0,0 0,0.02 0,0.03 0.01,0 0.04,-0.03 0.05,-0.04 0,-0.02 0.03,-0.02 0.03,-0.02 0.01,-0.01 0.01,0.01 0.02,0.01 0.01,0 0.04,0.01 0.04,0.01l0.06 0.02 0.02 0.02c0,0 0.01,0.05 0.01,0.06 0,0.01 0.04,0 0.04,0l0.09 0c0,0 0.03,-0.02 0.03,-0.03 0,0 -0.03,-0.01 -0.04,-0.01 -0.02,0 -0.06,-0.05 -0.07,-0.06 0,-0.01 -0.11,-0.03 -0.11,-0.03 0,0 -0.12,-0.01 -0.12,-0.01l0 0zm0.38 0.13c-0.01,0 0,0.02 0,0.02l0 0.05 -0.06 0 0 0c0,0 -0.01,0.01 -0.01,0.02 0,0.01 0.02,0 0.02,0.01 0.01,0 0.03,-0.01 0.03,-0.01 0.01,0 0.03,0 0.03,0 0,0 0.01,0.01 0.01,0.02 0,0 0.03,0 0.03,-0.01 0,0 0.01,-0.02 0.01,-0.02l0.04 0c0,0 0.06,0 0.06,0 0.01,0 0.01,-0.01 0,-0.03 -0.01,-0.02 -0.04,-0.02 -0.04,-0.04 -0.01,-0.01 -0.04,0 -0.05,0 -0.01,0.01 -0.05,-0.01 -0.07,-0.01l0 0z" inkscape:connector-curvature="0"/>
     <path id="path4612" class="fil3" d="M4.59 1.29c0,0.62 -0.78,1.12 -1.75,1.12 -0.96,0 -1.74,-0.5 -1.74,-1.12 0,-0.62 0.78,-1.12 1.74,-1.12 0.97,0 1.75,0.5 1.75,1.12z" sodipodi:ry="51.5" sodipodi:rx="90" sodipodi:cy="557.86218" sodipodi:cx="165" sodipodi:type="arc"/>
    </g>
   </g>
  </g>
 </g>
</svg>
