<?xml version="1.0" encoding="UTF-8"?>
<!DOCTYPE svg PUBLIC "-//W3C//DTD SVG 1.1//EN" "http://www.w3.org/Graphics/SVG/1.1/DTD/svg11.dtd">
<!-- Creator: CorelDRAW 2018 (64-Bit) -->
<svg xmlns="http://www.w3.org/2000/svg" xml:space="preserve" width="32px" height="24px" version="1.1" style="shape-rendering:geometricPrecision; text-rendering:geometricPrecision; image-rendering:optimizeQuality; fill-rule:evenodd; clip-rule:evenodd"
viewBox="0 0 2.06 1.55"
 xmlns:xlink="http://www.w3.org/1999/xlink">
 <defs>
  <style type="text/css">
   <![CDATA[
    .fil0 {fill:#1A0707}
   ]]>
  </style>
 </defs>
 <g id="Слой_x0020_1">
  <metadata id="CorelCorpID_0Corel-Layer"/>
  <g id="_2201808101248">
   <g>
    <path class="fil0" d="M0 0.78l0 0.77 1.03 0 1.03 0 0 -0.77 0 -0.78 -1.03 0 -1.03 0 0 0.78zm1.82 -0.64c-0.04,0.05 -0.07,0.08 -0.55,0.56 -0.17,0.18 -0.18,0.18 -0.19,0.19 -0.03,0.01 -0.07,0.01 -0.1,0 -0.01,-0.01 -0.08,-0.09 -0.48,-0.49 -0.11,-0.11 -0.22,-0.22 -0.23,-0.23l-0.03 -0.03 0.79 0c0.44,0 0.79,0 0.79,0l0 0zm-1.42 0.37c0.15,0.14 0.26,0.26 0.26,0.26 0,0 -0.5,0.52 -0.51,0.53l-0.01 0 0 -0.52c0,-0.29 0,-0.53 0,-0.53 0.01,0 0.12,0.12 0.26,0.26l0 0zm1.51 0.27c0,0.29 0,0.52 0,0.52 0,0 -0.11,-0.12 -0.25,-0.26l-0.26 -0.26 0.12 -0.13c0.32,-0.32 0.39,-0.39 0.39,-0.39 0,0 0,0.23 0,0.52l0 0zm-1.02 0.22c0.04,0.03 0.09,0.04 0.15,0.04 0.04,0 0.07,-0.01 0.1,-0.02 0.03,-0.02 0.04,-0.03 0.1,-0.09l0.06 -0.05 0.26 0.26 0.25 0.27 -0.78 0c-0.43,0 -0.78,0 -0.79,0 0,0 0.01,-0.01 0.02,-0.02 0.01,-0.01 0.13,-0.13 0.26,-0.27l0.24 -0.25 0.06 0.06c0.03,0.03 0.06,0.06 0.07,0.07z"/>
   </g>
  </g>
 </g>
</svg>
