<?xml version="1.0" encoding="UTF-8"?>
<!DOCTYPE svg PUBLIC "-//W3C//DTD SVG 1.1//EN" "http://www.w3.org/Graphics/SVG/1.1/DTD/svg11.dtd">
<!-- Creator: CorelDRAW 2018 (64-Bit) -->
<svg xmlns="http://www.w3.org/2000/svg" xml:space="preserve" width="32px" height="22px" version="1.1" style="shape-rendering:geometricPrecision; text-rendering:geometricPrecision; image-rendering:optimizeQuality; fill-rule:evenodd; clip-rule:evenodd"
viewBox="0 0 12.33 8.58"
 xmlns:xlink="http://www.w3.org/1999/xlink">
 <defs>
  <style type="text/css">
   <![CDATA[
    .fil2 {fill:#012169}
    .fil1 {fill:#C8102E}
    .fil0 {fill:#FEFEFE}
   ]]>
  </style>
 </defs>
 <g id="Слой_x0020_1">
  <metadata id="CorelCorpID_0Corel-Layer"/>
  <g id="_2920491796496">
   <g>
    <path class="fil0" d="M0.64 8.58l11.05 0c0.35,-0.02 0.64,-0.32 0.64,-0.68l0 -7.22c0,-0.37 -0.3,-0.68 -0.67,-0.68l-10.99 0c-0.37,0 -0.67,0.31 -0.67,0.68l0 7.22c0,0.36 0.29,0.66 0.64,0.68l0 0z"/>
    <polygon class="fil1" points="5.3,5.14 5.3,8.58 7.02,8.58 7.02,5.14 12.33,5.14 12.33,3.43 7.02,3.43 7.02,0 5.3,0 5.3,3.43 0,3.43 0,5.14 "/>
    <path class="fil2" d="M7.59 2.78l0 -2.78 4.07 0c0.28,0 0.52,0.18 0.62,0.43l-4.69 2.35 0 0z"/>
    <path class="fil2" d="M7.59 5.8l0 2.78 4.1 0c0.27,-0.02 0.5,-0.19 0.59,-0.43l-4.69 -2.35 0 0z"/>
    <path class="fil2" d="M4.73 5.8l0 2.78 -4.09 0c-0.27,-0.02 -0.5,-0.19 -0.59,-0.44l4.68 -2.34 0 0z"/>
    <path class="fil2" d="M4.73 2.78l0 -2.78 -4.06 0c-0.28,0 -0.53,0.18 -0.62,0.43l4.68 2.35 0 0z"/>
    <polygon class="fil2" points="0,2.86 1.71,2.86 0,2 "/>
    <polygon class="fil2" points="12.33,2.86 10.61,2.86 12.33,2 "/>
    <polygon class="fil2" points="12.33,5.72 10.61,5.72 12.33,6.58 "/>
    <polygon class="fil2" points="0,5.72 1.71,5.72 0,6.57 "/>
    <polygon class="fil1" points="12.33,0.73 8.07,2.86 9.03,2.86 12.33,1.21 "/>
    <polygon class="fil1" points="4.25,5.72 3.29,5.72 0,7.37 0,7.85 4.25,5.72 "/>
    <polygon class="fil1" points="2.35,2.86 3.3,2.86 0,1.21 0,1.69 "/>
    <polygon class="fil1" points="9.97,5.72 9.02,5.72 12.33,7.37 12.33,6.9 "/>
   </g>
  </g>
 </g>
</svg>
