<?xml version="1.0" encoding="UTF-8"?>
<!DOCTYPE svg PUBLIC "-//W3C//DTD SVG 1.1//EN" "http://www.w3.org/Graphics/SVG/1.1/DTD/svg11.dtd">
<!-- Creator: CorelDRAW 2018 (64-Bit) -->
<svg xmlns="http://www.w3.org/2000/svg" xml:space="preserve" width="32px" height="22px" version="1.1" style="shape-rendering:geometricPrecision; text-rendering:geometricPrecision; image-rendering:optimizeQuality; fill-rule:evenodd; clip-rule:evenodd"
viewBox="0 0 85.45 59.45"
 xmlns:xlink="http://www.w3.org/1999/xlink">
 <defs>
  <style type="text/css">
   <![CDATA[
    .fil0 {fill:#ED2113}
   ]]>
  </style>
 </defs>
 <g id="Слой_x0020_1">
  <metadata id="CorelCorpID_0Corel-Layer"/>
  <g id="_2920491792944">
   <g>
    <path class="fil0" d="M4.44 59.45l76.57 0c2.46,-0.14 4.44,-2.2 4.44,-4.69l0 -50.07c0,-2.57 -2.09,-4.67 -4.66,-4.69l-76.13 0c-2.57,0.02 -4.66,2.12 -4.66,4.69l0 50.05c0,2.51 1.98,4.57 4.44,4.71l0 0z"/>
    <polygon class="fil0" points="36.75,35.65 36.75,59.45 48.64,59.45 48.64,35.65 85.45,35.65 85.45,23.76 48.64,23.76 48.64,0 36.75,0 36.75,23.76 0,23.76 0,35.65 "/>
    <path class="fil0" d="M52.6 19.24l0 -19.24 28.23 0c1.95,0.03 3.62,1.25 4.3,2.97l-32.53 16.27 0 0z"/>
    <path class="fil0" d="M52.6 40.2l0 19.25 28.41 0c1.87,-0.11 3.45,-1.32 4.12,-2.98l-32.53 -16.27 0 0z"/>
    <path class="fil0" d="M32.79 40.2l0 19.25 -28.35 0c-1.87,-0.11 -3.46,-1.32 -4.11,-3.01l32.46 -16.24 0 0z"/>
    <path class="fil0" d="M32.79 19.24l0 -19.24 -28.16 0c-1.95,0.03 -3.64,1.27 -4.3,3l32.46 16.24 0 0z"/>
    <polygon class="fil0" points="0,19.82 11.84,19.82 0,13.89 "/>
    <polygon class="fil0" points="85.45,19.82 73.55,19.82 85.45,13.86 "/>
    <polygon class="fil0" points="85.45,39.63 73.55,39.63 85.45,45.59 "/>
    <polygon class="fil0" points="0,39.63 11.84,39.63 0,45.56 "/>
    <polygon class="fil0" points="85.45,5.03 55.96,19.82 62.56,19.82 85.45,8.36 "/>
    <polygon class="fil0" points="29.43,39.63 22.83,39.63 0,51.06 0,54.38 29.49,39.63 "/>
    <polygon class="fil0" points="16.29,19.83 22.88,19.83 0,8.38 0,11.69 "/>
    <polygon class="fil0" points="69.09,39.62 62.5,39.62 85.45,51.12 85.45,47.8 "/>
   </g>
  </g>
 </g>
</svg>
