<?xml version="1.0" encoding="UTF-8"?>
<!DOCTYPE svg PUBLIC "-//W3C//DTD SVG 1.1//EN" "http://www.w3.org/Graphics/SVG/1.1/DTD/svg11.dtd">
<!-- Creator: CorelDRAW 2018 (64-Bit) -->
<svg xmlns="http://www.w3.org/2000/svg" xml:space="preserve" width="32px" height="22px" version="1.1" style="shape-rendering:geometricPrecision; text-rendering:geometricPrecision; image-rendering:optimizeQuality; fill-rule:evenodd; clip-rule:evenodd"
viewBox="0 0 85.45 59.45"
 xmlns:xlink="http://www.w3.org/1999/xlink">
 <defs>
  <style type="text/css">
   <![CDATA[
    .fil0 {fill:#ED2113}
    .fil1 {fill:#FEFEFE;fill-rule:nonzero}
   ]]>
  </style>
 </defs>
 <g id="Слой_x0020_1">
  <metadata id="CorelCorpID_0Corel-Layer"/>
  <g id="Флаг_x0020_РУ">
   <g>
    <g>
     <path class="fil0" d="M4.44 59.45l76.57 0c2.46,-0.14 4.44,-2.2 4.44,-4.69l0 -50.07c0,-2.57 -2.09,-4.67 -4.66,-4.69l-76.13 0c-2.57,0.02 -4.66,2.12 -4.66,4.69l0 50.05c0,2.51 1.98,4.57 4.44,4.71l0 0z"/>
     <polygon class="fil0" points="36.75,35.65 36.75,59.45 48.64,59.45 48.64,35.65 85.45,35.65 85.45,23.76 48.64,23.76 48.64,0 36.75,0 36.75,23.76 0,23.76 0,35.65 "/>
     <path class="fil0" d="M52.6 19.24l0 -19.24 28.23 0c1.95,0.03 3.62,1.25 4.3,2.97l-32.53 16.27 0 0z"/>
     <path class="fil0" d="M52.6 40.2l0 19.25 28.41 0c1.87,-0.11 3.45,-1.32 4.12,-2.98l-32.53 -16.27 0 0z"/>
     <path class="fil0" d="M32.79 40.2l0 19.25 -28.35 0c-1.87,-0.11 -3.46,-1.32 -4.11,-3.01l32.46 -16.24 0 0z"/>
     <path class="fil0" d="M32.79 19.24l0 -19.24 -28.16 0c-1.95,0.03 -3.64,1.27 -4.3,3l32.46 16.24 0 0z"/>
     <polygon class="fil0" points="0,19.82 11.84,19.82 0,13.89 "/>
     <polygon class="fil0" points="85.45,19.82 73.55,19.82 85.45,13.86 "/>
     <polygon class="fil0" points="85.45,39.63 73.55,39.63 85.45,45.59 "/>
     <polygon class="fil0" points="0,39.63 11.84,39.63 0,45.56 "/>
     <polygon class="fil0" points="85.45,5.03 55.96,19.82 62.56,19.82 85.45,8.36 "/>
     <polygon class="fil0" points="29.43,39.63 22.83,39.63 0,51.06 0,54.38 29.49,39.63 "/>
     <polygon class="fil0" points="16.29,19.83 22.88,19.83 0,8.38 0,11.69 "/>
     <polygon class="fil0" points="69.09,39.62 62.5,39.62 85.45,51.12 85.45,47.8 "/>
    </g>
   </g>
   <path class="fil1" d="M22.56 41.84l0 -24.8 11 0c2.21,0 3.89,0.22 5.04,0.67 1.15,0.44 2.06,1.23 2.75,2.35 0.69,1.13 1.03,2.38 1.03,3.74 0,1.76 -0.57,3.25 -1.71,4.45 -1.14,1.21 -2.89,1.97 -5.27,2.3 0.87,0.42 1.53,0.83 1.98,1.24 0.96,0.87 1.86,1.98 2.71,3.3l4.29 6.75 -4.1 0 -3.28 -5.16c-0.95,-1.49 -1.74,-2.63 -2.36,-3.42 -0.62,-0.79 -1.18,-1.34 -1.67,-1.66 -0.48,-0.31 -0.98,-0.53 -1.49,-0.66 -0.37,-0.07 -0.98,-0.11 -1.83,-0.11l-3.8 0 0 11.01 -3.29 0zm3.29 -13.85l7.05 0c1.5,0 2.67,-0.16 3.51,-0.47 0.84,-0.31 1.48,-0.8 1.92,-1.49 0.43,-0.68 0.65,-1.42 0.65,-2.22 0,-1.18 -0.42,-2.15 -1.27,-2.9 -0.85,-0.76 -2.19,-1.13 -4.02,-1.13l-7.84 0 0 8.21z"/>
   <path id="1" class="fil1" d="M63.76 17.04l3.29 0 0 14.32c0,2.5 -0.28,4.48 -0.84,5.95 -0.57,1.46 -1.59,2.65 -3.05,3.57 -1.47,0.92 -3.4,1.38 -5.79,1.38 -2.31,0 -4.21,-0.4 -5.68,-1.2 -1.48,-0.8 -2.53,-1.96 -3.16,-3.48 -0.63,-1.52 -0.95,-3.59 -0.95,-6.22l0 -14.32 3.29 0 0 14.32c0,2.15 0.2,3.75 0.6,4.76 0.4,1.02 1.08,1.81 2.06,2.36 0.97,0.56 2.16,0.83 3.56,0.83 2.4,0 4.12,-0.54 5.14,-1.63 1.02,-1.1 1.53,-3.2 1.53,-6.32l0 -14.32z"/>
  </g>
 </g>
</svg>
