<?xml version="1.0" encoding="UTF-8"?>
<!DOCTYPE svg PUBLIC "-//W3C//DTD SVG 1.1//EN" "http://www.w3.org/Graphics/SVG/1.1/DTD/svg11.dtd">
<!-- Creator: CorelDRAW 2018 (64-Bit) -->
<svg xmlns="http://www.w3.org/2000/svg" xml:space="preserve" width="32px" height="32px" version="1.1" style="shape-rendering:geometricPrecision; text-rendering:geometricPrecision; image-rendering:optimizeQuality; fill-rule:evenodd; clip-rule:evenodd"
viewBox="0 0 0.83 0.83"
 xmlns:xlink="http://www.w3.org/1999/xlink">
 <defs>
  <style type="text/css">
   <![CDATA[
    .str0 {stroke:#2B2A29;stroke-width:0.05;stroke-miterlimit:22.9256}
    .fil1 {fill:none}
    .fil0 {fill:#2B2A29;fill-rule:nonzero}
   ]]>
  </style>
 </defs>
 <g id="Слой_x0020_1">
  <metadata id="CorelCorpID_0Corel-Layer"/>
  <path class="fil0" d="M0.29 0.7l0 -0.06 0.04 0c0.02,0 0.03,0 0.04,-0.01 0,-0.01 0.01,-0.02 0.01,-0.04l0 -0.2c0,-0.02 -0.01,-0.03 -0.01,-0.04 -0.01,0 -0.02,-0.01 -0.04,-0.01l-0.04 0 0 -0.06 0.19 0 0 0.31c0,0.02 0.01,0.03 0.01,0.04 0.01,0.01 0.02,0.01 0.04,0.01l0.03 0 0 0.06 -0.27 0zm0.07 -0.53c0,-0.02 0,-0.04 0.01,-0.05 0.02,-0.01 0.03,-0.02 0.05,-0.02 0.02,0 0.03,0.01 0.05,0.02 0.01,0.01 0.02,0.03 0.02,0.05 0,0.02 -0.01,0.03 -0.02,0.04 -0.02,0.02 -0.03,0.02 -0.05,0.02 -0.02,0 -0.03,0 -0.05,-0.02 -0.01,-0.01 -0.01,-0.02 -0.01,-0.04z"/>
  <circle class="fil1 str0" cx="0.42" cy="0.42" r="0.39"/>
 </g>
</svg>
