<?xml version="1.0" standalone="no"?>
<!DOCTYPE svg PUBLIC "-//W3C//DTD SVG 20010904//EN"
 "http://www.w3.org/TR/2001/REC-SVG-20010904/DTD/svg10.dtd">
<svg version="1.0" xmlns="http://www.w3.org/2000/svg"
 width="1042.000000pt" height="1280.000000pt" viewBox="0 0 1042.000000 1280.000000"
 preserveAspectRatio="xMidYMid meet">
<metadata>
Created by potrace 1.15, written by Peter Selinger 2001-2017
</metadata>
<g transform="translate(0.000000,1280.000000) scale(0.100000,-0.100000)"
fill="#000000" stroke="none">
<path d="M5871 12794 c-8 -4 -49 -28 -92 -54 -65 -40 -91 -49 -161 -60 -395
-58 -1057 -214 -1216 -286 -99 -45 -183 -107 -266 -194 -101 -108 -148 -188
-201 -341 -25 -73 -58 -154 -72 -179 -36 -61 -164 -186 -304 -298 -64 -50
-127 -109 -141 -129 -24 -36 -93 -205 -125 -303 -9 -28 -18 -119 -23 -245 -5
-110 -18 -259 -29 -332 -25 -157 -26 -237 -6 -527 11 -167 22 -248 44 -345 17
-72 41 -226 56 -359 14 -128 32 -262 39 -297 l13 -63 -81 -6 c-170 -14 -205
-29 -238 -102 -17 -39 -19 -66 -19 -182 1 -75 4 -152 7 -172 3 -19 -2 -105
-11 -190 -18 -177 -20 -307 -6 -371 6 -24 26 -91 46 -149 70 -205 95 -301 106
-412 21 -212 89 -365 251 -565 32 -40 72 -81 88 -93 35 -25 104 -46 182 -55
l56 -6 6 -82 c4 -45 11 -199 16 -342 6 -166 15 -287 25 -335 24 -110 71 -243
123 -345 25 -49 63 -124 84 -165 l39 -75 0 -126 c0 -88 -4 -137 -14 -161 -10
-23 -46 -59 -108 -108 -52 -41 -211 -189 -354 -329 -143 -140 -298 -285 -344
-322 -81 -66 -179 -122 -232 -134 -26 -6 -26 -5 -32 62 -10 110 -31 157 -107
234 -44 45 -88 78 -126 96 -53 25 -69 28 -159 27 -313 -4 -701 -128 -924 -295
-158 -118 -241 -241 -372 -551 -37 -89 -58 -128 -69 -128 -12 0 -27 32 -55
116 -21 64 -66 173 -101 243 -54 110 -72 136 -128 189 -187 175 -584 308 -751
252 -133 -44 -216 -171 -170 -260 10 -19 61 -79 115 -134 199 -207 235 -299
250 -636 8 -203 5 -188 98 -406 115 -269 137 -357 162 -649 13 -153 40 -301
80 -440 44 -153 50 -203 50 -414 0 -108 4 -202 9 -210 7 -11 17 -9 54 7 60 27
73 50 87 157 16 121 38 217 66 293 14 35 29 106 34 160 6 53 22 133 36 176 32
95 30 153 -16 382 -43 217 -54 325 -41 415 14 102 37 151 143 308 53 78 114
184 144 250 29 64 76 163 106 221 29 58 69 150 87 205 56 167 103 255 166 313
69 63 134 95 340 166 88 30 204 71 259 91 141 51 240 76 327 82 67 5 83 3 131
-20 156 -71 204 -179 178 -401 -13 -104 -13 -105 -44 -116 -17 -6 -110 -38
-206 -71 -203 -69 -355 -141 -422 -198 -34 -30 -59 -66 -93 -136 -25 -52 -65
-118 -87 -147 -70 -89 -280 -318 -384 -418 -83 -80 -117 -104 -211 -153 -128
-66 -201 -119 -233 -172 -12 -20 -21 -38 -19 -39 10 -9 123 29 194 65 169 86
290 175 432 320 118 121 163 175 302 359 137 181 188 231 306 302 138 83 459
238 491 238 51 0 219 -97 279 -160 l30 -31 0 -202 c0 -247 3 -239 -145 -339
-143 -97 -186 -134 -400 -343 -102 -99 -256 -237 -343 -305 -124 -98 -162
-134 -178 -168 -12 -24 -19 -45 -16 -48 3 -3 30 1 59 10 134 39 376 241 646
540 165 181 260 244 454 300 141 41 177 43 240 13 57 -27 129 -92 156 -141 23
-42 22 -209 -1 -287 -25 -85 -60 -127 -220 -269 -81 -72 -184 -174 -230 -227
-45 -54 -117 -134 -159 -178 -69 -72 -78 -86 -78 -118 0 -36 1 -37 28 -31 67
16 109 53 256 224 174 203 254 284 349 351 118 83 191 77 288 -22 81 -82 99
-135 99 -293 0 -150 -13 -192 -83 -274 -128 -150 -155 -183 -197 -241 -29 -42
-72 -83 -127 -123 l-83 -61 7 -106 c12 -156 9 -371 -6 -498 -17 -139 -11 -173
38 -222 62 -62 131 -88 293 -112 321 -46 644 -149 768 -244 91 -70 141 -89
213 -81 106 11 192 80 223 182 20 62 20 65 -107 528 -118 430 -169 585 -300
912 -94 233 -117 304 -168 505 -65 260 -164 623 -218 799 -114 377 -210 754
-253 999 -32 182 -25 408 16 515 4 10 84 -64 263 -242 578 -578 688 -665 1126
-886 110 -56 223 -117 250 -136 68 -46 125 -92 125 -100 0 -4 -14 -25 -31 -46
-80 -101 -125 -232 -136 -395 -7 -112 3 -163 59 -296 21 -51 38 -99 38 -107 0
-8 -34 -45 -76 -83 -101 -91 -173 -181 -319 -403 -67 -102 -154 -225 -194
-275 -79 -99 -129 -190 -137 -250 l-5 -40 56 60 c31 33 105 125 163 205 104
143 192 253 198 248 1 -2 -13 -47 -32 -102 -43 -125 -88 -294 -110 -416 -22
-126 -22 -378 0 -477 27 -124 63 -200 111 -236 50 -37 154 -102 163 -102 4 0
32 -20 62 -44 30 -24 96 -70 145 -102 50 -33 97 -65 105 -73 26 -24 98 -56
127 -56 15 0 50 -13 77 -29 47 -28 51 -28 88 -15 63 22 107 63 195 181 73 98
282 313 304 313 4 0 29 -30 56 -67 44 -62 48 -66 51 -42 3 27 -3 56 -61 284
-20 77 -41 185 -47 240 -7 55 -31 206 -55 335 -23 129 -45 252 -48 273 l-6 38
32 -19 c57 -33 280 -211 372 -297 50 -45 122 -124 160 -173 39 -50 74 -91 79
-91 17 -2 0 162 -21 204 -31 60 -189 206 -373 345 -349 263 -417 332 -528 535
-75 138 -75 136 -40 272 35 137 46 279 29 350 -32 128 -133 274 -227 329 -24
14 -44 32 -44 40 0 23 177 199 252 251 40 28 125 78 188 113 183 101 533 337
655 443 160 140 435 411 541 533 100 116 164 178 164 158 0 -4 -10 -61 -22
-128 -22 -117 -23 -139 -20 -651 3 -586 -3 -694 -63 -1170 -14 -113 -27 -256
-45 -520 -18 -258 -31 -343 -85 -570 -19 -77 -48 -207 -64 -288 -37 -177 -56
-255 -80 -322 -40 -110 -34 -161 29 -240 57 -71 103 -95 180 -95 74 0 110 14
217 83 85 56 92 59 260 107 164 47 227 80 258 134 13 23 40 97 60 165 20 68
42 139 50 157 7 18 35 104 60 191 26 87 67 201 92 253 44 94 47 97 277 325
127 127 288 289 356 360 112 117 314 296 515 456 73 59 252 184 459 322 66 44
140 95 164 113 l42 32 -107 26 c-60 14 -162 44 -228 66 -66 23 -192 63 -280
90 -88 26 -214 68 -280 93 -66 25 -186 59 -267 76 -166 36 -241 59 -307 97
-105 60 -280 205 -477 394 -225 217 -500 472 -576 534 l-47 38 20 41 c12 23
57 102 101 175 44 73 94 165 113 205 47 104 169 496 210 677 69 305 101 409
136 446 12 12 47 33 78 45 146 59 194 116 280 331 61 154 123 279 216 433 138
228 137 221 145 735 l6 415 47 130 c50 138 56 184 33 240 -19 44 -62 70 -143
86 -36 7 -62 17 -60 23 22 58 78 278 87 341 15 114 25 155 90 385 32 113 68
257 80 320 12 63 39 183 60 265 89 347 77 450 -73 628 -80 95 -191 261 -243
363 -55 109 -72 171 -98 366 -34 249 -36 252 -607 814 -96 94 -192 183 -214
196 -42 26 -90 39 -214 59 -55 8 -108 28 -215 80 -196 95 -496 191 -684 220
-66 10 -112 10 -225 1 -222 -19 -314 -16 -513 19 -173 29 -364 45 -393 33z"/>
<path d="M1935 2762 c-28 -21 -87 -83 -133 -137 -46 -55 -161 -179 -256 -275
-95 -96 -184 -195 -199 -220 -35 -61 -45 -112 -51 -267 l-5 -132 61 37 c82 49
155 123 167 170 6 20 14 85 20 143 13 152 40 199 240 419 57 63 117 133 133
155 33 44 81 135 76 141 -2 2 -26 -14 -53 -34z"/>
<path d="M2369 1979 c-67 -73 -113 -112 -164 -141 -80 -47 -112 -73 -130 -108
-27 -54 -115 -333 -110 -350 13 -41 32 -43 79 -10 57 41 96 97 150 212 29 62
73 130 131 203 86 107 137 197 150 263 4 19 3 32 -3 32 -6 0 -52 -45 -103
-101z"/>
<path d="M2816 1202 c-14 -23 -55 -146 -66 -195 -17 -81 -6 -126 36 -143 36
-15 84 -19 84 -6 0 4 7 50 15 102 16 103 19 170 9 219 -6 27 -11 31 -40 31
-18 0 -35 -4 -38 -8z"/>
<path d="M1995 1059 c-8 -36 -1 -91 26 -204 10 -44 30 -147 44 -230 38 -228
28 -205 90 -205 30 0 56 3 58 8 10 18 -18 190 -54 327 -21 82 -49 192 -62 242
l-22 93 -37 0 c-33 0 -37 -3 -43 -31z"/>
</g>
</svg>
