<?xml version="1.0" encoding="UTF-8"?>
<!DOCTYPE svg PUBLIC "-//W3C//DTD SVG 1.1//EN" "http://www.w3.org/Graphics/SVG/1.1/DTD/svg11.dtd">
<!-- Creator: CorelDRAW 2018 (64-Bit) -->
<svg xmlns="http://www.w3.org/2000/svg" xml:space="preserve" width="32px" height="27px" version="1.1" style="shape-rendering:geometricPrecision; text-rendering:geometricPrecision; image-rendering:optimizeQuality; fill-rule:evenodd; clip-rule:evenodd"
viewBox="0 0 10.26 8.55"
 xmlns:xlink="http://www.w3.org/1999/xlink">
 <defs>
  <style type="text/css">
   <![CDATA[
    .fil1 {fill:#3A1811}
    .fil0 {fill:#603913}
    .fil2 {fill:#754C29}
    .fil3 {fill:#8B5E3C}
    .fil4 {fill:#C49A6C}
   ]]>
  </style>
 </defs>
 <g id="Слой_x0020_1">
  <metadata id="CorelCorpID_0Corel-Layer"/>
  <g id="_1578086818736">
   <g>
    <g>
     <path class="fil0" d="M9.94 8.44l-9.63 0c-0.11,0 -0.2,-0.09 -0.2,-0.2l0 -6.44c0,-0.11 0.09,-0.2 0.2,-0.2l9.63 0c0.11,0 0.2,0.09 0.2,0.2l0 6.44c0,0.11 -0.09,0.2 -0.2,0.2z"/>
     <path class="fil1" d="M9.94 8.55l-9.63 0c-0.17,0 -0.31,-0.14 -0.31,-0.31l0 -6.44c0,-0.17 0.14,-0.31 0.31,-0.31l9.63 0c0.17,0 0.31,0.14 0.31,0.31l0 6.44c0,0.17 -0.14,0.31 -0.31,0.31zm-9.63 -6.84c-0.05,0 -0.08,0.04 -0.08,0.09l0 6.43c0,0.05 0.04,0.09 0.08,0.09l9.63 0c0.05,0 0.08,-0.04 0.08,-0.09l0 -6.43c0,-0.05 -0.03,-0.09 -0.08,-0.09l-9.63 0z"/>
    </g>
    <g>
     <path class="fil2" d="M0.11 4.31c1.39,0.84 3.13,1.35 5.02,1.35 1.89,0 3.62,-0.51 5.01,-1.35l0 -2.34c0,-0.21 -0.15,-0.37 -0.34,-0.37l-9.35 0c-0.19,0 -0.34,0.16 -0.34,0.37l0 2.34 0 0z"/>
     <path class="fil1" d="M5.13 5.77c-1.85,0 -3.61,-0.47 -5.08,-1.36l-0.05 -0.03 0 -2.41c0,-0.27 0.2,-0.49 0.45,-0.49l9.36 0c0.24,0 0.45,0.22 0.45,0.49l0 2.41 -0.06 0.03c-1.47,0.89 -3.22,1.36 -5.07,1.36zm-4.9 -1.52c1.42,0.85 3.11,1.29 4.9,1.29 1.78,0 3.48,-0.44 4.9,-1.29l0 -2.28c0,-0.14 -0.1,-0.26 -0.23,-0.26l-9.35 0c-0.12,0 -0.22,0.12 -0.22,0.26l0 2.28 0 0z"/>
    </g>
    <g>
     <g>
      <path class="fil3" d="M6.46 1.6c-0.09,0 -0.16,-0.07 -0.16,-0.16l0 -0.33c0,0 0,-0.01 0,-0.01 0,-0.08 -0.07,-0.14 -0.15,-0.14l-2.04 0c-0.09,0 -0.16,0.06 -0.16,0.14 0,0 0,0.01 0,0.01l0 0.33c0,0.09 -0.06,0.16 -0.15,0.16l-0.53 0c-0.08,0 -0.15,-0.07 -0.15,-0.16l0 -0.33c0,-0.56 0.37,-1 0.85,-1l2.32 0c0.48,0 0.85,0.44 0.85,1l0 0.33c0,0.09 -0.07,0.16 -0.15,0.16l-0.53 0z"/>
      <path class="fil1" d="M6.99 1.71l-0.53 0c-0.15,0 -0.27,-0.12 -0.27,-0.27l0 -0.34c0,-0.01 -0.02,-0.03 -0.04,-0.03l-2.04 0c-0.02,0 -0.04,0.02 -0.04,0.03l0 0.34c0,0.15 -0.12,0.27 -0.27,0.27l-0.53 0c-0.15,0 -0.27,-0.12 -0.27,-0.27l0 -0.33c0,-0.62 0.43,-1.11 0.97,-1.11l2.32 0c0.54,0 0.97,0.49 0.97,1.11l0 0.33c-0.01,0.15 -0.13,0.27 -0.27,0.27zm-2.89 -0.87l2.05 0c0.14,0 0.27,0.12 0.27,0.26l0 0.34c0,0.03 0.01,0.04 0.03,0.04l0.53 0c0.03,0 0.04,-0.01 0.04,-0.04l0 -0.33c0,-0.5 -0.32,-0.88 -0.74,-0.88l-2.31 0c-0.42,0 -0.74,0.38 -0.74,0.88l0 0.33c0,0.03 0.02,0.04 0.04,0.04l0.53 0c0.02,0 0.04,-0.01 0.04,-0.04l0 -0.34c0,-0.14 0.12,-0.26 0.26,-0.26z"/>
     </g>
    </g>
    <g>
     <path class="fil4" d="M5.54 6.42l-0.83 0c-0.09,0 -0.17,-0.08 -0.17,-0.17l0 -1.19c0,-0.09 0.08,-0.17 0.17,-0.17l0.83 0c0.1,0 0.17,0.08 0.17,0.17l0 1.19c0,0.1 -0.07,0.17 -0.17,0.17z"/>
     <path class="fil1" d="M5.54 6.54l-0.83 0c-0.16,0 -0.28,-0.13 -0.28,-0.29l0 -1.19c0,-0.15 0.12,-0.28 0.28,-0.28l0.83 0c0.16,0 0.29,0.13 0.29,0.28l0 1.19c0,0.16 -0.13,0.29 -0.29,0.29zm-0.83 -1.54c-0.03,0 -0.06,0.03 -0.06,0.06l0 1.19c0,0.03 0.03,0.06 0.06,0.06l0.83 0c0.03,0 0.06,-0.03 0.06,-0.06l0 -1.19c0,-0.03 -0.03,-0.06 -0.06,-0.06l-0.83 0z"/>
    </g>
    <g>
     <path class="fil1" d="M9.75 3.85c-0.03,0 -0.05,-0.02 -0.05,-0.05l0 -1.66c0,-0.08 -0.07,-0.14 -0.14,-0.14l-0.66 0c-0.03,0 -0.05,-0.03 -0.05,-0.06 0,-0.03 0.02,-0.05 0.05,-0.05l0.66 0c0.14,0 0.25,0.11 0.25,0.25l0 1.66c0,0.03 -0.03,0.05 -0.06,0.05z"/>
    </g>
    <g>
     <path class="fil1" d="M9.6 8.13l-1.09 0c-0.03,0 -0.06,-0.03 -0.06,-0.06 0,-0.03 0.03,-0.05 0.06,-0.05l1.09 0c0.05,0 0.1,-0.05 0.1,-0.1l0 -2.77c0,-0.03 0.02,-0.06 0.05,-0.06 0.03,0 0.06,0.03 0.06,0.06l0 2.77c0,0.12 -0.09,0.21 -0.21,0.21z"/>
    </g>
    <g>
     <path class="fil1" d="M8.12 8.13l-2.76 0c-0.03,0 -0.05,-0.03 -0.05,-0.06 0,-0.03 0.02,-0.05 0.05,-0.05l2.76 0c0.03,0 0.06,0.02 0.06,0.05 0,0.03 -0.03,0.06 -0.06,0.06z"/>
    </g>
    <g>
     <path class="fil1" d="M4.81 8.13l-2.81 0c-0.04,0 -0.06,-0.03 -0.06,-0.06 0,-0.03 0.02,-0.05 0.06,-0.05l2.81 0c0.03,0 0.05,0.02 0.05,0.05 0,0.03 -0.02,0.06 -0.05,0.06z"/>
    </g>
    <g>
     <path class="fil1" d="M6.25 5.29c-0.03,0 -0.05,-0.02 -0.06,-0.05 0,-0.03 0.02,-0.06 0.05,-0.06 1.69,-0.19 3.13,-0.95 3.15,-0.95 0.02,-0.02 0.06,-0.01 0.07,0.02 0.02,0.03 0.01,0.06 -0.02,0.08 -0.01,0 -1.48,0.77 -3.18,0.96 -0.01,0 -0.01,0 -0.01,0z"/>
    </g>
    <g>
     <path class="fil1" d="M5.35 6.2l-0.34 0c-0.04,0 -0.06,-0.03 -0.06,-0.06 0,-0.03 0.02,-0.06 0.06,-0.06l0.34 0c0.01,0 0.01,0 0.01,-0.01l0 -0.81c0,-0.04 0.03,-0.06 0.06,-0.06 0.03,0 0.06,0.02 0.06,0.06l0 0.81c0,0.07 -0.06,0.13 -0.13,0.13z"/>
    </g>
    <g>
     <path class="fil1" d="M6.83 1.36c-0.03,0 -0.06,-0.02 -0.06,-0.05l0 -0.3c0,-0.32 -0.26,-0.58 -0.59,-0.58l-0.66 0c-0.03,0 -0.06,-0.03 -0.06,-0.06 0,-0.03 0.03,-0.06 0.06,-0.06l0.66 0c0.39,0 0.71,0.32 0.71,0.7l0 0.3c0,0.03 -0.03,0.05 -0.06,0.05z"/>
    </g>
    <g>
     <path class="fil1" d="M7.92 2l-6.76 0c-0.03,0 -0.06,-0.02 -0.06,-0.05 0,-0.04 0.03,-0.06 0.06,-0.06l6.76 0c0.04,0 0.06,0.02 0.06,0.06 0,0.03 -0.03,0.05 -0.06,0.05z"/>
    </g>
   </g>
  </g>
 </g>
</svg>
