<?xml version="1.0" encoding="UTF-8"?>
<!DOCTYPE svg PUBLIC "-//W3C//DTD SVG 1.1//EN" "http://www.w3.org/Graphics/SVG/1.1/DTD/svg11.dtd">
<!-- Creator: CorelDRAW 2018 (64-Bit) -->
<svg xmlns="http://www.w3.org/2000/svg" xml:space="preserve" width="30px" height="30px" version="1.1" style="shape-rendering:geometricPrecision; text-rendering:geometricPrecision; image-rendering:optimizeQuality; fill-rule:evenodd; clip-rule:evenodd"
viewBox="0 0 3.19 3.19"
 xmlns:xlink="http://www.w3.org/1999/xlink">
 <defs>
  <style type="text/css">
   <![CDATA[
    .fil0 {fill:#29B6F6}
    .fil2 {fill:#B0BEC5}
    .fil3 {fill:#CFD8DC}
    .fil1 {fill:white}
   ]]>
  </style>
 </defs>
 <g id="Слой_x0020_1">
  <metadata id="CorelCorpID_0Corel-Layer"/>
  <g id="_1643377163296">
   <path class="fil0" d="M1.6 0c-0.89,0 -1.6,0.71 -1.6,1.6 0,0.88 0.71,1.59 1.6,1.59 0.88,0 1.59,-0.71 1.59,-1.59 0,-0.89 -0.71,-1.6 -1.59,-1.6z"/>
   <path class="fil1" d="M2.39 0.88l-0.3 1.52c0,0 -0.01,0.07 -0.1,0.07 -0.04,0 -0.07,-0.02 -0.07,-0.02l-0.65 -0.53 -0.31 -0.16 -0.41 -0.11c0,0 -0.07,-0.02 -0.07,-0.08 0,-0.05 0.07,-0.08 0.07,-0.08l1.7 -0.67c0,0 0.06,-0.02 0.09,-0.02 0.03,0 0.05,0.01 0.05,0.04 0,0.02 0,0.04 0,0.04z"/>
   <path class="fil2" d="M1.52 2.12l-0.28 0.26c0,0 -0.01,0.01 -0.02,0.01 -0.01,0 -0.02,0 -0.02,0l0.07 -0.48 0.25 0.21z"/>
   <path class="fil3" d="M2.07 1.13c-0.02,-0.01 -0.04,-0.02 -0.06,0l-1.05 0.63c0,0 0.17,0.47 0.19,0.55 0.03,0.08 0.05,0.08 0.05,0.08l0.07 -0.48 0.79 -0.72c0.02,-0.01 0.02,-0.04 0.01,-0.06z"/>
  </g>
 </g>
</svg>
