<?xml version="1.0" encoding="UTF-8"?>
<!DOCTYPE svg PUBLIC "-//W3C//DTD SVG 1.1//EN" "http://www.w3.org/Graphics/SVG/1.1/DTD/svg11.dtd">
<!-- Creator: CorelDRAW 2018 (64-Bit) -->
<svg xmlns="http://www.w3.org/2000/svg" xml:space="preserve" width="32px" height="34px" version="1.1" style="shape-rendering:geometricPrecision; text-rendering:geometricPrecision; image-rendering:optimizeQuality; fill-rule:evenodd; clip-rule:evenodd"
viewBox="0 0 2.04 2.14"
 xmlns:xlink="http://www.w3.org/1999/xlink">
 <defs>
  <style type="text/css">
   <![CDATA[
    .fil0 {fill:url(#id0)}
    .fil1 {fill:url(#id1)}
   ]]>
  </style>
  <linearGradient id="id0" gradientUnits="userSpaceOnUse" x1="0.51" y1="-0.46" x2="1.53" y2="2.39">
   <stop offset="0" style="stop-opacity:1; stop-color:#FCFCFC"/>
   <stop offset="0.490196" style="stop-opacity:1; stop-color:#F4F4F4"/>
   <stop offset="0.94902" style="stop-opacity:1; stop-color:#E8E8E8"/>
   <stop offset="1" style="stop-opacity:1; stop-color:#E8E8E8"/>
  </linearGradient>
  <linearGradient id="id1" gradientUnits="userSpaceOnUse" x1="1.93" y1="2.24" x2="-0.1" y2="-0.56">
   <stop offset="0" style="stop-opacity:1; stop-color:#912FBD"/>
   <stop offset="1" style="stop-opacity:1; stop-color:#9332BF"/>
  </linearGradient>
 </defs>
 <g id="Слой_x0020_1">
  <metadata id="CorelCorpID_0Corel-Layer"/>
  <g id="_1643518177344">
   <path class="fil0" d="M1.02 0.05c-0.14,0 -0.55,0 -0.77,0.21 -0.14,0.13 -0.2,0.33 -0.2,0.61l0 0.15c0,0.28 0.06,0.47 0.2,0.61 0.07,0.06 0.16,0.11 0.27,0.14l0.04 0.01 0 0.28c0,0.03 0.01,0.03 0.01,0.03 0.01,0 0.02,-0.01 0.04,-0.02 0,-0.01 0.04,-0.04 0.2,-0.23l0.02 -0.01 0.02 0c0.05,0 0.11,0 0.17,0 0.13,0 0.54,0 0.77,-0.2 0.13,-0.14 0.2,-0.33 0.2,-0.61l0 -0.15c0,-0.28 -0.07,-0.48 -0.2,-0.61 -0.23,-0.21 -0.64,-0.21 -0.77,-0.21z"/>
   <path class="fil1" d="M1.5 1.27c-0.06,-0.05 -0.08,-0.07 -0.16,-0.11 -0.03,-0.02 -0.08,-0.04 -0.11,-0.04 -0.02,0 -0.04,0.01 -0.05,0.03 -0.04,0.03 -0.05,0.07 -0.1,0.07 -0.06,0 -0.16,-0.06 -0.23,-0.13 -0.08,-0.07 -0.14,-0.17 -0.14,-0.23 0,-0.06 0.04,-0.07 0.08,-0.1 0.01,-0.02 0.02,-0.04 0.02,-0.06 0,-0.02 -0.01,-0.07 -0.03,-0.1 -0.05,-0.08 -0.06,-0.11 -0.11,-0.16 -0.02,-0.02 -0.04,-0.03 -0.05,-0.03 -0.04,0 -0.08,0.01 -0.11,0.03 -0.04,0.04 -0.09,0.08 -0.1,0.14 0,0 0,0.01 0,0.02 -0.01,0.06 0.02,0.11 0.04,0.16 0.06,0.12 0.13,0.23 0.22,0.33 0.02,0.03 0.05,0.06 0.08,0.09 0.03,0.03 0.06,0.06 0.09,0.09 0.1,0.08 0.21,0.16 0.33,0.21 0.05,0.03 0.11,0.05 0.16,0.05 0.01,0 0.02,0 0.03,-0.01 0.05,-0.01 0.1,-0.05 0.13,-0.1 0.02,-0.03 0.04,-0.07 0.04,-0.1 0,-0.02 -0.01,-0.04 -0.03,-0.05zm0.03 -0.25c-0.03,0 -0.05,-0.02 -0.05,-0.05l0 -0.05c0,-0.26 -0.21,-0.46 -0.46,-0.46 -0.03,0 -0.05,-0.02 -0.05,-0.05 0,-0.03 0.02,-0.05 0.05,-0.05 0.31,0 0.56,0.25 0.56,0.56l0 0.05c0,0.03 -0.02,0.05 -0.05,0.05zm-0.32 -0.1c-0.02,0 -0.04,-0.02 -0.04,-0.04 -0.02,-0.06 -0.06,-0.1 -0.11,-0.11 -0.03,-0.01 -0.05,-0.04 -0.04,-0.06 0.01,-0.03 0.03,-0.05 0.06,-0.04 0.09,0.02 0.16,0.09 0.18,0.18 0.01,0.03 -0.01,0.06 -0.03,0.06 -0.01,0.01 -0.01,0.01 -0.02,0.01zm0.16 0.05c-0.02,0 -0.05,-0.03 -0.05,-0.05 0,-0.17 -0.12,-0.3 -0.29,-0.31 -0.02,0 -0.05,-0.02 -0.04,-0.05 0,-0.03 0.02,-0.05 0.05,-0.05 0.22,0.01 0.39,0.19 0.39,0.41 0,0.02 -0.03,0.05 -0.06,0.05zm-0.35 -0.97c-0.23,0 -0.59,0.02 -0.81,0.22 -0.15,0.15 -0.21,0.37 -0.21,0.65 0,0.02 0,0.04 0,0.07 0,0.03 0,0.05 0,0.08 0,0.28 0.06,0.49 0.21,0.64 0.09,0.08 0.19,0.13 0.3,0.16l0 0.24c0,0.08 0.05,0.08 0.06,0.08l0 0c0.03,0 0.05,-0.01 0.07,-0.03 0.01,-0.01 0.1,-0.12 0.21,-0.23 0.06,0 0.12,0 0.17,0l0 0 0 0c0.23,0 0.58,-0.02 0.8,-0.22 0.16,-0.15 0.22,-0.36 0.22,-0.64 0,-0.03 0,-0.05 0,-0.08 0,-0.03 0,-0.05 0,-0.07 0,-0.28 -0.06,-0.5 -0.22,-0.65 -0.22,-0.2 -0.57,-0.22 -0.8,-0.22zm0.86 1l0 0.02c0,0.25 -0.05,0.42 -0.16,0.53 -0.2,0.18 -0.58,0.18 -0.7,0.18 -0.04,0 -0.1,0 -0.17,0 -0.02,0.02 -0.24,0.26 -0.24,0.26l0 -0.3c-0.11,-0.02 -0.21,-0.07 -0.29,-0.14 -0.11,-0.11 -0.17,-0.28 -0.17,-0.53l0 -0.02c0,-0.02 0,-0.04 0,-0.06 0,-0.02 0,-0.04 0,-0.06l0 -0.01c0,-0.25 0.06,-0.42 0.17,-0.54 0.2,-0.18 0.57,-0.18 0.7,-0.18 0.12,0 0.5,0 0.7,0.18 0.11,0.12 0.16,0.29 0.16,0.54l0 0.01c0,0.02 0,0.04 0,0.06 0,0.02 0,0.04 0,0.06z"/>
  </g>
 </g>
</svg>
