<?xml version="1.0" encoding="UTF-8"?>
<!DOCTYPE svg PUBLIC "-//W3C//DTD SVG 1.1//EN" "http://www.w3.org/Graphics/SVG/1.1/DTD/svg11.dtd">
<!-- Creator: CorelDRAW 2018 (64-Bit) -->
<svg xmlns="http://www.w3.org/2000/svg" xml:space="preserve" width="32px" height="32px" version="1.1" style="shape-rendering:geometricPrecision; text-rendering:geometricPrecision; image-rendering:optimizeQuality; fill-rule:evenodd; clip-rule:evenodd"
viewBox="0 0 2.51 2.52"
 xmlns:xlink="http://www.w3.org/1999/xlink">
 <defs>
  <style type="text/css">
   <![CDATA[
    .fil2 {fill:#40C351}
    .fil1 {fill:#CFD8DC}
    .fil0 {fill:white}
   ]]>
  </style>
 </defs>
 <g id="Слой_x0020_1">
  <metadata id="CorelCorpID_0Corel-Layer"/>
  <g id="_1643368562368">
   <path class="fil0" d="M0.06 2.46l0.17 -0.62c-0.1,-0.18 -0.16,-0.38 -0.16,-0.59 0,-0.66 0.54,-1.19 1.19,-1.19 0.32,0 0.61,0.13 0.84,0.35 0.22,0.22 0.35,0.52 0.35,0.84 0,0.65 -0.54,1.19 -1.19,1.19 0,0 0,0 0,0l0 0c-0.2,0 -0.4,-0.05 -0.57,-0.15l-0.63 0.17z"/>
   <path class="fil0" d="M0.06 2.49c-0.01,0 -0.01,-0.01 -0.02,-0.01 -0.01,-0.01 -0.01,-0.02 -0.01,-0.03l0.17 -0.6c-0.1,-0.19 -0.16,-0.39 -0.16,-0.6 0,-0.67 0.55,-1.22 1.22,-1.22 0.32,0 0.63,0.13 0.86,0.36 0.23,0.23 0.36,0.53 0.36,0.86 0,0.67 -0.55,1.22 -1.22,1.22 -0.2,0 -0.4,-0.05 -0.57,-0.15l-0.62 0.17c0,0 0,0 -0.01,0z"/>
   <g>
    <path class="fil1" d="M1.26 0.06c0.32,0 0.61,0.13 0.84,0.35 0.22,0.22 0.35,0.52 0.35,0.84 0,0.65 -0.54,1.19 -1.19,1.19l0 0c-0.2,0 -0.4,-0.05 -0.57,-0.15l-0.63 0.17 0.17 -0.62c-0.1,-0.18 -0.16,-0.38 -0.16,-0.59 0,-0.66 0.54,-1.19 1.19,-1.19l0 0zm0 2.38c0,0 0,0 0,0 0,0 0,0 0,0l0 0zm0 0c0,0 0,0 0,0 0,0 0,0 0,0l0 0zm0 -2.44c0,0 0,0 0,0 -0.69,0 -1.25,0.56 -1.25,1.25 0,0.21 0.05,0.42 0.15,0.6l-0.16 0.59c0,0.02 0,0.04 0.02,0.06 0.01,0.01 0.03,0.02 0.04,0.02 0.01,0 0.01,0 0.02,0l0.6 -0.16c0.18,0.09 0.38,0.14 0.58,0.14 0.69,0 1.25,-0.56 1.25,-1.25 0,-0.33 -0.13,-0.65 -0.37,-0.88 -0.23,-0.24 -0.55,-0.37 -0.88,-0.37l0 0z"/>
   </g>
   <path class="fil2" d="M1.96 0.55c-0.19,-0.18 -0.44,-0.29 -0.7,-0.29 -0.54,0 -0.99,0.45 -0.99,0.99 0,0.18 0.05,0.37 0.15,0.52l0.03 0.04 -0.1 0.36 0.37 -0.09 0.04 0.02c0.15,0.09 0.32,0.14 0.5,0.14l0 0c0.54,0 0.99,-0.45 0.99,-0.99 0,-0.26 -0.11,-0.51 -0.29,-0.7z"/>
   <path class="fil0" d="M0.96 0.75c-0.02,-0.05 -0.04,-0.05 -0.06,-0.05 -0.02,0 -0.04,0 -0.06,0 -0.02,0 -0.05,0.01 -0.08,0.04 -0.03,0.03 -0.1,0.1 -0.1,0.25 0,0.14 0.1,0.28 0.12,0.3 0.01,0.02 0.2,0.33 0.5,0.45 0.25,0.1 0.31,0.08 0.36,0.07 0.05,0 0.17,-0.07 0.2,-0.14 0.02,-0.07 0.02,-0.13 0.02,-0.14 -0.01,-0.01 -0.03,-0.02 -0.06,-0.03 -0.03,-0.02 -0.18,-0.09 -0.2,-0.1 -0.03,-0.01 -0.05,-0.01 -0.07,0.02 -0.02,0.03 -0.08,0.09 -0.09,0.11 -0.02,0.02 -0.04,0.02 -0.07,0.01 -0.03,-0.02 -0.12,-0.05 -0.24,-0.15 -0.08,-0.08 -0.14,-0.17 -0.16,-0.2 -0.02,-0.03 0,-0.05 0.01,-0.06 0.02,-0.02 0.03,-0.04 0.05,-0.06 0.01,-0.01 0.02,-0.03 0.03,-0.05 0.01,-0.01 0,-0.03 -0.01,-0.05 0,-0.01 -0.06,-0.16 -0.09,-0.22z"/>
  </g>
 </g>
</svg>
