<?xml version="1.0" encoding="UTF-8"?>
<!DOCTYPE svg PUBLIC "-//W3C//DTD SVG 1.1//EN" "http://www.w3.org/Graphics/SVG/1.1/DTD/svg11.dtd">
<!-- Creator: CorelDRAW 2018 (64-Bit) -->
<svg xmlns="http://www.w3.org/2000/svg" xml:space="preserve" width="140px" height="115px" version="1.1" style="shape-rendering:geometricPrecision; text-rendering:geometricPrecision; image-rendering:optimizeQuality; fill-rule:evenodd; clip-rule:evenodd"
viewBox="0 0 194 160.02"
 xmlns:xlink="http://www.w3.org/1999/xlink">
 <defs>
  <style type="text/css">
   <![CDATA[
    .fil0 {fill:#005A9F}
    .fil1 {fill:#0089C7}
    .fil2 {fill:#00AFE7}
   ]]>
  </style>
 </defs>
 <g id="Слой_x0020_1">
  <metadata id="CorelCorpID_0Corel-Layer"/>
  <g id="_2535728898816">
   <path class="fil0" d="M47.45 8.99l27.18 26.72c0,-13.93 -2.27,-11.59 10.14,-11.59 8.86,0 31.67,-3.23 32.7,10.6 0.28,3.72 0.14,6.99 -1.21,9.38 -1.8,3.2 -4.71,4 -5.7,5.36 2.75,0.64 4.38,1.76 6.13,3.55 1.03,1.06 1.21,1.27 1.85,2.75 0.53,1.22 1.08,2.44 1.31,3.78l-0.19 7.49c-0.72,2.89 -1,3.71 -3.22,6.38 1.37,2.39 9.53,9.88 12.09,12.44 2.18,2.19 4.03,4.03 6.22,6.22 1.96,1.96 4.49,4.21 6.1,6.22 2.88,-0.69 4.62,-4.97 5.49,-7.52 1.4,-4.09 0.62,-57.34 0.62,-65.73 0,-4.18 0.45,-9.5 -0.44,-12.92 -0.25,-0.94 -0.42,-1.49 -0.79,-2.44l-2.05 -3.47c-0.09,-0.1 -0.38,-0.36 -0.48,-0.45 -7.73,-7.26 -13.19,-5.6 -24.34,-5.6 -6.89,0 -57.05,-0.38 -59.62,0.28 -1.59,0.41 -3.91,1.04 -5.2,1.7 -2.96,1.52 -5.19,3.95 -6.59,6.85z"/>
   <path class="fil1" d="M140.85 98.29c-1.61,-2.01 -4.14,-4.26 -6.1,-6.22 -2.19,-2.19 -4.04,-4.03 -6.22,-6.22 -2.56,-2.56 -10.72,-10.05 -12.09,-12.44 -2.01,1.61 -4.23,3.24 -6.88,4.06 -6.94,2.15 -25.48,1.8 -32.68,1.52 -3.22,-0.12 -2.25,-0.78 -2.25,-8.8l0 -34.48 -27.18 -26.72c-1.09,1.11 -1.15,2.53 -1.51,4.4 -0.7,3.52 -0.33,58.64 -0.33,65.55 0,9.55 -0.79,14.19 6.85,20.33 0.07,0.06 0.17,0.15 0.25,0.21 0.13,0.09 0.4,0.29 0.54,0.38 1.55,0.94 4.27,1.64 6.16,1.67 22.85,0.46 48.9,-0.16 72.35,-0.01 2.75,0.02 3.09,0.02 5.25,-0.74 1.99,-0.69 3.08,-0.98 3.84,-2.49z"/>
   <path class="fil2" d="M5.53 146.2l0 -8.29c10.9,0 14.28,-1.46 14.28,5.99 0,1.13 -1.34,2.42 -2.22,2.87 -1.89,0.97 -6.43,0.81 -8.4,0.83 -1.95,0.03 -3.66,0.48 -3.66,-1.4zm10.59 -12.44c-11.5,-2.68 -11.05,4.73 -11.05,-6.91 0,-2.27 3.63,-1.38 9.67,-1.38 2.09,0 2.4,0.98 3.69,1.84 0,6.14 -0.06,3.1 -2.31,6.45zm-16.12 18.43l16.12 0c1.69,0 -0.02,-0.1 1.98,-0.79 1.98,-0.69 2.3,-0.49 4.1,-1.89 0.38,-0.3 0.93,-0.75 1.25,-1.06 2.65,-2.49 2.2,-8.16 0.68,-10.26 -0.73,-1 -2.08,-1.82 -3.4,-2.13 0.13,-1.51 -0.08,-1.18 1.11,-2.57 5.41,-6.33 0.53,-12.63 -8.48,-12.63l-13.36 0 0 31.33z"/>
   <path class="fil0" d="M101.81 54.06l-17.04 0 0 16.59 17.5 0c9.02,0 11.7,-12.8 2.71,-16.1 -3.19,-1.17 -1.54,-0.49 -3.17,-0.49z"/>
   <path class="fil0" d="M181.97 132.84c2.8,0 3.1,-0.3 4.64,1.35 0.06,0.07 0.15,0.18 0.21,0.25l1.58 2.11c0.65,1.59 0.79,6.78 0.09,8.33 -2.67,5.93 -12.03,4.94 -12.02,-4.21 0,-1.22 0.62,-4.27 1.16,-5.26 0.75,-1.38 2.46,-2.57 4.34,-2.57zm-5.53 -1.38l0 -1.85 -4.61 0 0 30.41 5.07 0 0 -10.14 2.78 1.37c2.35,1.22 6.58,1.27 9.1,0.37 1.42,-0.5 1.63,-1.23 2.5,-2.56 7.77,-11.78 -2.69,-23.8 -11.48,-19.31 -2.02,1.03 -1.09,1.52 -3.36,1.71z"/>
   <path class="fil0" d="M84.77 46.69l16.12 0c8.23,0 8.73,-11.01 3.94,-13.62 -2.99,-1.63 -16.08,-1.12 -20.06,-1.12l0 14.74z"/>
   <path class="fil1" d="M155.71 148.5c-3.85,0 -8.76,-5.46 3.24,-6.98 2.53,-0.32 2.29,-0.72 2.29,3.3 0,2.08 -3.13,3.68 -5.53,3.68zm-8.29 -12.44l4.6 0c0.35,-1.49 0.39,-1.38 1.86,-2.29 2.13,-1.31 -0.65,-0.93 4.59,-0.93 2.21,0 1.43,0.73 3.23,1.38 0,5.76 -0.87,3.26 -7.51,4.89 -3.52,0.87 -7.69,1.26 -7.69,7.09 0,1.53 0.9,2.89 1.68,3.84 0.95,1.16 1.86,1.96 3.38,2.15 8.3,1.02 8.22,-1.84 9.22,-1.84 3.15,0 -0.49,1.84 6.45,1.84 1.74,0 1.38,-1.08 1.38,-3.69l-2.3 0c0,-2.33 0.44,-13.85 -0.19,-15.03l-2.57 -2.94c-3.86,-2.36 -9.06,-2.15 -12.91,0.01 -1.77,0.98 -2.33,1.49 -2.92,3.52 -0.32,1.1 -0.27,0.6 -0.3,2z"/>
   <path class="fil2" d="M46.07 140.67c0,10.41 -12.44,10.75 -12.44,-0.46 0,-9.08 12.44,-10.77 12.44,0.46zm-17.51 0c0,2.98 1.47,6.42 2.96,8.1l3.66 2.78c0.09,0.06 0.19,0.14 0.28,0.19 1.99,1.05 7.37,0.69 10.55,-0.99 0.1,-0.05 0.22,-0.11 0.31,-0.16 6.52,-3.72 5.91,-15.26 1.39,-18.93 -7.8,-6.34 -19.15,-1.29 -19.15,9.01z"/>
   <path class="fil2" d="M59.43 141.13c0,-6.72 4.72,-9.97 8.87,-7.49 0.68,0.4 1.6,1.05 2.08,1.6 2.56,2.93 2.37,13.26 -4.96,13.26 -3.51,0 -5.99,-3.78 -5.99,-7.37zm-5.07 -1.38c0,3.41 0.6,6.07 2.67,8.84 0.33,0.43 0.71,0.8 1.13,1.18 0.08,0.08 1.54,1.18 1.57,1.2 3.24,1.78 9.33,1.78 12.4,-0.36l4 -5.21c1.38,-4.69 0.57,-10.79 -1.87,-13.12 -4.21,-4.01 -10.61,-4.29 -15.24,-1.23 -2.4,1.59 -1.81,0.53 -3.34,4.03 -0.59,1.35 -1.32,2.65 -1.32,4.67z"/>
   <path class="fil1" d="M94.9 134.22c0,2.39 -0.05,4.54 2.7,6.05 0.06,0.04 0.79,0.36 0.96,0.43 0.54,0.22 1.29,0.49 2.02,0.74 3.24,1.08 4.97,0.43 7.5,2.17 1.24,0.85 -0.74,0.08 1.1,0.75l0 2.76c-2.5,0.9 0.35,1.38 -5.53,1.38 -3.38,0 -3.96,-0.93 -4.6,-3.68l-4.61 0c0,1.93 -0.13,1.66 0.62,3.06 1.47,2.72 1.66,2.7 3.83,3.54 11.84,4.61 22.67,-8.54 9.19,-12.41 -6.43,-1.85 -9.36,-0.36 -8.11,-5.71 4.18,-0.97 7.02,-1.22 8.29,2.3l5.07 0c-0.8,-9.52 -18.43,-7.73 -18.43,-1.38z"/>
   <path class="fil1" d="M82.46 124.09l0 5.52 -3.68 0c0,8.1 3.49,-0.06 3.74,5.94 0.16,4.1 -0.71,11.75 0.86,14.34l1.37 1.39c2.19,1.31 5.26,1.01 7.39,-0.01 0,-4.99 -0.76,-2.43 -3.62,-3.34 -1.92,-0.61 -0.53,-1.19 -0.53,-3.57l0 -11.06c4.23,0 4.15,0.36 4.15,-2.3 0,-2.05 -2.48,-1.39 -4.61,-1.39 0.56,-6.68 2.05,-6.91 -3.69,-6.91 -1.06,0 -1.38,0.33 -1.38,1.39z"/>
   <path class="fil1" d="M119.32 124.09l0 5.52 -3.69 0c0,8.1 3.5,-0.06 3.74,5.94 0.17,4.15 -0.64,10.71 0.84,13.9 1.64,3.55 6.29,2.56 8.77,2.2 0.03,-5.33 -0.08,-2.66 -4.14,-3.61 -0.96,-4.15 -0.46,-10.28 -0.46,-14.74 4.73,0 4.61,0.4 4.61,-2.3 0,-1.84 -1.3,-1.39 -4.61,-1.39l0 -6.91c-3.62,0 -5.06,-0.49 -5.06,1.39z"/>
   <path class="fil1" d="M136.82 131.92l0 -2.31 -4.6 0 0 21.2c0,1.74 1.07,1.38 3.68,1.38 3.1,0 0.28,-9.19 1.8,-14.33 0.53,-1.81 0.44,-1.33 1.74,-2.41 6.12,-5.08 6.13,2.23 6.13,-6.3 -5.87,-1.36 -4.7,2.68 -8.75,2.77z"/>
  </g>
 </g>
</svg>
