<?xml version="1.0" encoding="UTF-8"?>
<!DOCTYPE svg PUBLIC "-//W3C//DTD SVG 1.1//EN" "http://www.w3.org/Graphics/SVG/1.1/DTD/svg11.dtd">
<!-- Creator: CorelDRAW 2018 (64-Bit) -->
<svg xmlns="http://www.w3.org/2000/svg" xml:space="preserve" width="120px" height="140px" version="1.1" style="shape-rendering:geometricPrecision; text-rendering:geometricPrecision; image-rendering:optimizeQuality; fill-rule:evenodd; clip-rule:evenodd"
viewBox="0 0 303 353"
 xmlns:xlink="http://www.w3.org/1999/xlink">
 <defs>
  <style type="text/css">
   <![CDATA[
    .fil5 {fill:#00863F}
    .fil1 {fill:#008A5A}
    .fil2 {fill:#009550}
    .fil3 {fill:#00983E}
    .fil4 {fill:#009A37}
    .fil6 {fill:#06CBF6}
    .fil9 {fill:#1E120D}
    .fil0 {fill:#2AC64B}
    .fil8 {fill:#666565}
    .fil13 {fill:#97CC1A}
    .fil14 {fill:url(#id0)}
    .fil19 {fill:url(#id1)}
    .fil16 {fill:url(#id2)}
    .fil15 {fill:url(#id3)}
    .fil17 {fill:url(#id4)}
    .fil7 {fill:url(#id5)}
    .fil11 {fill:url(#id6)}
    .fil10 {fill:url(#id7)}
    .fil18 {fill:url(#id8)}
    .fil12 {fill:url(#id9)}
   ]]>
  </style>
  <linearGradient id="id0" gradientUnits="userSpaceOnUse" x1="192" y1="129" x2="152" y2="173">
   <stop offset="0" style="stop-opacity:1; stop-color:#ADD816"/>
   <stop offset="1" style="stop-opacity:1; stop-color:#DBD704"/>
  </linearGradient>
  <linearGradient id="id1" gradientUnits="userSpaceOnUse" x1="134" y1="233" x2="100" y2="175">
   <stop offset="0" style="stop-opacity:1; stop-color:#E1282B"/>
   <stop offset="0.388235" style="stop-opacity:1; stop-color:#E3402A"/>
   <stop offset="0.701961" style="stop-opacity:1; stop-color:#E76226"/>
   <stop offset="1" style="stop-opacity:1; stop-color:#F19A0A"/>
  </linearGradient>
  <linearGradient id="id2" gradientUnits="userSpaceOnUse" xlink:href="#id1" x1="166" y1="214" x2="131" y2="156">
  </linearGradient>
  <linearGradient id="id3" gradientUnits="userSpaceOnUse" xlink:href="#id1" x1="163" y1="216" x2="129" y2="158">
  </linearGradient>
  <linearGradient id="id4" gradientUnits="userSpaceOnUse" xlink:href="#id1" x1="160" y1="218" x2="125" y2="160">
  </linearGradient>
  <linearGradient id="id5" gradientUnits="userSpaceOnUse" x1="104" y1="15" x2="216" y2="18">
   <stop offset="0" style="stop-opacity:1; stop-color:#0288F7"/>
   <stop offset="1" style="stop-opacity:1; stop-color:#2EE2BD"/>
  </linearGradient>
  <linearGradient id="id6" gradientUnits="userSpaceOnUse" x1="98" y1="185" x2="71" y2="117">
   <stop offset="0" style="stop-opacity:1; stop-color:#CB1918"/>
   <stop offset="0.388235" style="stop-opacity:1; stop-color:#A2183D"/>
   <stop offset="0.74902" style="stop-opacity:1; stop-color:#902869"/>
   <stop offset="1" style="stop-opacity:1; stop-color:#73358A"/>
  </linearGradient>
  <linearGradient id="id7" gradientUnits="userSpaceOnUse" xlink:href="#id6" x1="112" y1="180" x2="85" y2="111">
  </linearGradient>
  <linearGradient id="id8" gradientUnits="userSpaceOnUse" xlink:href="#id1" x1="141" y1="229" x2="107" y2="171">
  </linearGradient>
  <linearGradient id="id9" gradientUnits="userSpaceOnUse" xlink:href="#id6" x1="137" y1="170" x2="109" y2="101">
  </linearGradient>
 </defs>
 <g id="Слой_x0020_1">
  <metadata id="CorelCorpID_0Corel-Layer"/>
  <g id="_1953940716768">
   <g>
    <path class="fil0" d="M62 86c-3,-1 -6,-3 -8,-3 0,-3 -1,-7 -1,-10 0,-3 0,-6 0,-9 2,0 5,1 8,1 0,4 0,8 0,13 0,3 1,6 1,8l0 0zm31 18c-8,-6 -15,-10 -22,-14 -1,-8 -2,-16 -1,-24 6,1 13,3 21,5 -1,10 0,21 2,32l0 0zm81 4c0,1 0,2 0,3 -11,6 -22,13 -31,23 -3,3 -6,7 -9,10 -3,-4 -6,-7 -9,-11 -1,-2 -3,-3 -4,-5 -2,-17 -4,-33 -4,-48 19,7 40,16 58,28l0 0z"/>
    <path class="fil1" d="M64 49c-2,5 -3,10 -3,16 -3,-1 -6,-1 -8,-1 0,-2 1,-3 1,-5 2,-3 6,-6 10,-10l0 0z"/>
    <path class="fil2" d="M102 28c-6,10 -10,24 -11,43 0,0 0,1 0,1 -8,-2 -15,-4 -21,-5 0,0 0,-1 0,-1 1,-10 4,-19 8,-27 7,-4 15,-8 24,-12z"/>
    <path class="fil3" d="M174 109c-18,-12 -39,-22 -58,-28 0,-18 1,-35 5,-49 0,0 0,-1 0,-1 15,9 35,19 54,23 2,17 1,36 -1,55l0 0z"/>
    <path class="fil4" d="M238 73c0,8 -2,15 -3,23 -2,0 -5,0 -7,0 1,-6 2,-12 3,-18 2,-21 -5,-36 -13,-47 2,1 4,1 6,2 9,11 15,25 14,40zm-19 25c-6,1 -13,2 -20,4 2,-10 2,-21 2,-30 -1,-22 -7,-37 -14,-48 6,1 13,2 18,4 9,11 15,24 17,39 1,10 0,20 -2,31l0 0z"/>
    <path class="fil5" d="M175 54c-19,-4 -39,-14 -54,-23 1,-3 2,-5 3,-8 3,0 6,-1 9,-1 12,-1 24,-1 35,0 1,3 3,6 4,10 2,7 3,14 4,22l0 0z"/>
    <path class="fil6" d="M93 11c-1,0 -21,13 -29,38 -4,4 -8,7 -10,10 6,-24 27,-43 39,-48l0 0zm13 10c-2,2 -3,5 -4,7 -9,3 -17,7 -24,12 5,-10 12,-18 21,-24 2,1 5,3 8,5l0 0z"/>
    <path class="fil7" d="M224 32c-2,-1 -4,-1 -6,-2 -9,-13 -20,-19 -20,-19 7,3 18,10 26,21zm-19 -5c-6,-1 -12,-3 -18,-4 -12,-18 -26,-23 -27,-24 16,3 33,13 45,27zm-38 -6c-11,-1 -23,-1 -35,0 -3,0 -6,1 -9,1 8,-20 22,-23 22,-23l0 0c0,0 13,3 21,21zm-36 -21c-1,0 -14,5 -25,21 -3,-2 -6,-4 -8,-5 10,-8 22,-13 33,-16l0 0z"/>
    <polygon class="fil8" points="145,256 159,256 165,233 126,233 131,256 "/>
    <path class="fil9" d="M298 278l1 0c0,0 1,0 1,0 0,0 0,0 0,-1 0,0 0,0 0,0 0,0 0,0 0,0 0,0 0,0 -1,0l-1 0 0 1zm-1 3l0 -4 2 0c1,0 1,0 1,0 0,0 0,0 1,0 0,0 0,0 0,1 0,0 0,1 0,1 0,0 -1,0 -1,0 0,0 0,0 0,0 0,0 0,0 1,1l1 1 -1 0 0 -1c0,-1 -1,-1 -1,-1 0,0 0,0 -1,0l0 0 0 2 -1 0zm2 -6c-1,0 -1,0 -2,0 -1,0 -1,1 -1,1 0,1 0,1 0,2 0,1 0,1 0,2 0,1 1,1 1,1 1,0 1,0 2,0 1,0 1,0 2,0 1,0 1,-1 1,-1 0,-1 0,-1 0,-2 0,-1 0,-1 0,-2 0,-1 -1,-1 -1,-1 -1,0 -1,0 -2,0l0 0zm0 -1c1,0 1,0 2,1 1,0 1,1 2,2 0,1 1,1 1,2 0,1 0,1 -1,2 0,1 -1,1 -2,2 -1,0 -1,1 -2,1 -1,0 -1,0 -2,-1 -1,0 -1,-1 -2,-2 0,-1 -1,-1 -1,-2 0,-1 0,-1 1,-2 0,-1 1,-1 2,-2 1,0 1,-1 2,-1l0 0zm-48 42l9 0 7 -33 8 33 9 0 8 -42 -7 0 -5 34 -1 0 -8 -34 -6 0 -8 34 -1 0 -6 -34 -7 0 8 42zm-17 -17l-5 -19 -1 0 -5 19 12 0zm1 5l-15 0 -3 12 -7 0 14 -42 9 0 14 42 -8 0 -3 -12zm-51 -11l9 0c4,0 7,-3 7,-7l0 0c0,-4 -3,-7 -7,-7l-9 0 0 14zm16 22l-10 -17 -6 0 0 17 -7 0 0 -42 18 0c7,0 12,6 12,12l0 0c0,6 -4,10 -9,12l10 17 -8 0zm-36 -23l0 4c0,8 -6,14 -14,14l-4 0 0 -31 4 0c8,0 14,6 14,14zm-12 -19l-13 0 0 42 13 0c10,0 19,-8 19,-19l0 -5c0,-10 -8,-19 -19,-19zm-19 37l-1 0c-1,0 -2,-1 -2,-2l0 -35 -7 0 0 35c0,11 11,7 11,7l-1 -5zm-22 -14l-15 0c0,0 1,-8 7,-8 6,0 7,5 7,8zm-21 3c0,11 7,15 13,16 6,1 13,-3 13,-3 0,0 -1,-3 -3,-4 -1,1 -6,4 -11,2 -5,-3 -6,-9 -6,-9l21 0c1,-14 -6,-18 -13,-18 -6,0 -14,5 -14,17l0 0zm-2 -10c0,0 1,-2 1,-6 -7,-3 -13,7 -13,7l0 -7 -6 0 0 32 7 0 0 -19c5,-9 11,-7 11,-7zm-29 10c0,6 -4,11 -8,11 -5,0 -8,-5 -8,-11 0,-6 4,-11 8,-11 5,0 8,5 8,11zm-8 -16c-8,0 -15,7 -15,16 0,9 7,16 15,16 8,0 15,-7 15,-16 0,-9 -7,-16 -15,-16zm-17 27c-3,4 -8,6 -13,6 -11,0 -19,-10 -19,-22 0,-12 9,-22 19,-22 5,0 9,2 12,5l-4 5c-2,-2 -5,-4 -8,-4 -7,0 -13,7 -13,16 0,9 6,16 13,16 3,0 6,-2 9,-4l4 4z"/>
    <path class="fil9" d="M13 339c0,-9 5,-14 12,-14 4,0 6,2 7,3l-2 2c-1,-1 -3,-3 -5,-3 -5,0 -8,4 -8,11 0,7 3,11 8,11 2,0 4,-1 5,-2l0 -7 -5 0 0 -3 8 0 0 11c-2,2 -4,3 -8,3l0 0c-7,0 -11,-5 -11,-14l0 0zm33 1l3 -2 8 14 -4 0 -7 -12zm0 -2c4,0 6,-2 6,-5 0,-4 -2,-5 -6,-5l-4 0 0 10 4 0zm-7 -13l8 0c5,0 9,2 9,8 0,5 -4,8 -9,8l-5 0 0 11 -3 0 0 -27zm23 16l12 0 0 3 -12 0 0 -3zm4 -16l4 0 9 27 -3 0 -4 -15c-1,-3 -2,-6 -3,-9l0 0c-1,3 -2,6 -3,9l-4 15 -3 0 9 -27zm23 13c4,0 7,-2 7,-5 0,-4 -2,-5 -7,-5l-4 0 0 11 4 0zm-7 -13l7 0c6,0 10,2 10,8 0,6 -4,8 -9,8l-4 0 0 11 -3 0 0 -27zm22 0l3 0 0 11 12 0 0 -11 3 0 0 27 -3 0 0 -13 -12 0 0 13 -3 0 0 -27zm25 0l3 0 0 27 -3 0 0 -27zm9 13c0,-9 5,-14 11,-14 3,0 6,2 7,3l-2 2c-1,-2 -3,-3 -5,-3 -5,0 -8,4 -8,11 0,7 3,11 8,11 2,0 4,-1 6,-3l2 2c-2,2 -4,4 -8,4l0 0c-6,0 -11,-5 -11,-14zm21 10l2 -2c2,2 4,3 7,3 3,0 5,-2 5,-4 0,-3 -2,-4 -4,-5l-4 -2c-2,-1 -5,-3 -5,-7 0,-4 3,-7 8,-7 3,0 6,1 7,3l-2 2c-2,-2 -3,-3 -6,-3 -3,0 -5,2 -5,4 0,3 2,4 4,4l4 2c3,1 5,3 5,7 0,4 -3,8 -9,8l0 0c-4,0 -7,-2 -9,-4l0 0zm28 0l2 -2c2,2 4,3 7,3 3,0 5,-2 5,-4 0,-3 -2,-4 -4,-5l-4 -2c-2,-1 -5,-3 -5,-7 0,-4 3,-7 8,-7 3,0 6,1 7,3l-2 2c-2,-2 -3,-3 -6,-3 -3,0 -5,2 -5,4 0,3 2,4 4,4l4 2c3,1 5,3 5,7 0,4 -3,8 -9,8l0 0c-4,0 -7,-2 -9,-4zm22 -8l0 -16 3 0 0 16c0,6 3,8 6,8 3,0 6,-2 6,-8l0 -16 3 0 0 16c0,9 -4,12 -9,12 -5,0 -9,-3 -9,-12zm25 -16l3 0 0 27 -3 0 0 -27zm15 3l-8 0 0 -3 19 0 0 3 -8 0 0 24 -3 0 0 -24zm15 -3l15 0 0 3 -11 0 0 8 10 0 0 3 -10 0 0 10 12 0 0 3 -15 0 0 -27z"/>
   </g>
   <path class="fil10" d="M93 155c3,6 5,11 7,15 4,7 7,13 11,19 1,-4 2,-8 4,-12 -3,-7 -6,-14 -9,-21 -6,-16 -11,-34 -14,-51 -8,-6 -15,-10 -22,-14 4,23 13,46 22,64l0 0z"/>
   <path class="fil11" d="M80 155c2,3 3,5 5,8 8,13 17,24 24,34 0,-1 1,-2 1,-4 -3,-4 -6,-9 -9,-13 -4,-6 -9,-14 -15,-25 -10,-18 -21,-42 -24,-68 -3,-1 -6,-3 -8,-3 3,24 12,47 26,72l0 0z"/>
   <path class="fil12" d="M121 138c1,6 2,12 3,18 0,1 0,1 0,2 3,-4 5,-8 9,-12 -3,-4 -6,-8 -9,-11 -1,-2 -3,-3 -4,-5 0,3 1,6 1,9l0 0z"/>
   <path class="fil13" d="M228 96c-4,17 -10,33 -16,47 1,1 3,3 4,4 10,-18 16,-35 20,-51 -2,0 -5,0 -7,0l0 0zm-29 5c-1,8 -3,17 -5,25 4,4 8,8 12,12 5,-13 10,-27 13,-41 -6,1 -13,2 -20,4z"/>
   <path class="fil14" d="M142 135c-3,3 -6,7 -9,10 11,14 20,28 26,39 2,-9 5,-18 7,-28 1,-6 3,-13 4,-19 1,-9 3,-18 4,-26 -11,6 -22,13 -31,23l0 0zm69 8c0,1 -1,1 -1,2 -8,15 -15,27 -20,35 -6,9 -14,19 -20,27 0,1 0,1 1,2 10,-10 24,-27 35,-46 3,-5 6,-9 8,-14 0,0 1,-1 1,-1 -1,-1 -3,-3 -4,-4l0 0zm-18 -17l0 1c-7,26 -18,52 -27,70 1,2 2,4 3,6 8,-10 15,-20 22,-33 4,-8 9,-18 14,-30l1 -2c-4,-4 -9,-8 -12,-12l0 0z"/>
   <path class="fil15" d="M153 220c6,-6 11,-12 16,-17 -1,-2 -2,-4 -3,-6 -6,13 -11,21 -13,23z"/>
   <path class="fil16" d="M160 220c0,0 5,-4 11,-11 0,-1 0,-1 -1,-2 -6,7 -10,12 -10,13l0 0z"/>
   <path class="fil17" d="M125 157c7,33 17,63 17,63l8 0c0,0 5,-15 10,-36 -6,-11 -15,-25 -26,-39 -3,4 -6,8 -9,12z"/>
   <path class="fil18" d="M111 188c8,11 16,21 27,32 -3,-3 -13,-20 -23,-44 -2,4 -3,8 -4,12z"/>
   <path class="fil19" d="M109 196c12,14 21,23 22,24 -1,-1 -11,-14 -21,-27 0,1 -1,2 -1,4z"/>
  </g>
 </g>
</svg>
