<?xml version="1.0" encoding="UTF-8"?>
<!DOCTYPE svg PUBLIC "-//W3C//DTD SVG 1.1//EN" "http://www.w3.org/Graphics/SVG/1.1/DTD/svg11.dtd">
<!-- Creator: CorelDRAW 2018 (64-Bit) -->
<svg xmlns="http://www.w3.org/2000/svg" xml:space="preserve" width="100px" height="141px" version="1.1" style="shape-rendering:geometricPrecision; text-rendering:geometricPrecision; image-rendering:optimizeQuality; fill-rule:evenodd; clip-rule:evenodd"
viewBox="0 0 1022.51 1442.92"
 xmlns:xlink="http://www.w3.org/1999/xlink">
 <defs>
  <style type="text/css">
   <![CDATA[
    .fil4 {fill:#141414}
    .fil0 {fill:#1673B6}
    .fil1 {fill:#34A9DB}
    .fil3 {fill:#EAEAEA}
    .fil2 {fill:white}
   ]]>
  </style>
 </defs>
 <g id="Слой_x0020_1">
  <metadata id="CorelCorpID_0Corel-Layer"/>
  <g id="_2535718759520">
   <path class="fil0" d="M92.03 1326.71l208.6 58.54c35.14,9.55 69.12,18.69 104.09,28.83l52.09 14.37c9.37,2.34 16.73,4.63 26.06,7.17 33.17,9.02 20.19,10.21 53.5,0.56 119.07,-34.52 245.05,-67.1 365.46,-101.06 7.87,-2.22 19.57,-6.48 27.38,-7.13l20.55 -227.41c0.73,-9.47 1.73,-22.42 3.19,-32.59l5.67 -64.64c1.21,-28.22 8.15,-73.38 8.93,-98.43 1.15,-36.69 9.88,-92.32 11.52,-130.36 1.08,-25.17 5.65,-56.57 7.57,-81.89l18.72 -211.35c0.77,-5.29 0.93,-12.35 1.46,-16.43l5.55 -66.03c1.92,-25.32 6.5,-56.71 7.58,-81.89 0.49,-11.39 2.56,-21.25 2.56,-33.22l-1022.51 0c0,18.94 9.68,108.33 11.41,130.47l10.23 113.74c0.49,6.45 1.04,11.3 1.33,16.57l4.07 48.32c0.45,4.2 0.74,11.16 1.43,16.47 5.24,40.1 6.65,95.47 11.69,130.19 5.35,36.82 6.54,89.03 11.89,129.98l5.49 66.09c1.36,27.49 7.68,68.53 8.91,97.17 1.63,37.82 9.81,90.36 11.53,130.35l14.05 163.61z"/>
   <polygon class="fil1" points="510.8,487.98 832.27,488 774.1,1139.89 512.47,1212.19 511.25,1212.61 511.25,1354.16 849.76,1260.49 929.22,369.03 511.25,368.98 "/>
   <path class="fil2" d="M511.8 615.97l180.52 0.01 -11.15 130.06c-1.91,2.66 2.86,1.29 -4.96,2.96 -0.11,0.02 -4.72,0.1 -5.14,0.1l-159.87 -0.11 0 123.98 120.2 0.01c10.47,0 33.61,-2 39.22,2.55 0.14,3.67 0.4,0.78 -0.43,4l-1.49 2.38 -14.88 159.18 -140.01 38.07c-4,7.24 -1.74,54.24 -1.74,66.06 0,20.03 -1.59,47.9 0.4,66.97l261.63 -72.3 58.17 -651.89 -321.47 -0.02c2.54,11.04 0.82,50.14 0.82,64.18 0,20.99 -0.59,43.02 0.18,63.81z"/>
   <path class="fil3" d="M511.25 1212.61l1.22 -0.42c-1.99,-19.07 -0.4,-46.94 -0.4,-66.97 0,-11.82 -2.26,-58.82 1.74,-66.06l-2.56 0.12c-29.08,-6.08 -89.64,-24.08 -124.36,-33.39 -3.18,-0.86 -6.13,-1.56 -9.1,-2.33 -1.76,-0.46 -7.55,-1.97 -8.35,-3.56l-9.59 -100.24c-7.28,-1.89 -112.45,-0.89 -128.48,-0.74l17.86 201.1 262.02 72.49z"/>
   <path class="fil3" d="M511.8 615.97c-0.77,-20.79 -0.18,-42.82 -0.18,-63.81 0,-14.04 1.72,-53.14 -0.82,-64.18l-319.68 0 11.35 127.54 309.33 0.45z"/>
   <polygon class="fil1" points="511.25,1079.28 513.81,1079.16 653.82,1041.09 668.7,881.91 669.08,875.11 511.25,875.06 "/>
   <path class="fil4" d="M407.73 43.46c0,3.27 29,33.5 32.28,36.74 4.53,4.48 6.47,7.83 10.84,12.16 4.79,4.77 6.59,6.87 10.94,12.07 6.35,7.6 27.11,27.59 32.85,36.17l-67.74 0c-24.06,-0.02 -19.17,-9.33 -19.17,51.12 0,2.95 0.89,3.84 3.83,3.84l178.94 0 0 -44.74c0,-3.2 -29.03,-33.53 -32.28,-36.74l-38.39 -42.13c-5.29,-6.32 -9.56,-8.29 -16.24,-18.27l83.08 0 0 -53.68 -178.94 0 0 43.46z"/>
   <path class="fil4" d="M622.46 43.46c0,4.68 27.54,31.4 32.26,36.75l54.65 60.39 -86.91 0 0 54.96 182.77 0c0,-56.69 3.76,-40.98 -10.53,-57.21l-54.98 -60.06c-4.33,-4.3 -20.47,-21.1 -21.4,-24.61l83.08 0 0 -53.68 -178.94 0 0 43.46z"/>
   <polygon class="fil4" points="217.28,195.56 374.5,195.56 374.5,139.32 283.75,139.32 283.75,56.24 374.5,56.24 374.5,0 217.28,0 "/>
   <path class="fil1" d="M511.25 746.97c27.96,-0.53 56.36,-0.07 84.36,-0.07 16.76,0 73.34,2.15 85.56,-0.86l11.15 -130.06 -180.52 -0.01 -0.55 131z"/>
   <path class="fil3" d="M511.25 875.06l157.83 0.05 -0.38 6.8 1.49 -2.38c0.83,-3.22 0.57,-0.33 0.43,-4 -5.61,-4.55 -28.75,-2.55 -39.22,-2.55l-120.2 -0.01 0 -123.98 159.87 0.11c0.42,0 5.03,-0.08 5.14,-0.1 7.82,-1.67 3.05,-0.3 4.96,-2.96 -12.22,3.01 -68.8,0.86 -85.56,0.86 -28,0 -56.4,-0.46 -84.36,0.07l-151.54 0.06c-0.88,6.21 9.32,120.77 11.36,127.98l140.18 0.05z"/>
  </g>
 </g>
</svg>
