<?xml version="1.0" encoding="UTF-8"?>
<!DOCTYPE svg PUBLIC "-//W3C//DTD SVG 1.1//EN" "http://www.w3.org/Graphics/SVG/1.1/DTD/svg11.dtd">
<!-- Creator: CorelDRAW 2018 (64-Bit) -->
<svg xmlns="http://www.w3.org/2000/svg" xml:space="preserve" width="63px" height="140px" version="1.1" style="shape-rendering:geometricPrecision; text-rendering:geometricPrecision; image-rendering:optimizeQuality; fill-rule:evenodd; clip-rule:evenodd"
viewBox="0 0 76.2 169.37"
 xmlns:xlink="http://www.w3.org/1999/xlink">
 <defs>
  <style type="text/css">
   <![CDATA[
    .fil0 {fill:#EB4A4B}
   ]]>
  </style>
 </defs>
 <g id="Слой_x0020_1">
  <metadata id="CorelCorpID_0Corel-Layer"/>
  <g id="_2536005780672">
   <path class="fil0" d="M4.66 86.85l0.66 0c0.21,-2.43 2.38,-6.32 3.43,-8.22 1.07,-1.92 3.37,-5.32 4.99,-6.66 1.77,-1.48 4.74,-3.94 7.78,-3.62 5.99,0.63 7.53,7.52 4.77,7.52 -1.88,0 -2.14,-4.33 -5.33,-4.33 -8.79,0 -20.4,34.29 -6.55,22.73 1.39,-1.15 1.03,-0.9 2.15,-2.18 1.47,-1.66 2.62,-2.68 3.37,-4.94 0.77,-2.31 1.13,-5.63 3.36,-5.63 2.93,0 -1.33,9.92 -2.29,13.02 -0.89,2.89 -2.54,10.61 -4.36,10.61 -2.91,0 1.1,-7.93 1.33,-10.65 -1.37,0.92 -5.37,5.99 -8.99,5.99 -1.43,0 -1.8,-0.39 -2.99,-0.67 0.13,1.57 2.29,25.83 2.93,26.69 2.25,3 19.46,5.26 24.69,5.26 9.21,0 13.56,0.25 22.93,-1.69 2.35,-0.48 7.03,-1.65 9.14,-2.84 1.33,-0.76 1.38,-1.04 1.55,-2.78l3.31 -29.63c-2.79,1.87 -4.84,5.33 -9.65,5.33 -6.45,0 2.11,-9.13 2.87,-10.12 2.89,-3.77 -1.72,-3.61 -5.68,1.65 -1.7,2.25 -2.35,3.86 -3.52,6.46 -1.6,3.58 -4.08,12.23 -6.1,12.5 -2.19,0.31 -1.8,-1.91 -1.22,-3.51 0.45,-1.25 0.99,-2.21 1.56,-3.43l3.11 -7.21c-0.53,0.14 -8.86,7.12 -9.32,1.66 -2,0.17 -2.72,2 -5.32,2 -0.8,0 -0.98,-0.54 -1.67,-1 0,-0.69 0.01,-1.33 0.04,-2.01 0,-0.09 0.03,-0.76 0.03,-0.79 -0.03,-1.46 -0.57,-0.42 -1.25,0.59 -1.23,1.84 -3.71,3.21 -6.14,3.21 -6.14,0 -0.54,-10.62 0.9,-14.09 0.36,-0.86 0.67,-1.55 1.43,-1.93 0.71,-0.34 2,-0.19 2,1.04 0,1.57 -6.09,11.32 -2.66,11.32 2.88,0 4.92,-3.51 6.13,-5.51 0.85,-1.4 1.27,-2.39 1.8,-3.86 0.6,-1.65 0.7,-3.11 2.71,-3.28 1.29,2.42 0.55,2.3 -1.14,6.51 -4.52,11.23 3.01,4.74 3.04,4.7 0.52,-0.63 0.5,-1.08 0.78,-1.88l8.3 -20.99c0.71,-1.17 3,-2.18 3,0.35 0,2.33 -8.98,19.31 -8.98,23.96 2.72,0 5.39,-2.57 7.24,-4.41 1.65,-1.64 1.48,-1.18 2.28,-3.71 0.42,-1.32 0.98,-3.53 2.45,-3.53 1.45,0 1,1.51 1,2.99 1.46,-0.97 4.36,-4.83 7.63,-3.65 5.18,1.86 -0.87,8.03 -2.83,10.45 -1.15,1.42 -1.44,1.1 -1.14,2.52 2.49,-0.21 5.31,-3.46 7.13,-4.85 2.73,-2.08 1.87,-2.93 2.58,-9.73 0.23,-2.24 0.63,-5.2 0.88,-7.44l3.06 -29.55c-1.46,0.33 -1.95,0.73 -3.52,1.14 -14.21,3.67 -54.66,3.93 -68.22,0.05 -1.44,-0.41 -2.42,-0.87 -3.8,-1.19l4.33 41.26z"/>
   <path class="fil0" d="M37.93 169.37c4.85,0 17.58,-0.86 20.64,-4.33 0.87,-0.99 0.67,-1.87 0.65,-3.67l1.43 -23.86c0.29,-1.14 4.13,-6.77 4.57,-8.41 -4.79,1.12 -5.95,2.14 -12.59,3.06 -2.09,0.29 -4.9,0.65 -7.09,0.89l-7.61 0.38c-8.09,0 -21.99,-1.79 -27.28,-4.33 0.11,1.38 2.51,4.94 3.56,6.76 1.45,2.53 0.84,1.13 1.34,4.98 0.37,2.88 0.15,4.95 0.47,7.85 0.28,2.58 0.93,14.4 1.36,15.6 1.5,4.17 16.32,5.08 20.55,5.08z"/>
   <path class="fil0" d="M46.92 37.27c-7.48,0 -42.95,-0.6 -46.92,5.32 0.64,2.41 4.38,2.85 6.95,3.36 9.62,1.92 23.7,2.3 33.98,2.3 4.56,0 35.27,-0.75 35.27,-5.66 0,-3.14 -17.22,-4.66 -21.96,-4.66 0.02,-1.19 2.81,-12.71 3.41,-13.55l15.3 -16.31c1.85,-1.84 3.25,-2.41 3.25,-4.41 0,-1.15 -3.06,-3.66 -4.33,-3.66 -0.96,0 -3.4,2.82 -4.07,3.58l-13.13 13.82c-6.16,7.37 -2.93,1.8 -6.23,13.4 -0.48,1.71 -1.48,4.71 -1.52,6.47z"/>
  </g>
 </g>
</svg>
