<?xml version="1.0" encoding="UTF-8"?>
<!DOCTYPE svg PUBLIC "-//W3C//DTD SVG 1.1//EN" "http://www.w3.org/Graphics/SVG/1.1/DTD/svg11.dtd">
<!-- Creator: CorelDRAW 2018 (64-Bit) -->
<svg xmlns="http://www.w3.org/2000/svg" xml:space="preserve" width="100px" height="141px" version="1.1" style="shape-rendering:geometricPrecision; text-rendering:geometricPrecision; image-rendering:optimizeQuality; fill-rule:evenodd; clip-rule:evenodd"
viewBox="0 0 99.09 139.86"
 xmlns:xlink="http://www.w3.org/1999/xlink">
 <defs>
  <style type="text/css">
   <![CDATA[
    .fil4 {fill:black}
    .fil0 {fill:#E34D26}
    .fil2 {fill:#EBEAEA}
    .fil1 {fill:#F16429}
    .fil3 {fill:#FFFEFE}
   ]]>
  </style>
 </defs>
 <g id="Слой_x0020_1">
  <metadata id="CorelCorpID_0Corel-Layer"/>
  <g id="_1644803673216">
   <path class="fil0" d="M8.94 128.66l37.9 10.52c3.13,0.88 2.11,0.91 5.2,0.03l12.6 -3.5c1.7,-0.5 3.47,-0.99 5.14,-1.42l19.04 -5.28c0.34,-0.1 0.95,-0.31 1.33,-0.35 0,-1.09 0.2,-2.09 0.24,-3.1l1.26 -14.24c0.07,-0.49 0.12,-1.21 0.16,-1.63 0.17,-2.1 0.31,-4.37 0.57,-6.34 0.07,-0.49 0.09,-1.14 0.13,-1.54l0.84 -9.42c0.06,-0.62 0.11,-1.05 0.14,-1.65 0.1,-2.37 0.62,-6.7 0.84,-9.53l0.83 -9.42c0.16,-2.05 0.47,-4.25 0.59,-6.33 0.17,-3.03 0.71,-6.61 0.84,-9.53 0.02,-0.51 0.08,-0.96 0.14,-1.53 0.04,-0.44 0.06,-1.14 0.13,-1.66 0.11,-0.84 0.25,-2.16 0.32,-3.02l0.38 -4.75c0.04,-0.4 0.08,-1.13 0.15,-1.63l1.38 -15.91 -99.09 0c0,1.15 0.21,2.06 0.24,3.1 0.09,2.85 0.77,6.95 0.83,9.54l1.67 18.95c0.09,1.7 0.52,4.5 0.6,6.33 0.04,1.01 0.15,2.14 0.26,3.2l1.15 12.55c0.12,1.11 0.2,2.12 0.26,3.2 0.12,2.05 0.42,4.27 0.59,6.33 0.16,2.09 0.32,4.39 0.57,6.35 0.06,0.48 0.11,1.14 0.14,1.52l0.25 3.21c0.14,2.45 0.55,5.19 0.71,7.87l0.85 9.53c0.04,0.44 0.07,1.01 0.13,1.55l0.45 4.78c0.04,1.1 0.24,2.12 0.24,3.22z"/>
   <path class="fil1" d="M18.45 48.17l31.14 0 30.99 -0.01 -1.07 11.94c-0.07,0.56 0.08,0.3 -0.21,0.48l-29.82 -0.01 0.06 12.7 28.75 0c0.06,0.44 0.07,0.38 -0.1,0.67 0.15,0.73 -1.39,16.56 -1.59,18.72 -0.55,6.15 -0.93,12.55 -1.67,18.65 -0.92,0.45 -24.66,6.93 -25.14,6.92l-0.28 0.17 0.03 12.82c0.69,-0.03 15.28,-4.18 16.38,-4.49l15.4 -4.27c0.36,-0.09 0.69,-0.13 0.99,-0.35l7.75 -86.36 -30.44 0c-1.82,0 -8.85,-0.24 -10.08,0.07l0 12.23c-9.55,0.11 -19.51,0.01 -29.15,0.01 -0.46,0 -1.57,-0.09 -1.94,0.11z"/>
   <path class="fil2" d="M21.74 85.67l27.76 0 0 -12.22 28.72 0 -0.03 0.49c0.17,-0.29 0.16,-0.23 0.1,-0.67l-28.75 0 -16.41 -0.01 -1.12 -12.69 17.47 0 29.82 0.01c0.29,-0.18 0.14,0.08 0.21,-0.48 -0.25,0.34 -0.21,-0.44 -0.21,0.42l-29.8 -0.05c0,-1.65 -0.12,-11.53 0.09,-12.3l-31.14 0 3.29 37.5z"/>
   <path class="fil3" d="M49.5 85.67l15.2 0.01c0.09,0.46 -1.2,15.28 -1.41,16.11l-13.78 3.7 -0.01 12.68 0.29 0.06c0.48,0.01 24.22,-6.47 25.14,-6.92 0.74,-6.1 1.12,-12.5 1.67,-18.65 0.2,-2.16 1.74,-17.99 1.59,-18.72l0.03 -0.49 -28.72 0 0 12.22z"/>
   <path class="fil2" d="M49.51 118.4l0.28 -0.17 -0.29 -0.06 0.01 -12.68 -0.21 -0.13c-0.69,0.02 -11.93,-3.14 -13.59,-3.59l-0.92 -9.85 -12.44 -0.04 1.73 19.5 25.43 7.02z"/>
   <path class="fil3" d="M79.51 60.1l1.07 -11.94 -30.99 0.01c-0.21,0.77 -0.09,10.65 -0.09,12.3l29.8 0.05c0,-0.86 -0.04,-0.08 0.21,-0.42z"/>
   <path class="fil4" d="M50.44 18.6c0,0.28 0.08,0.36 0.36,0.36l5.6 0c0.57,0 0.36,-0.97 0.36,-2.03l0.11 -7.02 2.03 3.09c0.29,0.48 1.88,3.01 2.15,3.22 0.38,-0.26 2.87,-4.19 3.26,-4.85 0.27,-0.46 0.79,-1.35 1.15,-1.59l0 9.18 5.97 0c0.27,0 0.35,-0.08 0.35,-0.36l0 -18.6 -6.43 0c-0.48,0 -0.93,1.12 -1.15,1.48l-3.15 5.08c-0.1,-0.38 -0.73,-1.31 -0.94,-1.68l-2.54 -4.14c-0.18,-0.3 -0.29,-0.74 -0.69,-0.74l-6.44 0 0 18.6z"/>
   <path class="fil4" d="M9.18 18.6c0,0.28 0.08,0.36 0.36,0.36l5.72 0c0.28,0 0.36,-0.08 0.36,-0.36l0 -5.96 5.61 0 0 5.96c0,0.28 0.08,0.36 0.35,0.36l5.73 0c0.27,0 0.35,-0.08 0.35,-0.36l0 -18.6 -6.43 0 0 6.2 -5.61 0 0 -6.2 -6.44 0 0 18.6z"/>
   <path class="fil1" d="M49.3 105.36l0.21 0.13 13.78 -3.7c0.21,-0.83 1.5,-15.65 1.41,-16.11l-15.2 -0.01 -27.76 0c0.12,0.09 0.03,0.08 0.32,0.15l27.47 0.04c0.09,6.09 -0.09,12.44 0.01,18.48 0.01,0.57 0.16,0.85 -0.24,1.02z"/>
   <polygon class="fil0" points="49.54,73.27 49.48,60.57 32.01,60.57 33.13,73.26 "/>
   <path class="fil4" d="M30.29 6.32l5.6 0 0 12.64 6.32 0 0 -12.64 5.25 0c0.27,0 0.36,-0.08 0.36,-0.36l0 -5.96 -17.53 0 0 6.32z"/>
   <path class="fil4" d="M74.88 18.96l15.15 0 0 -6.32 -8.47 0c-0.27,0 -0.36,-0.08 -0.36,-0.36l0 -12.28 -6.32 0 0 18.96z"/>
  </g>
 </g>
</svg>
