<?xml version="1.0" encoding="UTF-8"?>
<!DOCTYPE svg PUBLIC "-//W3C//DTD SVG 1.1//EN" "http://www.w3.org/Graphics/SVG/1.1/DTD/svg11.dtd">
<!-- Creator: CorelDRAW 2018 (64-Bit) -->
<svg xmlns="http://www.w3.org/2000/svg" xml:space="preserve" width="100px" height="141px" version="1.1" style="shape-rendering:geometricPrecision; text-rendering:geometricPrecision; image-rendering:optimizeQuality; fill-rule:evenodd; clip-rule:evenodd"
viewBox="0 0 110.21 154.91"
 xmlns:xlink="http://www.w3.org/1999/xlink">
 <defs>
  <style type="text/css">
   <![CDATA[
    .fil2 {fill:black}
    .fil0 {fill:#E4BC00}
    .fil1 {fill:#FCD800}
   ]]>
  </style>
 </defs>
 <g id="Слой_x0020_1">
  <metadata id="CorelCorpID_0Corel-Layer"/>
  <g id="_2535728926784">
   <path class="fil0" d="M17.65 109.09l15.85 4.27c1.64,0.41 3.76,1.26 5.51,1.3l0 -61.3 11.76 0 0 77.09c-1.3,-0.11 -2.95,-0.67 -4.22,-1.04l-12.43 -3.36c-2.63,-0.72 -5.42,-1.48 -8.25,-2.28l-8.22 -2.3 0 -12.38zm37.51 36.04l0.03 -105.02 44.03 -0.06c-0.25,5.58 -0.86,11.49 -1.47,17.02 -1.78,16.24 -2.83,34.9 -4.51,51.4 -0.81,7.93 -1.35,18.26 -2.29,25.71 -0.28,2.24 -1.36,1.62 -6.19,3.05l-29.6 7.9zm-45.56 -2.92c1.81,0.43 3.69,1.06 5.57,1.55l39.94 11.15 43.85 -12.18c1.33,-0.3 1.66,0.55 1.95,-3.63 0.14,-2.05 0.19,-3.21 0.35,-5.22l5.42 -62.07c0.49,-3.39 0.39,-6.99 0.83,-10.31l1.78 -20.52c0.16,-3.29 0.92,-7.18 0.92,-10.53l-110.21 0c0.37,4.44 1.1,9.35 1.24,13.93 0.14,4.44 1.12,9.45 1.24,13.93l3.66 41.85c0.58,5.47 1.06,15.86 1.78,20.82l1.68 21.23z"/>
   <path class="fil1" d="M91.95 65.44l-20.44 0 0 21.36c0.9,-0.43 8.13,-1.36 9.86,-1.6l9.96 -1.5 -2.76 29.13c-0.18,2.31 -0.49,7.88 -0.96,9.88l-28.17 7.74 0 -12.38c5.3,-1.24 10.55,-3.07 15.79,-4.33 3.33,-0.81 1.96,-0.36 2.92,-7.31 0.4,-2.95 0.5,-6.51 1.1,-9.11 -1.38,0.03 -3.26,0.48 -4.86,0.71 -1.42,0.21 -3.57,0.54 -5.09,0.8 -3.23,0.54 -6.83,0.88 -9.86,1.59l0 -47.06 34.37 0 -0.91 9.32c-0.08,1.39 0.43,2.76 -0.95,2.76zm-7.19 71.79c4.83,-1.43 5.91,-0.81 6.19,-3.05 0.94,-7.45 1.48,-17.78 2.29,-25.71 1.68,-16.5 2.73,-35.16 4.51,-51.4 0.61,-5.53 1.22,-11.44 1.47,-17.02l-44.03 0.06 -0.03 105.02 29.6 -7.9z"/>
   <polygon class="fil2" points="54.49,12.81 68.42,12.81 68.42,15.28 54.49,15.28 54.49,20.85 73.99,20.85 73.99,7.85 60.06,7.85 60.06,5.68 73.99,5.68 73.99,0.11 54.49,0.11 "/>
   <path class="fil2" d="M45.2 15.28l-8.36 0 0 5.57 14.86 0 0 -20.74c-7.31,0 -5.57,-1.62 -5.57,7.43 0,1.45 -0.01,2.9 0,4.34 0.02,1.48 0.45,3.4 -0.93,3.4z"/>
  </g>
 </g>
</svg>
