<?xml version="1.0" encoding="UTF-8"?>
<!DOCTYPE svg PUBLIC "-//W3C//DTD SVG 1.1//EN" "http://www.w3.org/Graphics/SVG/1.1/DTD/svg11.dtd">
<!-- Creator: CorelDRAW 2018 (64-Bit) -->
<svg xmlns="http://www.w3.org/2000/svg" xml:space="preserve" width="140px" height="38px" version="1.1" style="shape-rendering:geometricPrecision; text-rendering:geometricPrecision; image-rendering:optimizeQuality; fill-rule:evenodd; clip-rule:evenodd"
viewBox="0 0 118.79 32.16"
 xmlns:xlink="http://www.w3.org/1999/xlink">
 <defs>
  <style type="text/css">
   <![CDATA[
    .fil0 {fill:black}
    .fil1 {fill:#80BC00}
   ]]>
  </style>
 </defs>
 <g id="Слой_x0020_1">
  <metadata id="CorelCorpID_0Corel-Layer"/>
  <g id="_2536005767744">
   <path class="fil0" d="M59.46 12.99c-0.2,0 -1.03,-0.5 -1.32,-0.66 -1.53,-0.85 -1.43,-0.77 -3.23,0.31l-6.44 3.72c-0.44,0.26 -0.69,0.47 -0.69,1.17l0 8.94c0,0.27 0.1,0.52 0.2,0.69 0.12,0.19 0.29,0.27 0.5,0.39l7.01 4.06c1.67,1 1.49,0.56 3.68,-0.63l5.65 -3.28c0.36,-0.21 0.9,-0.39 0.9,-0.96l0 -23.37c0,-0.53 -0.75,-0.85 -1.15,-1.06l-1.76 -0.98c-0.55,-0.31 -2.2,-1.33 -2.59,-1.33 -0.62,0 -0.48,0.64 -0.48,1.24l0 11.14c0.01,0.31 0.03,0.61 -0.28,0.61z"/>
   <path class="fil1" d="M23.92 17.05l0 9.35c0,0.79 1.01,1.11 1.97,1.68l5.87 3.4c1.19,0.72 1.26,0.56 2.5,-0.17 2.12,-1.25 5.17,-2.89 7.05,-4.09 0.4,-0.25 0.56,-0.66 0.56,-1.3l0 -8.39c0,-1.19 -0.46,-1.21 -1.75,-1.96l-6.54 -3.78c-0.84,-0.5 -1.15,-0.16 -1.96,0.31l-2.27 1.31c-0.39,0.21 -0.78,0.46 -1.17,0.68l-3.4 1.96c-0.36,0.2 -0.86,0.49 -0.86,1z"/>
   <path class="fil0" d="M71.63 17.25l0 9.15c0,0.85 0.92,1.16 1.88,1.7l5.71 3.29c1.31,0.79 1.31,0.72 2.38,0.16l2.31 -1.26c0.21,-0.11 0.27,-0.16 0.49,-0.27 0.34,-0.18 1.66,-0.82 1.76,-1.12 0.06,-0.17 -0.01,-0.38 -0.1,-0.5 -0.15,-0.21 -6.93,-4.02 -7.79,-4.52 -0.38,-0.22 -0.59,-0.24 -0.59,-0.85l0 -2.41c0,-0.56 0.24,-0.61 0.76,-0.89 0.35,-0.19 0.69,-0.42 1.03,-0.62 1.6,-0.91 0.83,-0.79 3.21,0.51 1.17,0.64 0.92,0.5 0.91,2.38 0,0.59 -0.12,1.17 0.49,1.17 0.33,0 3.72,-2.17 4.29,-2.52 1.42,-0.85 1.14,-0.52 1.14,-3.53 0,-0.8 -1.05,-1.21 -1.91,-1.68l-4.53 -2.61c-0.4,-0.21 -0.76,-0.42 -1.14,-0.65 -0.2,-0.12 -0.36,-0.2 -0.56,-0.33 -1.02,-0.61 -1.73,0.15 -3.21,1 -0.39,0.22 -0.74,0.43 -1.14,0.65 -0.42,0.22 -0.76,0.45 -1.17,0.68l-3.44 2c-0.42,0.22 -0.78,0.45 -0.78,1.07z"/>
   <path class="fil0" d="M0 16.91l0 12.58c0,1.16 2.11,-0.4 2.96,-0.89l2.36 -1.35c0.74,-0.43 0.66,-0.73 0.66,-1.81l0 -4.95c0.06,-0.72 0.73,-0.96 1.23,-1.24 2.05,-1.17 1.33,-1.29 4.11,0.36 0.9,0.53 0.57,1.38 0.57,3.14 0,0.85 0,1.7 0,2.55 0,1.01 -0.07,1.46 0.58,1.89l4.78 2.71c0.29,0 0.69,0.08 0.69,-0.48l0 -12.3c0,-0.92 -0.9,-1.14 -1.9,-1.74 -0.4,-0.24 -0.74,-0.42 -1.14,-0.65 -0.4,-0.25 -0.75,-0.45 -1.17,-0.68 -0.21,-0.12 -0.35,-0.22 -0.56,-0.34 -0.22,-0.13 -0.35,-0.2 -0.57,-0.33 -0.41,-0.24 -0.77,-0.43 -1.18,-0.67 -2.53,-1.54 -2.2,-1.5 -3.58,-0.75 -0.39,0.21 -0.79,0.44 -1.18,0.68l-5.77 3.31c-0.36,0.2 -0.89,0.41 -0.89,0.96z"/>
   <path class="fil1" d="M95.42 17.53l0 8.39c0,1.26 0.84,1.53 1.64,1.99 1.33,0.77 1.61,1.1 3.1,1.1 1.12,0 1.99,-0.96 1.99,-2.06l0 -8.94c0,-0.32 -0.38,-0.21 -1.16,-0.21 -0.44,0 -0.28,1.21 -0.28,1.65l0 5.92c0,0.54 0.13,1.43 -0.12,1.8 -0.3,0.46 -0.84,0.53 -1.39,0.33l-2.16 -1.21c-0.14,-0.09 -0.25,-0.12 -0.25,-0.3l0 -8.6c0,-0.32 1.57,-1.08 1.81,-1.21l5.89 -3.39c0.34,0 6.77,3.8 7.43,4.18 0.15,0.09 0.41,0.2 0.41,0.42l0 8.53c0,0.23 -0.5,0.44 -0.87,0.64l-2.97 1.71c-0.66,0.4 -1.29,0.72 -1.96,1.12 -0.19,0.12 -0.3,0.16 -0.49,0.28l-1.48 0.85c-0.21,-0.14 -1.97,-1.17 -2.13,-1.17 -0.24,0 -0.49,0.19 -0.69,0.28 -0.16,0.07 -0.58,0.23 -0.75,0.27 0.07,0.29 0.34,0.38 0.71,0.59 0.32,0.19 0.59,0.35 0.87,0.51 2.16,1.24 1.91,1.37 5.09,-0.54l4.19 -2.41c0.79,-0.43 1.85,-0.89 1.85,-1.93l0 -8.8c0,-1.21 -0.97,-1.49 -1.75,-1.95 -2.1,-1.23 -4.42,-2.5 -6.45,-3.72 -0.96,-0.58 -1.73,-0.06 -2.47,0.36 -0.41,0.23 -0.78,0.43 -1.18,0.68l-3.57 2.06c-1.65,0.98 -2.86,1.21 -2.86,2.78z"/>
   <path class="fil1" d="M103.05 19.87c0,1.56 0.85,2.06 2.47,2.34 0.8,0.13 3.51,0.29 3.51,1.03 0,1.12 -0.66,1.37 -2.13,1.37 -0.67,0 -1.51,-0.07 -1.95,-0.32 -0.9,-0.5 -0.43,-1.4 -0.94,-1.4 -0.59,0 -0.67,-0.04 -1.17,0.07 0,0.7 0.04,0.98 0.27,1.45 1.19,2.32 7.43,2.16 7.43,-0.9 0,-1.56 -0.78,-2.13 -2.47,-2.41 -0.9,-0.15 -2.04,-0.26 -2.92,-0.52 -0.57,-0.17 -0.59,-0.28 -0.59,-0.78 0,-1.13 2.95,-1.08 3.76,-0.53 0.45,0.32 0.41,1.15 0.78,1.15 1.07,0 1.17,0.1 1.17,-0.28 0,-0.41 -0.18,-0.9 -0.33,-1.18 -1,-1.81 -4.61,-1.69 -5.85,-0.87 -0.6,0.4 -1.04,1 -1.04,1.78z"/>
   <path class="fil1" d="M78.85 20.9c0,1.62 -0.17,1.73 0.34,1.99 0.18,0.09 0.31,0.18 0.48,0.28 1.19,0.71 0.72,0.62 2.28,-0.27 0.52,-0.3 0.34,-0.37 0.34,-2.07 0,-0.2 -0.45,-0.39 -0.79,-0.59 -1.12,-0.66 -0.81,-0.59 -2.29,0.27 -0.15,0.08 -0.36,0.18 -0.36,0.39z"/>
   <path class="fil1" d="M115.84 13.89c0,1.96 2.95,2.1 2.95,-0.07 0,-1.76 -2.95,-1.91 -2.95,0.07z"/>
   <path class="fil1" d="M116.8 14.78l0.41 0 0 -0.62 0.34 0c0.03,0.27 0.07,0.27 0.07,0.62l0.42 0c-0.04,-0.4 -0.1,-0.56 -0.28,-0.82 0.09,-0.15 0.21,-0.18 0.21,-0.35 0,-0.6 -0.53,-0.48 -1.17,-0.48l0 1.65z"/>
  </g>
 </g>
</svg>
