<?xml version="1.0" encoding="UTF-8"?>
<!DOCTYPE svg PUBLIC "-//W3C//DTD SVG 1.1//EN" "http://www.w3.org/Graphics/SVG/1.1/DTD/svg11.dtd">
<!-- Creator: CorelDRAW 2018 (64-Bit) -->
<svg xmlns="http://www.w3.org/2000/svg" xml:space="preserve" width="120px" height="120px" version="1.1" style="shape-rendering:geometricPrecision; text-rendering:geometricPrecision; image-rendering:optimizeQuality; fill-rule:evenodd; clip-rule:evenodd"
viewBox="0 0 154 151"
 xmlns:xlink="http://www.w3.org/1999/xlink">
 <defs>
  <style type="text/css">
   <![CDATA[
    .fil1 {fill:#002230}
    .fil2 {fill:#006681}
    .fil3 {fill:#008BAE}
    .fil0 {fill:#00B6DE}
   ]]>
  </style>
 </defs>
 <g id="Слой_x0020_1">
  <metadata id="CorelCorpID_0Corel-Layer"/>
  <g id="_2536149939504">
   <path class="fil0" d="M0 1l0 149 153 0c1,0 1,0 1,-1l0 -148c0,-1 0,-1 -1,-1l-152 0c-1,0 -1,0 -1,1z"/>
   <path class="fil1" d="M147 7l-140 0c-1,3 0,14 0,17 0,18 0,118 0,119l140 0c1,-2 0,-61 0,-68 0,-4 0,-66 0,-68z"/>
   <path class="fil0" d="M37 35c-1,12 0,31 0,44l0 26 8 0c5,0 4,1 4,-14l0 -12 5 0c28,0 30,-25 23,-36 -5,-8 -14,-9 -23,-9 -3,0 -14,0 -16,1z"/>
   <path class="fil0" d="M86 93l0 10c5,4 17,4 25,1 6,-3 11,-13 6,-21 -5,-7 -13,-8 -18,-13 -4,-4 0,-8 5,-8 2,0 8,1 10,2 0,0 1,1 1,1 1,1 1,0 1,0 1,-1 0,-6 0,-8 0,-3 -2,-3 -4,-4 -9,-1 -20,-1 -24,8 -2,4 -2,9 0,14 5,9 15,9 19,15 1,2 1,5 -1,6 -2,1 -4,2 -6,2 -3,0 -7,-1 -10,-3 -1,-1 -2,-1 -3,-1z"/>
   <path class="fil1" d="M49 51l0 15c0,4 0,4 5,4 20,0 17,-23 5,-25 -2,0 -6,0 -8,0 -3,0 -2,0 -2,7z"/>
   <path class="fil2" d="M7 144c1,1 63,0 70,0 7,0 69,1 70,0 1,-3 0,-114 0,-129 0,-2 1,-7 -1,-8 1,3 0,64 0,68 0,8 1,67 0,68l-140 0c-1,-2 0,-101 0,-119 0,-4 0,-15 0,-17 -1,0 -1,0 -1,4l0 99c0,6 -1,31 0,34z"/>
   <path class="fil3" d="M7 144c-1,-3 0,-29 0,-34l0 -99c0,-3 0,-3 1,-4l140 0c1,1 1,6 1,8 0,15 1,126 0,129 0,0 0,0 0,0 0,0 0,0 0,0 1,-2 0,-110 0,-120 0,-3 1,-15 0,-17 -1,-1 -106,0 -124,0 -5,0 -13,0 -17,0 -1,2 0,108 0,129l0 8c0,1 0,0 0,1z"/>
  </g>
 </g>
</svg>
