<?xml version="1.0" encoding="UTF-8"?>
<!DOCTYPE svg PUBLIC "-//W3C//DTD SVG 1.1//EN" "http://www.w3.org/Graphics/SVG/1.1/DTD/svg11.dtd">
<!-- Creator: CorelDRAW 2018 (64-Bit) -->
<svg xmlns="http://www.w3.org/2000/svg" xml:space="preserve" width="140px" height="140px" version="1.1" style="shape-rendering:geometricPrecision; text-rendering:geometricPrecision; image-rendering:optimizeQuality; fill-rule:evenodd; clip-rule:evenodd"
viewBox="0 0 127 127"
 xmlns:xlink="http://www.w3.org/1999/xlink">
 <defs>
  <style type="text/css">
   <![CDATA[
    .fil1 {fill:#61D9FA}
    .fil2 {fill:#744ABD}
    .fil0 {fill:#FEFEFE}
   ]]>
  </style>
 </defs>
 <g id="Слой_x0020_1">
  <metadata id="CorelCorpID_0Corel-Layer"/>
  <g id="_2536156124432">
   <path class="fil0" d="M0 63c0,10 2,19 6,27 0,1 1,2 1,3 3,6 6,11 11,16 4,4 8,7 13,10 8,5 20,9 30,9l6 0c9,0 19,-3 25,-6 2,-1 3,-2 5,-3 3,-2 4,-3 7,-5 1,0 1,0 1,-1 0,0 1,0 1,-1 4,-4 8,-8 11,-12 7,-11 11,-22 11,-36 0,-8 -2,-18 -5,-25l-3 -5c-3,-6 -10,-14 -15,-18 -8,-6 -14,-10 -24,-13 -4,-1 -9,-2 -13,-2l-7 0c-9,0 -17,3 -25,6 -5,3 -12,7 -16,11 -1,1 -1,1 -2,2 -1,1 -2,3 -4,4 -1,1 -2,3 -3,4 -7,11 -11,22 -11,35z"/>
   <path class="fil1" d="M75 17c1,1 2,1 2,1 1,1 1,1 2,2 3,-1 5,-3 9,-3 4,0 6,2 8,5 3,7 1,15 -1,21l-6 -1 0 1 -6 -2 0 -1 0 1c-1,0 -2,0 -3,0 -1,0 -1,-1 -2,-1 -1,-1 -2,-3 -3,-4l-6 -7c1,-1 4,-4 5,-5 -1,-1 -3,-2 -5,-3 0,1 -3,3 -4,4 -1,0 -3,-3 -4,-3 -1,0 -4,1 -5,2 1,0 5,4 6,5 0,1 -8,9 -10,12l-6 1c-1,0 0,0 -1,0 0,1 -1,4 0,5l3 0c0,1 -2,4 -3,5 0,2 1,6 1,8 1,-1 1,-2 2,-3 1,-1 1,-2 2,-3 1,-1 3,-5 4,-6 0,-3 2,-5 5,-6 2,-1 4,0 6,2 1,0 1,1 1,2 3,0 6,0 9,1 3,0 6,1 8,2l0 -1c2,0 8,1 11,2l-1 3c1,1 4,2 4,3l2 -5c5,1 14,5 18,9 7,7 0,12 -6,16l0 5c4,-2 8,-4 10,-8 7,-9 0,-17 -8,-22 -5,-3 -12,-5 -13,-5 0,-2 2,-7 2,-15 0,-15 -8,-22 -22,-15 -1,1 -5,3 -5,3z"/>
   <path class="fil1" d="M86 62c1,1 2,1 3,4 1,3 -1,7 -4,8 -1,0 -1,0 -2,1 -2,5 -6,9 -10,13 -1,1 -3,2 -3,3l-4 5 -1 -1 -5 2 3 3c-6,7 -28,23 -27,-2 -2,-1 -3,-2 -5,-2 -1,4 0,11 2,15 2,4 5,7 11,6 6,0 13,-5 18,-9 1,-1 2,-1 2,-2 1,-1 1,-2 2,-2 1,0 6,5 10,8 12,8 23,7 26,-7 1,-3 0,-6 0,-8 -1,0 -2,1 -3,1 -1,0 -2,1 -3,1 0,0 0,0 0,0 0,1 0,4 0,5 -3,18 -26,-2 -27,-4 1,-1 2,-3 3,-3 0,0 0,0 0,0l1 -1c0,-1 3,-4 3,-5 2,-3 2,-3 4,-3 6,-1 9,-2 14,-2 0,2 1,5 1,8 1,-1 2,-1 3,-2 1,-1 2,-1 2,-2l-1 -6 5 -2c0,-1 1,-4 0,-6 -1,1 -5,2 -7,2 -1,-3 -2,-7 -4,-10 -2,-6 -2,-4 -1,-7l1 -2c0,0 0,0 0,0 -2,-2 -10,-7 -14,-7l5 11z"/>
   <path class="fil1" d="M22 79l0 -5c-6,-3 -14,-9 -7,-16 2,-2 5,-4 8,-6 2,-1 8,-4 10,-4l2 6 1 1c4,9 4,7 2,11l-4 12 -6 -2c0,2 0,4 1,5l4 1c0,1 -1,4 -1,4 1,2 3,3 5,4l1 -7c2,0 4,1 6,1 2,0 4,1 6,1 3,0 4,0 5,1 1,1 2,3 3,4 1,-1 3,-1 4,-2 1,-1 3,-1 4,-2 2,-1 6,-4 7,-5 -3,0 -5,0 -8,0 -1,0 -3,0 -4,0 -2,0 -3,0 -3,-1 -3,1 -4,0 -6,-1l0 1c-3,0 -8,-1 -10,-2 0,-2 3,-9 4,-10 1,1 2,3 2,3 0,1 1,1 1,2 0,1 1,1 1,2 0,-4 1,-4 1,-4 0,-1 -1,-3 -2,-4 -1,-2 -2,-5 -3,-8 -3,-8 -2,-11 -2,-19l-3 1c-1,-6 -5,-26 6,-26 3,0 7,2 9,3 1,0 2,-1 2,-2 1,-1 2,-1 3,-1 -1,0 -4,-2 -5,-3 -13,-6 -22,1 -22,15 0,6 2,14 2,15 -4,1 -10,3 -13,5 -9,5 -15,14 -8,23 2,2 8,7 11,8z"/>
   <path class="fil0" d="M47 58c1,4 3,8 4,11 4,0 6,2 7,5 1,4 -1,6 -4,8 1,1 2,1 3,1 1,0 3,0 4,0 3,0 6,0 8,0 2,-1 6,-6 7,-8 1,-2 1,-2 0,-3 -2,-4 0,-12 9,-9l-5 -11c-3,-2 -11,-2 -15,-2 -1,1 -3,5 -7,4 -3,-1 -5,-3 -5,-6 -1,0 -3,4 -4,6 -1,1 -1,2 -2,3 -1,1 -1,2 -2,3z"/>
   <path class="fil2" d="M57 16c-1,0 -2,1 -3,1 -1,1 -2,1 -2,2 0,1 -1,1 -1,1l-3 3c-1,2 -2,3 -3,5 -2,5 -3,8 -4,13 0,8 -1,11 2,19 1,3 2,5 3,8 0,1 2,3 2,4 0,1 -1,0 -1,4 0,1 1,3 2,4 2,1 3,2 6,1 2,-1 5,-4 4,-8 -1,-3 -3,-5 -7,-5 -1,-3 -4,-7 -4,-11 -1,-2 -1,-6 -1,-8 0,-1 0,-4 0,-5 0,-2 0,-4 0,-5 1,-7 6,-16 11,-18 1,-1 4,-2 5,-2 3,-1 5,-1 8,0 2,1 4,1 5,3 2,1 4,5 6,7 1,3 3,6 3,10l0 1 6 2 0 -1c-1,-7 -2,-12 -6,-18 -2,-3 -2,-2 -4,-4 -1,0 -1,-1 -2,-2 -1,-1 -2,-1 -2,-1 -7,-3 -11,-3 -18,0z"/>
   <path class="fil2" d="M22 74l0 5c1,3 1,6 3,9 1,1 2,2 2,3 1,1 2,2 3,3 1,1 3,2 5,2 4,2 8,2 13,2 2,0 4,-1 6,-1 2,-1 4,-1 6,-2l5 -2c1,-1 2,-1 3,-2 1,-1 2,-1 3,-2 0,-1 3,-2 3,-3 4,-4 7,-8 10,-13 1,-1 0,-1 2,-1 3,-1 5,-5 4,-8 -1,-2 -2,-2 -3,-4 -8,-3 -11,5 -9,9 1,2 1,1 0,3 -1,2 -5,8 -7,8 -1,1 -5,4 -7,5 -1,1 -3,1 -4,2 -1,1 -3,1 -4,2 -7,2 -13,3 -20,0 -2,-1 -3,-2 -5,-4 -1,-2 -2,-3 -3,-6 -1,-1 -1,-4 -1,-5 0,-4 2,-7 3,-10 1,-2 4,-5 6,-7l-1 -4 -1 -1c-5,4 -12,11 -13,20z"/>
   <path class="fil2" d="M54 47c0,3 2,6 5,6 5,1 6,-2 7,-4 4,0 12,0 15,2 4,1 12,5 14,7l4 3c1,1 2,2 3,4 2,2 4,6 4,10 1,2 0,4 0,6 0,2 -3,6 -4,7 -1,1 -1,1 -2,2 -1,1 -2,1 -3,2 -4,1 -5,2 -10,2 -5,0 -5,-1 -9,-2 -1,1 -2,2 -4,3l-1 1c0,0 0,0 0,0 3,1 7,3 11,3 2,0 5,0 7,0 2,0 4,-1 6,-1 1,0 2,-1 3,-1 1,0 2,-1 3,-1 1,-1 2,-2 3,-3 1,-1 2,-2 3,-3 2,-3 3,-6 3,-10l0 -5c-2,-7 -3,-10 -9,-16 -1,-1 -3,-3 -5,-4 -1,0 -4,-2 -4,-3 -1,0 -3,-2 -5,-2 -1,-1 -4,-1 -5,-2 -2,0 -5,-1 -8,-2 -3,0 -6,0 -9,-1 -1,0 -1,-1 -1,-2 -2,-2 -4,-2 -6,-2 -3,1 -5,3 -5,6z"/>
   <path class="fil1" d="M64 53c-5,1 -10,6 -8,12 1,5 6,9 12,8 5,-1 10,-6 9,-12 -1,-5 -6,-10 -12,-8z"/>
   <path class="fil0" d="M22 74c1,-9 8,-16 13,-20l-2 -6c-2,0 -9,3 -10,4 -3,2 -6,3 -8,6 -6,7 2,13 7,16z"/>
   <path class="fil0" d="M79 20c2,2 2,1 4,4 4,6 5,10 6,18l6 1c1,-7 3,-15 1,-21 -1,-3 -3,-5 -8,-5 -4,0 -6,2 -9,3z"/>
   <path class="fil0" d="M97 53c2,1 3,3 5,4 6,6 7,9 9,16 6,-3 13,-9 6,-16 -4,-4 -13,-8 -18,-9l-2 5z"/>
   <path class="fil0" d="M35 97c0,25 21,9 27,2l-3 -3c-2,0 -4,1 -6,2 -2,0 -4,1 -6,1 -4,0 -9,0 -13,-2z"/>
   <path class="fil0" d="M97 97c-2,0 -4,1 -6,1 -2,0 -5,0 -7,0 -4,0 -8,-2 -11,-3 -1,0 -2,2 -3,3 1,2 24,22 27,4 0,-1 1,-4 0,-5 0,-1 0,0 0,0z"/>
   <path class="fil0" d="M40 42c1,-5 2,-8 4,-13 1,-2 2,-4 3,-5l3 -3c0,0 1,0 1,-1 -2,-1 -6,-3 -9,-3 -12,0 -8,20 -6,26l3 -1z"/>
   <path class="fil0" d="M46 41c0,0 0,0 1,0l6 -1c2,-4 9,-12 10,-12 -1,-1 -5,-4 -6,-5 -5,2 -10,11 -11,18z"/>
   <path class="fil0" d="M74 94c1,-1 3,-2 4,-3 4,1 4,2 9,2 5,0 6,0 10,-2 0,-3 -1,-6 -1,-8 -4,1 -8,2 -14,2 -3,0 -2,0 -4,3 -1,1 -3,4 -3,5z"/>
   <path class="fil0" d="M35 91c7,3 13,2 20,0 0,-1 -2,-3 -3,-4 -1,-1 -2,-1 -5,-1 -2,0 -4,-1 -6,-1 -2,0 -4,-1 -6,-1l-1 7z"/>
   <path class="fil0" d="M105 76c0,-3 -2,-7 -4,-10 -1,-2 -2,-3 -3,-4l-4 -3c0,0 0,0 0,0l-1 2c-1,3 -1,2 1,7 1,3 3,7 4,10 2,0 6,-2 7,-2z"/>
   <path class="fil0" d="M83 40c0,-3 -2,-7 -3,-10 -1,-2 -4,-6 -6,-7 -1,1 -5,4 -5,5l6 7c1,1 2,2 3,4 1,1 1,1 2,1 1,0 2,0 3,0l0 -1z"/>
   <path class="fil0" d="M27 76l6 2 4 -12c2,-4 2,-2 -2,-11l1 4c-2,1 -5,4 -6,7 -2,2 -3,6 -3,10z"/>
   <path class="fil0" d="M83 81c2,0 8,-1 10,-2 0,-2 -3,-9 -4,-10l-5 9c-1,1 -1,2 -2,3z"/>
   <path class="fil0" d="M48 80c-1,-1 -2,-2 -2,-4 -1,-1 -1,-1 -1,-2 0,-1 -1,-1 -1,-2 0,-1 -1,-3 -2,-3 -1,1 -3,8 -4,10 3,1 8,2 10,2l0 -1z"/>
   <path class="fil0" d="M59 40l13 0c0,-1 -6,-7 -7,-8 -1,1 -6,7 -7,8z"/>
   <path class="fil0" d="M83 46c1,1 4,1 5,2 2,1 3,2 5,2l1 -3c-2,-1 -8,-2 -11,-2l0 1z"/>
   <path class="fil0" d="M101 88c1,-1 4,-5 4,-7l-5 2 1 6z"/>
   <path class="fil0" d="M62 21c0,0 3,3 4,3 1,0 4,-3 4,-4 -3,-1 -5,0 -8,0z"/>
   <path class="fil0" d="M31 87c1,-1 1,-3 1,-4l-4 -1c1,2 2,4 3,6z"/>
   <path class="fil0" d="M46 46c0,1 0,3 0,5 1,-1 3,-4 3,-5l-3 0z"/>
   <path class="fil0" d="M64 94l1 1 4 -5c-1,1 -2,1 -3,2 -1,1 -2,1 -3,2z"/>
  </g>
 </g>
</svg>
