<?xml version="1.0" encoding="UTF-8"?>
<!DOCTYPE svg PUBLIC "-//W3C//DTD SVG 1.1//EN" "http://www.w3.org/Graphics/SVG/1.1/DTD/svg11.dtd">
<!-- Creator: CorelDRAW 2018 (64-Bit) -->
<svg xmlns="http://www.w3.org/2000/svg" xml:space="preserve" width="30px" height="29px" version="1.1" style="shape-rendering:geometricPrecision; text-rendering:geometricPrecision; image-rendering:optimizeQuality; fill-rule:evenodd; clip-rule:evenodd"
viewBox="0 0 38 22"
 xmlns:xlink="http://www.w3.org/1999/xlink">
 <defs>
  <style type="text/css">
   <![CDATA[
    .fil0 {fill:black}
   ]]>
  </style>
 </defs>
 <g id="Слой_x0020_1">
  <metadata id="CorelCorpID_0Corel-Layer"/>
  <g id="_2259001594752">
   <path class="fil0" d="M0 7c0,0 3,1 4,1 0,0 0,0 1,0 0,0 0,0 0,-1 1,0 1,0 2,0 0,0 -1,0 -1,0 0,0 -1,2 -1,2 -1,1 -2,5 -2,6l0 1c1,0 1,1 3,0 0,0 0,0 1,0l0 -4c0,-1 0,-3 0,-4 1,0 2,-1 3,-1 0,0 0,0 0,0 0,0 -2,0 -2,1 0,0 2,1 3,1l6 2c1,0 1,0 2,0 2,1 1,1 3,0 0,0 1,0 1,0 0,0 1,0 1,0 0,0 1,0 1,0l4 -1c0,0 1,0 1,0 2,-1 4,-1 6,-2 0,0 1,0 1,0 0,0 2,-1 2,-1 0,0 -1,0 -1,-1 -4,-2 -9,-3 -13,-5 -1,0 -5,-2 -5,-2 0,0 -13,5 -14,5l-4 2c0,0 0,0 -1,0z"/>
   <path class="fil0" d="M30 11c-1,0 -1,0 -1,0l-10 3c0,0 -1,0 -1,0l-8 -3c-1,0 -1,0 -1,0 0,2 0,4 0,5 0,2 1,3 2,3 1,1 3,1 4,1 1,0 2,0 4,0 1,0 1,0 1,0 1,0 1,0 1,0 1,0 1,0 1,0 1,0 2,0 2,0 2,0 5,-1 6,-3 0,-1 1,-1 1,-2 0,-2 0,-4 0,-6z"/>
  </g>
 </g>
</svg>
